<svg xmlns="http://www.w3.org/2000/svg" version="1" width="1024" height="305" viewBox="0 0 1024 768">
  <path d="M1720.35 335.71c-2.633 22.55-16.26 38.78-24.778 58.85-3.16 7.433-2.51 16.136-6.194 21.68-2.26 3.376-4.213 5.575-6.195 9.292-1.703 3.19-4.522 3.778-6.194 6.194-.776 1.115 1.02 5.358 0 6.195-.404.34-2.85-.433-3.1 0-.65 1.147.96 5.42 0 6.195-.37.31-2.91-.37-3.096 0-.526 1.115.898 5.45 0 6.195-2.54 2.075-2.137 2.354-3.097 6.194 0 0-2.82 9.075-3.097 9.292-4.398 3.593-4.677 19.575-9.292 27.875-.898 1.643-2.912-.4-3.097 3.098-.03.682.34 2.51 0 3.098-1.114 2.013-5.203 4.43-6.194 6.194-.62 1.146.96 5.42 0 6.195-2.54 2.075-2.137 2.354-3.097 6.194 0 0-2.85 9.074-3.098 9.29-2.076 1.704-5.76 8.766-9.292 15.487-4.894 9.323-10.902 18.43-15.486 27.875-2.51 5.142-3.996 10.84-6.195 15.487-3.44 7.246-7.558 11.613-9.293 18.582-1.362 5.42-4.738 9.695-6.194 15.487-.403 1.61.836 4.8 0 6.193-.836 1.425-5.544 1.858-6.195 3.097-1.89 3.562-1.33 6.133-3.097 9.292-.897 1.642-2.91-.403-3.096 3.097-.124 2.632-4.708 6.844-6.195 9.29-4.275 6.94-8.518 24.067-15.487 34.07-4.43-1.827-8.022-.866-12.39-3.096-1.92-.992-4.552-5.39-6.193-6.195-4.275-2.138-8.022-.868-12.39-3.098-1.858-.96-4.614-5.45-6.194-6.195-3.283-1.517-7.867-1.115-12.39-3.097-1.67-.743-4.862-5.73-6.193-6.194-6.474-2.323-9.943.588-15.487-3.098-3.438-2.292-6.473-3.47-9.29-6.194-.683-.65-8.333-4.367-12.39-6.195-5.142-2.324-9.757-4.77-15.487-6.195-6.07-1.518-8.208-.434-12.39-3.097-3.035-1.92-4.862-1.983-9.29-3.098-3.192-.805-6.63-4.615-12.39-6.194-1.92-.527-4.275.495-6.195 0-3.964-.99-12.203-3.84-21.68-6.195-16.51-4.118-41.97-18.86-61.946-24.777-15.084-4.49-31.22-4.367-46.46-9.292-1.053-.34-.06-2.94-3.097-3.096-6.628-.34-8.517-3.376-15.486-6.194-9.478-3.84-17.56-7.03-30.973-9.292-1.982-.34-4.243.496-6.194 0-12.327-3.066-38.344-13.752-55.75-18.584-1.92-.526-4.275.496-6.195 0-4.12-1.022-16.942-7.34-24.778-9.29-7.898-1.953-17.035-1.27-24.778-3.1-.652-.153-.373-2.94-3.098-3.096-19.358-1.022-38.375-10.592-58.848-15.486-6.66-1.58-9.2-.743-18.584-3.097-3.19-.806-17.437-4.925-27.875-6.195-4.057-.495-8.332.527-12.39 0-6.44-.867-12.822-1.363-24.777-3.097-4.8-.712-5.358-2.385-9.292-3.097-11.18-1.983-23.725-1.58-30.972-6.195-5.018-3.19-23.91-8.33-34.07-9.29-17.654-1.673-35.216 3.53-52.653 3.097-13.503-.34-27.286-4.615-40.263-6.195-14.062-1.703-26.792-1.548-40.234-3.097.685 0-1.982-2.82-3.128-3.097-4.74-1.177-10.593.433-15.486 0-2.85-.248-4.678-3.717-9.293-3.098-2.51.34-3.097 3.376-6.195 3.098-11.893-1.053-25.397-5.36-37.167-6.195-33.047-2.323-60.953-.186-92.917-3.097-43.795-3.965-97.068-.248-145.57 0-39.584.217-78.702-.34-117.696 3.097-33.946 3.005-65.817 2.943-102.21 6.195-5.977.526-8.548 3.066-12.39 3.097-13.658.124-26.604-4.212-40.263-3.097-2.262.186-3.47 2.508-6.195 3.097-2.974.65-6.32-.62-9.292 0-8.332 1.703-15.363 3.252-21.68 6.194-2.386 1.114-2.727 4.83-6.195 6.194-1.766.712-4.337-.465-6.195 0-3.283.836-8.548 2.26-18.584 3.097-1.952.156-4.306-.463-6.195 0-4.026 1.023-17.066 4.368-27.875 6.196-20.01 3.407-39.335 6.008-58.848 9.29-1.982.342-4.243-.494-6.195 0-10.19 2.54-33.233 6.444-49.556 9.293-7.308 1.27-15.268 1.672-21.68 3.096-.588.124-.433 2.974-3.097 3.098-11.366.588-27.38 5.42-40.264 9.29-3.903 1.178-10.253 4.895-15.487 6.196-5.885 1.456-7.99-.124-15.486 3.097-1.642.713-4.956 5.76-6.195 6.195-5.45 1.827-8.3 1.672-12.39 3.097-4.056 1.393-5.79 2.198-9.29 3.096-6.815 1.766-14.65 1.177-21.68 3.097-.838.217-.218 2.943-3.1 3.098-9.6.496-12.79 3.965-21.68 6.195-30.26 7.558-66.993 16.602-99.11 27.875-1.147.403.03 2.943-3.1 3.098-.835.03-2.353-.31-3.096 0-3.066 1.24-4.956 2.013-9.292 3.097-2.508.62-2.292 2.85-3.097 3.097-6.41 1.828-14.464.713-21.68 3.098-1.085.37-.032 2.942-3.098 3.097-6.722.34-8.394 3.53-15.487 6.194-28.588 10.75-64.392 22.983-96.015 34.07-4.46 1.55-9.91 4.802-15.486 6.196-5.885 1.455-7.99-.124-15.486 3.097-1.92.836-4.615 5.482-6.195 6.194-5.14 2.323-8.393.775-12.388 3.098-1.95 1.146-4.46 5.265-6.194 6.194-5.204 2.818-11.74 7.278-18.584 6.194-4.863-4.925-8.084-12.39-12.39-18.584-1.207-1.734-2.91.496-3.096-3.097-.062-.96-2.385-5.11-3.098-6.195-1.27-1.89-5.203-4.43-6.194-6.194-2.044-3.593-.96-7.527-3.097-12.39-.868-1.95-5.452-4.583-6.196-6.194-2.044-4.336-.867-8.022-3.097-12.39-.96-1.888-5.45-4.583-6.195-6.193-2.044-4.336-.867-8.022-3.097-12.39-.898-1.765-5.544-4.707-6.194-6.194-2.105-4.893-1.58-8.58-3.097-12.39-5.265-13.286-12.42-33.573-18.583-49.555-1.146-2.973-1.24-8.177-3.097-12.39-.806-1.826-5.575-4.707-6.195-6.193-2.694-6.474-3.19-15.734-6.194-21.68-.682-1.364-5.7-1.952-6.195-3.098-.744-1.642.897-4.646 0-6.195-1.21-2.044-5.142-4.367-6.195-6.194-.682-1.146.96-5.39 0-6.195-4.12-3.376-5.575-5.358-9.292-12.39-13.597-25.675-27.41-50.918-30.973-80.527-11.552-9.106-15.083-26.203-18.583-43.362 5.606-5.76 15.64-7.062 24.778-9.292 4.522-3.87 8.982-5.14 15.486-9.29 3.5-2.23 6.443-3.47 9.293-6.196 2.51-2.416 5.14-2.075 9.292-3.097 3.283-.837 1.362-2.2 3.097-3.098 5.668-2.88 11.646-6.164 18.583-9.292 4.368-1.982 8.022-.867 12.39-3.097 1.672-.868 4.8-5.668 6.194-6.195 4.893-1.92 8.702-1.95 12.388-3.097 4.956-1.517 7.28-1.455 12.39-3.096 1.02-.34.06-2.943 3.096-3.098 6.752-.34 7.712-1.92 12.39-3.097 4.8-1.21 7.65-1.21 12.388-3.098 3.47-1.394 12.637-5.513 18.584-9.292 3.035-1.92 4.862-1.982 9.292-3.097 2.663-.65 2.106-2.788 3.097-3.097 7.743-2.478 16.663-1.3 24.778-3.098.588-.124.433-2.942 3.097-3.097 12.296-.65 26.853-5.11 40.264-9.29.465-.156.99-2.57 3.098-3.098 4.18-1.053 10.592-1.61 15.486-3.097 7.464-2.26 14.836-3.903 21.68-6.195 2.757-.93 8.3-1.362 12.39-3.097 5.884-2.478 7.805-8.703 15.486-12.39 6.04-2.91 6.752-.897 15.486-3.096 3.16-.774 6.783-4.15 12.39-6.195 5.233-1.92 9.786-4.77 15.485-6.194 4.8-1.208 7.65-1.208 12.39-3.097 3.066-1.238 4.955-2.013 9.29-3.097 2.912-.712 7.744-1.703 12.39-3.097 2.88-.867 5.172-2.075 9.292-3.097 3.22-.806 15.89-3.78 24.778-6.196.836-.216.217-2.942 3.097-3.097 11.8-.62 24.097-6.38 37.167-9.292 7.71-1.734 16.043-1.27 24.777-3.097 8.363-1.765 14.433-3.624 24.778-6.194 1.24-.31 3.996-3.098 3.097-3.098 2.51 0 14.28 6.04 24.778 3.098 10.47 1.177 13.226-5.36 18.584-9.292 11.677-2.385 14.805 3.778 24.778 3.097 12.76-5.328 26.76-8.394 40.264-12.39 13.35-3.933 26.513-9.85 40.264-12.39 14.712-2.694 32.83-1.238 49.556-3.096 3.067-.34 6.97-2.602 12.39-3.097 18.645-1.673 45.653-2.974 68.14-6.195 3.282-.465 6.72-2.695 12.388-3.097 16.137-1.146 35.65-2.106 52.653-6.195 7.124-1.703 16.818-3.407 30.973-3.097 3.345.062 1.95 2.88 3.097 3.097.743.155 8.827-2.663 12.39-3.097 14.123-1.734 29.144-8.3 43.36-9.292 15.487-1.083 31.22 3.81 46.46 3.1 14.556-.683 31.746-7.745 46.458-9.293 22.517-2.385 58.662-3.562 89.82-3.097 21.34.31 41.35 3.035 61.945 3.097 11.398.03 24.562-2.447 37.167-3.097 8.673-.434 35.96 4.305 40.265 0 13.597-13.597 56.184-2.788 80.528 0 4.027.464 8.394-.713 12.39 0 7.154 1.27 3.933 2.106 12.388 0 9.973-2.51 27.473 1.982 40.264 3.097 13.164 1.146 21.248.526 34.07 3.097.99.186 5.637-.712 6.195 0 6.38 7.774 27.875-.774 43.36 3.097 3.594.9 5.855 2.417 15.488 3.1 1.92.122 4.305-.466 6.194 0 2.694.68 15.392 5.016 24.777 6.193 5.11.65 5.265-3.16 9.26-3.097-1.3 0 2.355 2.91 3.13 3.097 6.317 1.58 19.48 2.2 27.843 3.097-.712 0 2.045 2.82 3.13 3.098 8.764 2.2 34.347-3.036 46.457 0 0 0 9.075 2.818 9.292 3.097 2.012 2.478-1.333 5.947 3.096 6.194 2.57.123 4.956 4.397 9.292 3.097 2.82 1.92 13.41-2.54 15.486 0 4.925 6.008 31.685 1.95 46.46 3.097 10.344.805 20.224 5.08 30.972 6.194 10.81 1.146 23.88-1.517 34.07 0 9.725 1.456 17.9 6.536 27.875 9.292 1.92.527 4.275-.495 6.195 0 8.208 2.044 28.65 9.168 43.362 12.39 7.185 1.58 14.092 1.3 21.68 3.096 5.668 1.332 12.637 4.646 18.584 6.195 13.815 3.563 27.752 5.452 40.265 9.293.434.123.99 2.57 3.097 3.097 14.62 3.655 34.752 11.12 52.654 15.486 10.5 2.57 20.225 2.912 30.972 6.195.434.124 1.022 2.57 3.097 3.098 6.536 1.64 16.602 3.438 24.778 6.194 11.213 3.78 24.87 7.403 34.07 15.487 11.274 1.392 23.168-1.89 34.07 0 .31.06.65 2.972 3.097 3.096 1.828.093 8.425 2.106 12.39 3.097 2.725.68 5.296 2.106 9.29 3.097 7.342 1.828 20.257 11.677 30.974 15.487 1.827.65 4.305-.465 6.194 0 2.726.68 5.296 2.106 9.292 3.097 14.526 3.624 38.313 13.442 58.848 18.583 2.446.62 2.353 2.912 3.097 3.098 9.663 2.632 18.552 2.044 24.778 6.194 1.425.928 2.292 2.6 3.097 3.096 2.664 1.673 6.01 1.24 9.292 3.098 1.95 1.115 4.46 5.265 6.194 6.194 6.845 3.686 18.088 5.358 27.876 9.292 2.23.898 6.442 1.55 9.29 3.097 1.798.96 4.647 5.482 6.196 6.195 5.792 2.632 12.822 3.56 18.583 6.194 1.83.836 4.678 5.544 6.196 6.195 1.703.744 4.367-.464 6.194 0 2.726.682 5.297 2.107 9.292 3.098 6.845 1.703 19.7 8.858 24.778 18.583zm-83.626 55.752c3.407-5.11 3.717-10.933 3.098-18.584-3.345-3.654-11.243-7.898-12.39-9.29-.898-1.085-8.176-2.355-9.29-3.1-8.24-5.512-17.346-5.605-27.876-3.096-6.38-6.1-16.013-11.955-21.68-15.486-.806-.496-1.674-2.168-3.098-3.097-3.717-2.48-6.288-2.79-12.39-3.1-2.384-.122-2.88-3.065-3.097-3.096-10.653-1.703-30.57 1.704-34.068 3.097-.744.31-2.26-.03-3.098 0-3.283.187-1.765 2.54-3.097 3.1-11.646 4.768-14.495 5.202-21.68 12.388-7.434 7.433-9.478 12.296-12.39 18.583-.774 1.705-3.035 4.74-3.097 6.196-.155 3.004-2.788 2.075-3.097 3.097-1.456 4.615.743 10.685 0 15.486-.217 0-2.633 1.61-3.097 3.096-.713 2.385-.093 6.783 0 9.292.37 9.664 5.853 18.305 6.194 24.778.186 3.314 2.51 1.704 3.097 3.097 3.872 9.013 7.465 17.16 12.39 24.778.31.466 2.632-.37 3.097 0 1.022.838-.837 5.112 0 6.196 1.115 1.487 5.017 1.487 6.194 3.097 2.447 3.407 3.84 8.084 6.195 12.39.216.433 2.694-.34 3.097 0 .898.743-.527 5.08 0 6.194.186.37 2.725-.31 3.097 0 .805.65-.34 5.11 0 6.194.093.31 2.82-.247 3.097 0 3.872 3.16-2.973 16.138 0 18.585-8.548 10.933-28.06 10.933-34.07-3.098-8.083-7.836 6.63-24.592-3.097-34.07-3.314-8.052-18.366-4.335-21.68-12.388-11.09-1.302-16.54-8.24-30.973-6.196-.774 8.425-4.8 12.018-6.194 15.486-.31.744.03 2.26 0 3.098-.155 3.128-2.695 1.95-3.098 3.097-2.88 8.177-2.787 19.203-6.194 27.875-.124 0-2.664 2.416-3.098 3.097-7.805 12.266-16.29 31.097-12.39 43.362 6.568 12.016 29.3 7.866 37.17 18.582 12.79 3.222 12.016-10.097 18.582-9.29 1.92.247 6.876 9.724 12.39 15.485 1.486 1.55 1.764 4.553 3.096 6.194.837 1.024 5.11-.866 6.195 0 5.885 4.74 8.3 12.02 15.486 12.39 3.096.155 1.98 2.726 3.096 3.098 6.66 2.26 17.87 3.22 24.778 3.097 5.328-.093 16.044-1.053 21.68-3.097.31-.124-.247-2.788 0-3.098.744-.898 5.08.527 6.196 0 .37-.185-.31-2.725 0-3.097.805-.96 5.048.682 6.194 0 1.27-.774 1.765-5.203 3.097-6.194 2.85-2.138 6.815-.9 9.293-3.1 8.177-7.277 19.946-27.1 21.68-34.068.992-3.996 2.417-6.566 3.098-9.292 10.005-40.017-7.03-65.507-21.68-86.723-3.128-4.522-9.168-9.818-9.29-12.39-.31-6.1-9.014-7.154-9.293-12.388-.186-3.5-2.2-1.457-3.097-3.098-5.11-9.2-6.66-15.58-3.098-24.778 4.275.124 6.814-1.456 9.292-3.098 20.287-.65 19.39 19.823 21.68 37.167 18.677.96 25.398 13.845 46.46 12.39 1.89-12.575 10.685-18.212 9.29-34.07 6.35-5.76 9.85-17.87 12.39-21.68zm-133.18-92.918c.432-1.672.122-4.46 0-6.194-.218-2.85-1.86-5.885-3.1-9.292-3.003-8.27-11.737-18.212-18.582-18.583-2.633-.124-2.57-2.974-3.097-3.098-8.704-1.858-19.885 2.664-21.68 3.098-8.643 2.168-10.904 4.986-15.487 12.39-8.115 13.1-5.854 17.188-3.098 30.97 2.416.683 3.593 2.603 3.098 6.196 7.37 1.92 14.433 4.15 15.486 12.39-1.58 12.884-21 7.898-21.68 21.68 9.446 9.137 20.038 4.275 24.777 3.098 6.536-1.642 5.855-1.983 9.293-6.195.805-.99 5.08.713 6.194 0 3.562-2.292 21.495-24.53 21.68-27.875.156-3.22 2.603-1.827 3.098-3.097 1.363-3.5-.743-8.672 0-12.388.062-.31 2.57-.99 3.098-3.098zm-102.21 65.043c9.94-22.084 17.746-46.273 21.68-74.334-27.535-6.536-51.445-16.695-80.53-21.68-5.945 8.516-7.277 21.618-9.29 34.07-7 6.41-9.664 17.157-12.39 27.874-.928 8.146 12.018 2.447 9.292 12.39-12.822 3.716-13.442 19.604-27.875 21.68-2.105-12.358-7.835-21.062-6.193-37.167 7.185.99 11.893-.496 15.486-3.098 2.88-21.897 16.044-33.512 15.486-58.847-10.098-8.363-24.128-8.24-37.168-12.39-16.787-5.327-33.11-14.99-52.653-12.388-5.36 22.517-14.094 41.658-15.487 68.14-.093 9.384 15.58 3.003 15.486 12.388 5.047 17.035 9.353 32.893 12.388 49.556.898 5.02 3.376 14.806 3.097 18.585-.557 7.464-7 15.052-9.292 21.68-3.128 9.106-3.685 16.51-6.194 24.778-9.757 1.55-12.11-6.752-18.585 0-7.898 17.903-16.384 35.247-15.486 61.945 27.72 12.544 60.953 19.575 92.917 27.876 6.597-7.805 12.017-17.81 15.486-27.876 2.973-8.64 2.57-15.61 6.194-18.583 3.872-3.16-2.973-16.137 0-18.584-.96-7.277-14.68-1.826-12.39-12.388.125-3.097-.153-6.194 0-9.29.156-2.944 2.82-2.17 3.1-3.1 1.423-4.8 1.362-12.42 3.096-15.485 1.3-2.292 7.31-4.212 9.292-6.194 8.084-8.084 14.897-18.925 21.68-24.778 1.146-.99 4.8.62 6.195 0 .836-.372 2.168-5.42 3.097-6.195 9.385-7.805 19.358-13.566 27.875-18.583h21.68zm-195.128-58.848c1.425-16.602-5.668-27.257-6.194-37.168-.31-5.7-5.947-7.93-6.195-12.39-.31-5.698-6.752-7.216-9.29-9.29-1.054-.868.96-5.204 0-6.195-1.52-1.61-7.62-1.828-9.293-3.098-2.26-1.735-3.47-4.337-6.195-6.195-5.018-3.438-10.407-6.752-15.487-9.292-6.876-3.438-18.955-8.61-21.68-9.292-3.996-.99-6.567-2.415-9.292-3.096-3.995-.99-6.566-2.416-9.29-3.097-20.536-5.142-37.91-9.137-55.752-12.39-10.283-1.888-21.866-4.304-27.875-3.096-1.394 28.557-11.336 48.535-15.486 74.335 3.128-.806 2.044 1.765 3.097 3.097 4.987 6.256 16.137 3.314 18.584 9.292-4.615 34.596-12.018 66.467-18.584 99.112-2.26 7.03-21.433-2.85-18.583 9.29-6.566 3.47-2.29 10.718-3.097 15.488-.526 3.066-2.54 3.623-3.097 6.194-.65 2.974.496 6.32 0 9.292-1.796 10.623-9.168 22.64-3.097 30.972 7.96 7.124 18.304 4.244 27.874 6.195.217.03-.186 2.85 0 3.097.527.65 5.265-.124 6.195 0 5.078.62 6.813.093 9.29 3.097.527.652 5.266-.122 6.195 0 5.08.62 6.814.094 9.292 3.1.712.866 5.08-.435 6.194 0 7.558 3.034 16.386 7.618 24.78 6.193 8.764-5.637 3.902-20.473 9.29-27.875 0-12.39 6.195-18.584 6.195-30.973-1.765-9.6-16.57-6.132-12.39-21.68 4.926-2.292-.71-15.177 9.293-12.39 10.345-1.114 10.562 11.275 12.39 18.584 1.857 7.402 2.043 19.388 3.096 27.874 2.354 18.956 1.735 40.234 9.292 52.654 9.447 6.783 21.898 6.597 34.07 9.29 11.522 2.54 23.29 7.776 37.167 6.196 3.78-9.632 7.217-19.637 6.194-34.07 6.69-5.7 6.505-18.274 6.195-30.972-5.358-4.987-19.14-1.487-21.68-9.292-3.563-16.075-9.57-29.64-12.39-46.46 5.637-8.826 17.004-11.892 24.778-18.582 3.438-10.872 6.938-12.204 9.292-21.68 1.64-6.505 5.575-17.717 6.194-24.78zM973.913 444.114c3.654-20.1 6.04-41.44 6.194-65.042-7.433-3.903-18.738-3.996-24.778-9.292-1.457-19.17-11.12-30.197-15.487-46.458 7.402-6.132 21.31-11.367 21.68-18.583.186-3.563 1.983-1.395 3.098-3.098 3.81-5.916 5.793-10.903 6.195-18.584.124-2.323 3.098-2.973 3.098-3.097 1.858-13.162 1.58-31.188 0-40.263-.496-2.88-3.934-7.217-6.195-12.39-2.292-5.265-3.686-11.52-6.194-15.486-.31-.463-2.664.373-3.098 0-1.022-.835.837-5.11 0-6.193-3.81-5.05-18.057-15.455-18.583-15.486-5.7-.31-7.93-5.946-12.39-6.194-3.406-.186-1.61-2.385-3.096-3.097-5.947-2.82-15.208-4.492-21.68-6.196-8.116-2.137-13.784-4.088-15.487-6.194-.527-.65-5.266.124-6.195 0-5.08-.62-6.814-.093-9.292-3.097-.526-.65-5.265.123-6.194 0-5.08-.62-6.815-.093-9.293-3.098-.526-.65-5.265.124-6.194 0-17.16-2.075-44.787-4.398-58.848-3.097-2.788 26.14-8.827 48.968-9.292 77.43 5.544 3.75 18.026.56 21.68 6.196-.464 35.68-7.37 64.918-9.29 99.112-4.12 1.332-5.607 4.336-9.293 6.194-3.995 2.014-11.398-1.734-9.29 6.195-4.71 17.995-4.12 41.286-6.196 61.945 17.035 9.385 41.255 6.01 61.945 9.292 11.46 1.827 20.13 8.796 30.972 6.194 6.35-4.986 7.185-15.517 6.194-27.875 3.407-8.98 2.788-21.99 6.195-30.972-4.46-4.83-7.805-10.778-15.486-12.39.124-10.19-1.27-21.927 9.292-21.68 11.74-1.424 10.19 12.018 12.39 18.584 5.326 15.982 8.795 43.888 12.388 55.75 1.518 5.05-.31 6.505 3.097 9.292 2.448 2.014 1.116 9.757 3.1 12.39 22.67 5.203 46.24 9.508 74.333 9.29zm-216.808-201.32c5.792-24.13 2.044-57.827 3.097-86.724-52.684-5.11-108.558-7.06-164.154-9.29-.155 3.964-3.965 4.273-3.097 9.29 2.757 26.173-10.406 43.455-3.097 65.043 5.36 4.987 19.14 1.487 21.68 9.292-.928 33.14-7.246 60.892-6.193 96.015-4.43.743-5.235 5.11-9.292 6.194-5.482.713-15.517-3.128-12.39 6.195-4.552 19.202-4.707 42.772-6.194 65.04 17.345 3.44 40.08 4.987 52.654 6.195 6.907.65 14.774-.68 21.68 0 4.863.496 10.84 2.88 15.487 3.098 15.145.712 29.362-.496 43.36 0 14.59.526 27.815 8.145 40.265 0 6.01-10.004 1.983-23.663 3.098-37.167 1.424-17.16 7.278-34.906 3.097-46.46-14.526-5.11-36.207-3.003-52.653-6.194-.682 4.43-5.173 5.204-6.195 9.292-2.416 9.664 3.748 20.535-9.292 18.584-19.605-.96-5.513-18.584-9.29-37.167 7.308-4.057 21.4-1.3 27.874-6.194-2.324-18.862 4.955-28.092 3.096-46.46-8.146-5.264-26.543-.308-34.07-6.193 8.58-6.907-3.964-34.937 9.292-37.167 3.593 2.602 8.3 4.088 15.486 3.097v21.68c18.522 6.97 34.07-1.486 55.75 0zm-204.42-24.78c5.174-5.14 22.61 1.952 21.682-9.29-1.703-21 3.624-49.06-3.097-65.043H431.894c-3.098 0-3.686 2.51-6.195 3.097-4.43 17.808-5.514 53.612 0 71.236 15.083 11.367 32.985.898 55.75 3.097 10.747 15.3 3.902 40.264 3.097 61.945-.496 13.04 4.646 17.035 0 21.68-3.097 3.098.464 9.478-3.097 12.39-3.965 3.252.216 13.256-6.195 12.39-2.85 5.42-9.694 6.844-18.583 6.193-2.323-11.613 11.83-6.75 12.39-15.485 11.335-12.606 3.622-24.25 3.096-34.07-.186-3.56-2.013-1.393-3.097-3.097-5.636-8.765-8.98-11.893-18.583-12.39-2.54-.123-2.694-3.034-3.097-3.096-16.787-3.16-40.73 5.7-49.556 15.486-3.5 3.872-4.832 10.345-6.195 12.39-2.045 3.065-2.045 5.08-3.098 9.29-4.46 17.81-1.55 42.185 3.097 55.75 6.75 19.7 12.76 24.872 24.777 34.07 5.452 4.182 6.938 4.833 12.39 6.196 4.676 1.177 5.636 2.725 12.388 3.097 2.478.125 2.757 3.036 3.098 3.098 16.446 2.912 49.865-.743 55.75-3.097 7.093-2.818 12.854-3.282 18.584-6.194 10.685-5.45 18.273-13.04 21.68-18.583 1.58-2.602 5.11-4.212 6.195-6.195 3.78-6.906 3.84-15.703 6.194-24.778.062-.278 2.85.248 3.098 0 1.486-1.486-.403-10.16 0-12.39 6.163-35.4-2.85-72.103-3.098-117.694zM369.95 258.28c1.578-6.597 1.92-28.34 0-40.264 0-.062-2.603-1.177-3.1-3.097-1.733-7-3.375-10.19-9.29-15.488-9.943-8.92-21.836-13.906-40.265-9.29-.867.215-4.955 5.512-6.194 6.193-3.592 1.92-6.875.248-9.29 3.097-.9 1.053 1.052 5.328 0 6.195-10.903 8.92-7.28 30.508 3.096 34.07-1.517 9.787 15.363 1.146 12.39 12.39-14.96 12.42-39.955 10.53-61.946 15.485-7.588 1.703-13.968 4.336-15.486 6.194-.743.9-5.08-.526-6.194 0-.372.186.31 2.726 0 3.098-.837 1.022-5.08-.775-6.195 0-6.69 4.738-13.318 16.198-15.486 21.68-6.722 16.942-2.82 41.41 21.68 40.265 8.486-5.174-5.328-14.9 6.194-18.585 2.82-7.495 12.45-8.208 21.68-9.292.342 5.854 10.253 2.137 9.293 9.292 3.778 26.884-20.473 37.043-37.167 37.167-15.765.093-39.243-12.513-43.362-30.972-1.456-6.505-2.354-20.132 0-27.876.248-.867 5.358-5.11 6.195-6.194 2.415-3.128 3.84-6.195 6.194-9.292 4.12-5.172 17.56-1.022 21.68-6.194 2.602-12.885 7.992-22.982 6.195-40.265-14.092.96-28.463-5.08-27.875-18.584.31-7.03 4.026-15.24 15.486-15.486 16.26.247 12.11 20.937 27.876 21.68 15.547.062 28.586-2.385 40.263-6.194-6.814-17.964.34-49.897-6.195-68.14-16.26-1.796-23.446 5.45-40.264 3.098-5.11.062-1.734 8.58-6.194 9.29-17.097-14.246-39.707-7.122-55.75-3.096-2.324.59-2.386 2.85-3.098 3.097-4.336 1.55-8.827.62-12.39 3.098-4.335 3.004-15.393 16.725-15.485 18.583-.186 3.252-2.54 1.766-3.098 3.097-1.395 3.407.65 8.766 0 12.39-.094 0-2.602 1.455-3.098 3.097-.712 2.384-.093 6.783 0 9.29.496 14.373 7.248 24.284 15.486 37.168-23.818 19.978-42.184 37.384-43.36 74.334-.156 5.142 2.415 10.035 3.096 15.487 1.487 12.11-.774 15.423 3.097 18.582.868.713-.432 5.08 0 6.195 2.2 5.513 4.183 9.137 6.196 12.39 1.486 2.445 6.07 6.658 6.194 9.29.217 4.213 17.283 20.69 18.584 21.68 1.3.96 4.708-.68 6.194 0 2.292 1.023 2.23 5.98 6.195 6.196 3.407.186 1.61 2.385 3.097 3.097 7 3.314 13.04 4.274 21.68 6.194 18.615 4.12 48.04 2.633 61.946 0 2.91-.557 6.318.155 9.292 0 2.818-.154 2.322-2.88 3.097-3.097 15.58-4.057 27.225-7.093 34.07-15.486.836-1.02 5.08.775 6.194 0 3.685-2.57 7.402-8.083 9.29-9.29 2.17-1.395 4.492-1.333 6.195-3.098 2.385-2.447 1.022-6.318 3.098-9.292 1.765-2.54 7.588-3.5 9.29-6.194 1.612-2.54 2.138-7.186 3.1-9.292 2.848-6.164 8.36-19.853 9.29-27.875 2.075-17.996-1.796-28.9-6.194-40.266 9.91-11.77 22.485-19.295 27.874-30.972.774-1.704 3.035-4.74 3.097-6.195.156-2.725 2.944-2.446 3.1-3.097zM88.1 431.726c3.127-10.84-1.147-24.344-3.1-37.167-2.136-13.97-5.264-27.133-6.193-40.265-6.04-7.124-19.946 5.947-27.875-3.097-4.12-33.048-11.43-62.906-15.487-96.015 9.354-1.982 17.872-4.832 18.584-15.486-6.97-17.81-6.165-43.393-12.39-61.945-19.048-2.57-36.67 5.915-52.653 9.29-11.12 2.355-26.884 4.957-30.973 6.196-2.85.867-6.41-.713-9.292 0-4.893 1.208-7.99 2.694-12.39 6.194-3.467 26.203 11.802 33.606 9.293 58.848 7.434 8.765 18.74-4.274 24.778 3.097-.65 13.133 11.088 30.044 3.097 37.167-.867-7.867-9.198-14.433-15.486-21.68-5.606-6.474-12.265-11.677-18.583-18.584-2.85-3.097-6.287-5.544-9.29-9.292-2.665-3.345-3.16-8.734-6.196-12.39-2.106-2.57-6.628-6.13-9.29-9.29-3.1-3.717-6.815-10.19-9.293-12.39-1.95-1.734-7.37-1.796-9.29-3.097-4.027-2.755-2.262-5.078-9.293-6.193-4.274-.682-9.26 1.64-15.486 3.097-9.105 2.137-16.507 3.655-18.582 6.195-.527.65-5.266-.125-6.195 0-12.42 1.485-17.066 1.764-24.778 6.193-1.92 29.796 7.93 47.822 9.292 74.334 3.22 7.093 22.114-1.456 24.778 6.195 8.208 28.96 14.65 59.653 18.583 92.917-2.756 7.587-17.282 3.344-15.486 15.485 3.252 23.6 5.482 48.194 15.486 65.043 33.234-7.03 69.193-11.336 99.112-21.68-.495-27.38-11.212-44.54-15.486-68.14-7.65.402-14.93.464-18.583-3.098 1.673-12.203-9.446-29.61-3.097-34.07 4.4 3.16 7.867 4.306 12.39 9.292 3.592 3.965 5.513 11.274 9.29 15.486 5.762 6.443 15.116 10.965 18.585 15.487 1.858 2.416 1.053 6.876 3.097 9.29 2.818 3.315 9.168 5.422 12.39 9.293 1.95 2.323 1.424 7.093 3.096 9.292 3.47 4.553 10.036 6.783 12.39 9.292 2.106 2.26.99 6.907 3.097 9.29 14.31 16.17 26.296 7.218 46.46 3.1 9.94-2.015 21.153-.063 30.972-6.196zm-232.295 49.556c2.54-11.274-2.385-25.057-3.097-27.875-1.115-4.43-1.177-6.257-3.098-9.292-8.982-14.092-3.87-35.742-15.486-49.556-17.933 4.77-36.485 8.95-52.653 15.485 1.116 17.035 7.434 30.168-12.388 30.973-8.115-7.372-7.712-23.26-12.39-34.07 6.164-4.15 14.744-5.916 21.682-9.292 1.115-20.75-6.505-32.738-9.292-49.556-16.756-3.345-18.46 8.394-34.07 6.195 1.022-13.1-18.398-40.605 6.195-40.264 12.543-.154 3.654 21.124 18.583 18.584 16.508-5.172 33.203-10.16 46.46-18.583-6.815-28.308-14.032-56.153-24.78-80.528-9.663-1.827-17.065 1.24-18.583 3.097-.62.774-5.14-.31-6.194 0-11.336 3.19-18.336 6.41-27.875 9.29-12.08 3.625-32.924 7.218-37.167 12.39-.62.774-5.14-.31-6.194 0-3.902 1.115-6.566 2.323-9.292 3.097-14.34 4.058-26.636 4.46-40.264 9.292-6.287 2.23-10.097 4.645-15.486 9.29 6.163 22.735 10.376 47.45 18.583 68.14 10.16 5.05 11.832-.712 24.778 0 7.712 33.606 19.265 63.34 24.778 99.112-2.756 7.59-17.282 3.345-15.486 15.487 3.345 22.454 11.336 40.294 15.486 61.944 8.425 4.553 17.933-2.168 21.68-3.098 4.12-1.022 6.412-2.23 9.293-3.097 4.646-1.395 9.477-2.386 12.39-3.098 1.95-.496 4.273.496 6.193 0 26.605-6.97 50.608-14.836 74.333-21.68 15.115-4.337 29.424-7.372 43.362-12.39zm-192.03 3.097c.124-9.974-4.584-23.818-6.194-27.876-.31-.743.032-2.26 0-3.097-.185-3.283-2.54-1.765-3.096-3.097-1.797-4.398-.59-8.61-3.098-12.39-1.61-2.446-7.123-4.026-9.29-6.194-6.134-6.132-8.83-9.54-15.488-12.39-8.207-3.53-24.127-5.047-27.875-9.29 6.195-16.82 1.735-39.583 0-46.46-1.115-4.428-1.177-6.256-3.097-9.29-2.23-3.47-4.027-5.917-6.195-9.293-4.025-6.318-7.37-8.982-12.388-12.39-3.345-2.29-3.716-3.158-6.194-6.193-1.115-1.363-10.345-3.005-12.39-3.098-3.096-.154-1.95-2.694-3.096-3.097-13.443-4.677-51.29-6.163-58.848 3.097-.682.837-5.11-.402-6.195 0-7.248 2.726-18.027 8.363-21.682 9.292-3.84.96-4.12.558-6.194 3.097-2.106 2.572-13.566 2.448-15.486 3.1-8.394 2.848-18.15 8.423-21.68 9.29-3.996.992-6.567 2.416-9.293 3.098-1.827.464-4.46-.713-6.194 0-1.424.588-4.49 5.265-6.194 6.194-3.252 1.735-7.588 0-9.292 3.097-.433 31.406 13.628 48.317 21.68 71.236 12.762 2.447 15.89-4.77 27.876-3.097 4.213 16.414 11.182 38.746 15.487 49.555 2.51 6.256 4.553 13.907 6.194 18.583 2.913 8.24 8.705 15.084 6.196 24.778-3.84 3.81-11.646 8.394-12.39 9.292-.866 1.053-5.234-.96-6.194 0-1.548 1.55.59 6.783-3.097 6.195 2.54 24.282 12.172 41.503 18.583 61.945 7.99.402 37.54.93 43.362-6.195.68-.836 5.11.403 6.195 0 7.247-2.725 18.026-8.393 21.68-9.292 3.84-.96 4.12-.556 6.195-3.096.68-.836 5.11.403 6.194 0 7.248-2.725 18.026-8.393 21.68-9.292 3.842-.96 4.12-.557 6.196-3.097.216-.248 9.29-3.097 9.29-3.097 3.997-.99 6.567-2.416 9.293-3.097 3.996-.99 6.566-2.415 9.292-3.097 1.734-.433 4.615.806 6.194 0 1.61-.805 4.397-5.08 6.194-6.194 2.663-1.643 6.566-1.085 9.292-3.098 4.43-3.283 7.216-9.85 9.29-12.39.87-1.052 5.236.992 6.196 0 .96-.99-.59-4.893 0-6.194.464-1.022 5.42-1.92 6.194-3.097 1.58-2.446 2.168-7.247 3.098-9.29.774-1.704 3.035-4.77 3.097-6.195.156-3.036 2.757-2.075 3.098-3.098 1.177-3.654-.557-8.58 0-12.39.68-4.613 3.004-5.605 3.097-12.388z"/>
  <path d="M63.29 50.764c-.496 0 1.858-2.756 3.128-3.097 8.177-2.044 24.81-1.425 37.167-3.097 2.664-.372 5.11-2.54 9.292-3.097 58.848-7.775 127.545-13.597 195.127-18.584 27.937-2.076 57.7-1.735 86.723-3.098 5.017-.248 5.265-2.602 9.29-3.097 31.872-3.84 70.216 0 105.308 0 71.794 0 137.27 1.238 204.418 6.194 33.822 2.508 67.46 2.848 99.113 6.194 3.097.34 6.875 2.694 12.39 3.097 54.046 3.872 118.16 12.947 173.445 21.682 78.702 12.42 147.213 26.543 219.905 43.36 7.28 1.674 14 4.492 21.68 6.196 6.598 1.455 14.96 1.362 21.682 3.097.774.186.28 2.942 3.097 3.097.836.03 2.354-.31 3.097 0 13.29 5.296 38.314 10.53 55.752 15.486 6.783 1.92 6.38.837 15.486 3.098 3.965.99 12.203 3.84 21.68 6.194 2.727.68 5.297 2.106 9.293 3.097 2.726.682 5.297 2.106 9.292 3.098 2.912.712 7.744 1.703 12.39 3.097 2.88.867 5.172 2.075 9.29 3.097 2.48.62 2.324 2.88 3.098 3.096 7 1.952 14.867.99 21.68 3.098.992.31.125 2.942 3.1 3.097.835.032 2.352-.31 3.096 0 3.066 1.24 4.955 2.014 9.292 3.098 2.725.68 5.296 2.106 9.29 3.097 2.727.682 5.298 2.106 9.293 3.098 9.974 2.508 29.363 10.778 43.363 15.486 13.41 4.49 27.534 7.68 40.264 12.388 1.208.464-.062 2.942 3.097 3.097.836.03 2.354-.31 3.097 0 3.068 1.24 4.957 2.013 9.293 3.097 3.47.868 13.41 6.288 21.68 9.292 6.474 2.354 15.3 3.624 21.682 6.195.93.37.588 2.476 3.097 3.096 1.827.464 4.49-.743 6.194 0 1.797.774 4.74 5.606 6.195 6.194 5.11 2.045 8.456 1.55 12.39 3.098 4.955 1.982 10.747 3.097 18.583 6.194.93.372.62 2.478 3.098 3.097 4.8 1.207 7.65 1.207 12.39 3.097 2.942 1.177 6.906 3.933 12.39 6.194 5.574 2.293 13.255 3.904 18.582 6.196 1.394.588-.217 2.91 3.097 3.097 4.77.248 20.472 10.53 27.875 12.39 6.473 1.61 10.035 3.685 15.486 6.193 4.585 2.107 11.554 2.416 18.584 6.195 1.983 1.085 4.46 5.266 6.195 6.195 5.822 3.13 9.57 2.26 15.485 6.195 5.018 3.345 9.91 8.053 15.486 15.486-.618 7.65-2.353 15.92-6.193 21.68-.743 1.116-2.013 8.394-3.097 9.293-2.54 2.074-2.137 2.353-3.098 6.193 0 0-2.85 9.075-3.097 9.292-.372.31-2.91-.372-3.097 0-.527 1.115.898 5.45 0 6.194-.372.31-2.912-.372-3.097 0-.526 1.114.9 5.45 0 6.194-1.672 1.394-6.566 9.044-9.29 15.486-.466 1.115.866 5.482 0 6.195-.373.31-2.913-.372-3.098 0-.527 1.115.898 5.45 0 6.194-8.177 6.69-14.712 29.423-21.68 43.36-5.297 10.593-12.142 26.42-18.585 40.265-2.354 5.08-9.013 13.318-9.29 18.583-.032.868-2.2 7.31-3.1 9.292-2.322 5.11-9.012 13.287-9.29 18.584-.03.867-2.2 7.31-3.098 9.29-.682 1.488-5.854 5.08-6.195 6.196-.805 2.695 1.146 6.72 0 9.292-.93 2.106-5.204 4.43-6.195 6.194-.62 1.146.96 5.42 0 6.195-2.973 2.417-9.29 13.907-12.39 21.68-.432 1.117.87 5.484 0 6.196-3.87 3.16-11.273 18.738-15.485 27.875-8.332 18.12-14.774 34.01-24.778 55.752-2.354 5.11-9.013 13.287-9.292 18.583-.247 4.43-4.8 6.814-6.194 12.39-1.455 5.79-3.127 12.08-6.194 18.583-.712 1.486-2.91-.31-3.097 3.097-.032.712.34 2.51 0 3.097-1.116 2.014-5.204 4.43-6.195 6.195-.62 1.146.96 5.42 0 6.194-5.885 4.833-15.765 13.908-33.915 9.324.805 0-3.345-3.187-3.252-3.128-1.115-.744-8.394-2.013-9.292-3.097-2.292-2.82-5.606-4.802-9.292-6.196-1.084-.403-5.513.836-6.194 0-.28-.34.37-2.942 0-3.097-1.115-.496-5.483.867-6.195 0-.31-.372.372-2.912 0-3.097-1.115-.527-5.45.898-6.194 0-2.29-2.82-5.605-4.8-9.29-6.195-1.085-.403-5.514.836-6.196 0-.278-.34.372-2.942 0-3.097-1.115-.496-5.482.867-6.194 0-.31-.372.37-2.912 0-3.097-1.115-.526-5.45.9-6.195 0-2.075-2.54-2.354-2.137-6.194-3.097 0 0-9.074-2.818-9.29-3.097-1.178-1.425-13.164-7.93-18.584-9.292-6.133-1.517-9.23-4.615-15.487-6.194-6.133-1.518-9.23-4.615-15.487-6.195-10.252-2.57-21.867-7.774-34.07-12.39-1.084-.4-5.513.838-6.194 0-.25-.308.308-2.972 0-3.096-8.55-3.098-14.992-2.943-24.78-6.195-1.083-.372-.03-2.943-3.097-3.098-4.924-.248-17.19-6.442-24.778-9.29-1.084-.404-5.513.835-6.194 0-4.46-5.422-17.096-5.7-27.874-9.293-1.084-.372-.03-2.943-3.098-3.097-1.176-.062-13.813-1.054-15.486-3.098-3.376-4.12-16.6-6.01-24.778-9.292-1.115-.434-5.482.867-6.194 0-2.726-3.315-16.942-7.155-24.778-9.292-1.022-.28-5.575.743-6.195 0-3.066-3.748-16.075-5.823-24.778-9.292-1.116-.434-5.483.867-6.195 0-3.624-4.43-22.734-6.287-34.07-9.292-.186-.062-1.208-2.632-3.097-3.097-12.358-3.097-29.58-5.885-46.46-9.292-.464-.093-.495-2.973-3.096-3.097-14.403-.743-29.424-5.544-46.46-9.292-5.76-1.27-12.574-1.89-18.583-3.097-.465-.093-.496-2.973-3.098-3.097-9.508-.496-11.088-.99-21.68-3.098-.992-.185-5.638.713-6.195 0-2.478-3.004-4.212-2.477-9.292-3.097-.93-.124-5.668.65-6.194 0-4.243-5.203-14.495 1.89-18.583-3.097-2.478-3.004-4.212-2.478-9.292-3.097-.93-.123-5.668.65-6.194 0-4.242-5.203-14.494 1.89-18.583-3.097-4.243-5.203-14.495 1.89-18.583-3.097-3.903-4.77-24.53-4.336-37.167-6.194-2.788-.403-4.956-2.633-9.292-3.098-7.186-.743-16.013-1.95-24.778-3.097-102.333-13.504-221.67-21.68-343.795-21.68-272.93 0-497.11 37.88-715.465 102.21-69.967 20.626-139.903 44.197-207.516 71.236-1.114.433-5.48-.868-6.193 0-2.292 2.818-5.606 4.8-9.292 6.194-1.084.403-5.513-.836-6.194 0-.247.31.31 2.973 0 3.097-5.327 1.952-10.53 1.053-15.486 3.098-1.548.65-5.048 5.853-6.194 6.194-2.757.836-6.66-1.084-9.292 0-1.363.558.186 2.91-3.097 3.097-4.428.248-6.813 4.8-12.388 6.195-5.792 1.456-12.08 3.128-18.584 6.194-1.486.713.31 2.912-3.097 3.098-.804.03-2.384-.31-3.096 0-20.66 9.013-43.92 24.778-58.848 21.68-9.818-2.044-14.898-9.88-21.68-21.68-1.92-3.315-1.518-6.257-3.098-9.292-9.51-18.49-25.83-56.308-34.07-74.334-2.26-4.925-3.778-10.22-6.194-15.486-.682-1.487-5.854-5.08-6.195-6.195-.806-2.664 1.176-6.783 0-9.292-.96-2.105-5.204-4.428-6.195-6.193-.62-1.146.96-5.42 0-6.195-.372-.31-2.88.403-3.098 0-.588-1.146.93-5.42 0-6.194-.37-.31-2.91.37-3.097 0-.526-1.115.898-5.45 0-6.195-2.818-2.292-4.8-5.606-6.194-9.292-.403-1.083.836-5.512 0-6.193-.34-.28-2.943.372-3.098 0-.495-1.115.868-5.482 0-6.195-.37-.31-2.91.372-3.097 0-.525-1.115.9-5.45 0-6.194-2.972-2.416-9.29-13.907-12.388-21.68-.433-1.116.867-5.483 0-6.195-3.87-3.16-16.26-24.747-18.583-34.07-1.457-5.792-3.13-12.08-6.196-18.584-.712-1.487-2.91.31-3.097-3.098-.03-.774.31-2.385 0-3.097-.68-1.518-5.854-5.08-6.195-6.195-.836-2.725 1.084-6.66 0-9.29-.557-1.364-2.91.185-3.097-3.1-.03-.866-2.2-7.308-3.097-9.29-.96-2.106-5.203-4.43-6.195-6.195-.62-1.146.96-5.42 0-6.194-.34-.278-2.942.372-3.097 0-2.23-5.11-.93-10.778-3.097-15.486-.96-2.106-5.204-4.43-6.196-6.194-.62-1.146.96-5.42 0-6.195-5.513-4.522-9.973-19.915-15.486-30.972-5.08-10.16-13.566-27.875-18.583-40.264-2.943-7.25-4.925-10.873-6.195-15.488-.712-2.57-2.787-3.066-3.097-6.194-.712-7.155 6.907-17.53 12.39-21.68 3.065-2.324 13.038-7.9 18.582-9.293 1.828-.464 4.49.744 6.195 0 1.982-.836 4.584-5.42 6.194-6.194 9.044-4.304 22.053-7.464 34.07-12.388 1.55-.65 5.05-5.854 6.195-6.195 2.724-.836 6.69 1.115 9.29 0 1.55-.65 5.05-5.853 6.195-6.194 2.695-.805 6.72 1.146 9.292 0 2.106-.93 4.43-5.204 6.194-6.195 1.147-.62 5.42.96 6.196 0 2.075-2.54 2.354-2.137 6.194-3.097 5.45-1.362 18.986-8.857 27.875-12.388 72.662-28.897 156.845-58.786 235.392-83.626 12.203-3.87 24.84-5.73 37.167-9.29.34-.094 1.084-2.603 3.097-3.1 5.855-1.454 8.178-1.98 12.39-3.096 14.216-3.81 29.92-7.712 46.46-12.39 1.052-.31 5.574.775 6.193 0 3.686-4.52 18.026-6.503 27.875-9.29 1.053-.31 5.575.774 6.195 0 3.097-3.78 21.092-6.505 30.972-9.292 1.053-.31 5.575.774 6.195 0 2.292-2.788 11.955-4.244 21.68-6.195 2.943-.588 4.832-2.633 9.292-3.097 13.01-1.363 29.672-5.668 46.46-9.292 10.406-2.23 15.67-3.748 27.874-6.194.992-.186 5.637.712 6.195 0 .187-.217-.216-3.067 0-3.098 6.815-1.362 14.837-1.765 21.682-3.097 6.38-1.24 12.203-1.92 18.583-3.097 17.84-3.252 31.81-6.566 49.556-9.292 1.983-.31 4.275.496 6.196 0 3.376-.836 6.287-1.796 15.486-3.097.93-.125 5.668.65 6.194 0 3.872-4.74 27.318-4.306 40.234-6.196zm1681.838 281.85c.836-1.796 5.482-3.902 3.097-9.292-7.185-5.203-13.194-11.583-24.778-12.39-27.627-17.374-61.697-25.24-92.917-40.263-1.642-.775-4.8-3.036-6.195-3.098-6.876-.372-4.305-5.76-12.39-6.195-3.375-.185-1.64-2.446-3.096-3.097-4.585-2.106-7.806-1.332-12.39-3.097-13.07-5.05-24.468-11.74-37.167-15.486-8.95-2.633-18.862-2.943-27.875-6.195-5.792-2.106-9.51-6.38-15.486-9.292-6.226-3.035-12.792-3.407-18.584-6.194-9.632-4.646-20.968-12.73-27.875-15.486-6.257-2.51-8.332-2.726-15.486-3.098-2.602-.124-2.602-3.004-3.098-3.097-17.13-3.53-35-2.385-52.654-6.194-12.11-2.6-24.313-8.92-37.167-12.388-8.55-2.323-21.806-5.452-24.78-6.195-8.64-2.168-12.202-.743-18.583-3.097-1.3-.465-4.614-5.358-6.194-6.195-3.066-1.64-6.845-1.95-9.292-3.097-5.264-2.447-9.414-5.45-12.388-6.194-3.995-.992-6.566-2.416-9.292-3.098-3.995-.99-6.566-2.416-9.29-3.097-3.997-.992-6.567-2.417-9.293-3.098-4.336-1.084-6.226-1.86-9.292-3.097-.743-.31-2.26.03-3.097 0-2.664-.124-2.54-2.974-3.097-3.098-12.388-2.694-27.627-.062-40.264-3.097-9.044-2.168-22.857-10.376-27.875-12.39-6.255-2.508-14.432-4.52-21.68-6.193-32.056-7.403-68.882-4.708-102.21-9.292-7.092-.96-13.627-4.74-21.68-6.195-17.81-3.22-34.038-2.725-49.556-6.194-7.464-1.673-14.402-5.482-21.68-6.195-19.358-1.92-39.15 1.426-58.848 0-5.76-.432-6.938-2.384-12.39-3.096-10.654-1.394-15.424.743-18.583-3.097-.526-.65-5.265.124-6.194 0-32.863-3.934-58.29-12.668-86.724-15.486-11.43-1.145-22.177 1.363-34.07 0-11.49-1.3-22.548-8.424-34.07-9.29-4.677-.373-6.318 2.57-9.292 3.096-13.75 2.416-28.092.527-40.264 0-26.822-1.177-50.733-3.686-77.43-3.097-5.545.123-10.84 3.096-15.487 3.096-5.792 0-12.11-3.004-18.584-3.097-27.814-.466-57.33-2.79-80.53 0-4.026.494-4.274 2.848-9.29 3.096-26.576 1.24-52.004 1.022-77.432 3.097-40.543 3.314-80.56 4.46-114.6 6.195-10.344.526-21.432-.682-27.874 0-4.12.433-6.783 2.91-9.292 3.097-30.693 2.385-68.82.65-89.82 6.195-12.172 3.22-26.296 5.637-37.167 6.194-2.447.124-2.788 3.035-3.097 3.097-20.256 3.5-49.835 5.638-61.945 9.293-2.57.774-6.597-.124-9.292 0-9.848.465-15.764 2.26-18.583 3.097-5.048 1.518-6.504-.31-9.29 3.098-.714.867-5.08-.434-6.196 0-11.15 4.46-23.414 4.305-37.166 6.194-10.004 1.363-18.18 4.367-27.875 6.195-35.867 6.72-72.694 14.247-108.405 21.68-13.473 2.82-23.29 5.637-34.07 6.195-2.663.155-2.508 2.973-3.097 3.097-15.982 3.53-30.663 3.096-46.46 6.194-9.383 1.827-27.967 8.548-30.97 9.29-4.337 1.085-6.227 1.86-9.293 3.1-.743.308-2.26-.032-3.097 0-3.19.153-1.86 2.63-3.097 3.096-6.597 2.447-14.618 3.47-21.68 6.194-13.504 5.204-25.924 12.39-40.264 15.487-11.49 2.478-31.376 4.74-37.167 6.195-1.83.465-4.492-.743-6.196 0-1.487.65-4.398 5.296-6.194 6.195-3.438 1.672-6.598 1.734-9.292 3.097-2.788 1.425-.99 2.818-6.195 3.097-3.22.155-1.796 2.602-3.097 3.097-6.66 2.634-14.557.59-21.68 3.1-4.027 1.423-3.408 4.428-6.195 6.193-3.747 2.385-8.3 1.55-12.388 3.097-1.3.496-.186 2.385-3.097 3.098-3.996.99-6.567 2.415-9.292 3.097-3.996.99-6.566 2.416-9.292 3.097-23.104 5.792-39.396 8.146-55.75 18.584-8.734.185-16.91-.496-27.875 3.097-1.146.372-4.74 5.42-6.194 6.194-7.804 4.213-12.636 3.005-18.583 6.195-1.734.93-4.15 5.203-6.194 6.194-5.142 2.54-13.504 3.872-18.584 6.195-1.58.713-4.275 5.36-6.195 6.195-7.62 3.345-13.535 1.828-18.584 3.098-2.724.68-1.888 2.54-3.096 3.097-5.265 2.447-9.416 5.45-12.39 6.194-4.335 1.084-6.225 1.86-9.29 3.098-4.74 1.89-7.59 1.89-12.39 3.097-2.478.618-2.168 2.724-3.097 3.096-12.7 5.018-17.716 5.11-21.68 18.584-3.408 11.583 2.663 19.234 6.194 24.778 2.664 4.18 6.04 9.663 6.195 12.39.248 4.954 8.3 17.034 9.292 18.582 5.42 8.487 6.01 21.495 6.194 34.07 8.21 5.08 17.098 18.893 18.585 24.778.434 1.703-.805 4.677 0 6.194.93 1.735 5.11 4.182 6.194 6.195 1.796 3.345 1.548 6.597 3.097 9.292 3.47 6.038 6.628 9.105 9.29 15.485.714 1.734-.463 4.367 0 6.194 1.395 5.575 4.554 11.088 6.196 15.486 3.995 10.685 6.876 15.145 9.292 24.778.99 3.964 6.008 5.513 6.194 9.29.278 5.36 7.526 8.612 9.29 12.39 2.107 4.553 1.023 7.99 3.098 12.39.744 1.61 2.292-.062 3.097 3.097 1.085 4.337 1.86 6.226 3.098 9.292 2.6 6.536 3.995 10.717 6.194 15.487.775 1.702 3.036 4.77 3.097 6.193.186 3.345 2.447 1.673 3.098 3.097 3.004 6.722 3.345 15.3 6.194 21.68.03.094 2.51 2.17 3.097 3.1 4.15 6.503 5.42 10.963 9.292 15.485-3.252 11.738 9.385 20.256 12.39 24.778.712 1.084 3.035 5.234 3.096 6.194.187 3.5 2.232 1.487 3.1 3.098 3.808 7 2.91 15.888 6.193 21.68.898 1.58 4.832 4.646 6.195 6.195 3.593 4.12 2.632 4.522 9.29 6.194 8.426 2.106 24.16-4.336 27.877-6.194 2.88-1.425 4.18-5.297 6.194-6.195 6.69-3.035 12.17-3.035 18.583-6.194 1.64-.805 4.305-5.172 6.194-6.194 2.912-1.58 7-2.137 9.292-3.097 7.092-2.974 12.016-4.802 15.485-6.195 6.226-2.478 13.938-4.615 18.584-6.195 6.41-2.2 13.193-4.74 15.485-6.194 1.89-1.208 4.336-2.354 6.195-3.098 7.557-2.973 11.986-4.8 15.486-6.194.743-.31 2.26.03 3.097 0 3.283-.186 1.765-2.54 3.097-3.097 20.256-8.3 38.685-11.49 58.848-18.584 13.287-4.677 31.344-14.867 43.362-15.486 3.004-.155 2.106-2.788 3.097-3.097 7.96-2.478 17.19-3.996 24.778-6.195 17.53-5.11 34.503-8.022 49.556-12.39 8.178-2.353 11.74-4.676 15.487-6.194.743-.308 2.26.032 3.097 0 3.098-.153 1.952-2.693 3.098-3.096 8.61-3.004 17.344-4.057 24.778-6.194.31-.093-.248-2.85 0-3.098 1.58-1.58 10.066.527 12.39 0 .246-.06-.218-2.88 0-3.097 1.64-1.64 10.003.62 12.388 0 .278-.062-.248-2.85 0-3.097 1.548-1.55 10.097.496 12.39 0 5.543-1.146 13.38-5.358 15.485-6.195.743-.31 2.26.03 3.097 0 3.22-.154 1.797-2.6 3.097-3.097 4.46-1.765 12.575 1.642 12.39-6.194 8.796-.217 16.167.278 21.68 0 2.416-.124 2.85-3.067 3.097-3.098 25.12-4.088 56.71-11.088 74.334-15.486 1.952-.495 4.244.434 6.195 0 10.128-2.2 17.035-4.646 21.68-9.292 2.324-2.322 8.332 3.284 9.292 3.098 7-1.394 15.022-4.956 21.68-6.195 8.457-1.58 15.89-1.89 24.78-3.098 31.777-4.336 65.723-7.712 96.014-9.292 2.29-.124 3.003-3.097 3.096-3.097 12.854-1.734 26.265-1.827 37.167-3.097 3.005-.34 1.92-2.664 3.098-3.098 2.85-1.084 5.854 3.13 6.195 3.098 2.51-.186 2.695-3.005 3.097-3.098 3.283-.65 6.474 3.407 12.39 3.098 1.95-.093 3.437-3.13 3.097-3.098 18.117-1.207 34.13 1.3 40.263-6.194 1.456-1.796 12.946.526 15.486 0 9.26-1.92 18.46-5.45 27.874-6.195 8.487-.65 15.55 3.22 24.778 3.097-1.053 0 2.106-2.788 3.098-3.098 2.57-.775 6.597.123 9.29 0 17.067-.806 27.257-3.346 40.266-3.098 4.12.093 6.07 2.85 12.39 3.097 12.79.526 13.1-3.934 24.777-3.098 11.15.805 9.477 2.912 12.39 0 1.27-1.27 10.405.093 12.388 0 44.6-2.137 81.334-2.942 120.793 0 14.743 1.084 26.482 1.27 34.07 3.097 13.01 3.128 12.637.557 21.68 0 1.766-.124 4.492-.434 6.195 0 8.704 2.168 20.164 2.23 30.973 3.097 16.323 1.332 33.7 5.45 49.557 6.194 13.318.62 18.522-4.335 27.875-3.096 2.2.28 2.88 3.066 3.097 3.097 2.415.497 3.345-3.096 3.097-3.096 3.128.124 3.624 2.51 6.194 3.097 8.147 1.922 16.603-.525 21.682 0 4.243.435 6.597 2.79 9.292 3.098 13.1 1.58 36.764 1.92 40.264 6.195.527.65 5.265-.124 6.195 0 16.57 2.354 35.09.588 43.36 3.097 11.15 3.376 18.554 3.965 27.876 6.195 6.04 1.455 12.636 1.332 18.583 3.097 7.402 2.23 11.336 4.863 18.583 6.194 19.203 3.5 39.366 2.633 58.848 6.195 0 .063 1.425 2.572 3.097 3.098 2.82.867 6.413-.62 9.293 0 12.482 2.602 35.68 10.066 43.362 12.39 5.265 1.58 8.796 1.672 12.39 3.096.742.31 2.26-.03 3.096 0 2.603.124 2.603 3.005 3.098 3.098 9.664 1.982 20.628 1.177 30.973 3.097 20.102 3.747 45.654 10.22 58.848 15.485.744.31 2.26-.03 3.098 0 3.283.186 1.765 2.54 3.097 3.097 4.77 1.952 7.62 1.58 12.39 3.098 10.963 3.47 26.45 7.495 30.97 9.29.745.31 2.262-.03 3.1 0 2.972.156 2.136 2.79 3.096 3.1 7.742 2.353 18.675 2.786 24.777 3.096 2.942.155 2.168 2.818 3.097 3.097 7.743 2.26 15.95 5.142 18.584 6.195 6.1 2.447 14.03 4.83 18.583 6.194 8.52 2.57 18.863 3.128 27.876 6.195.465.155 1.3 2.385 3.098 3.097.743.31 2.26-.03 3.097 0 3.098.155 1.952 2.695 3.098 3.097 5.358 1.86 10.035.776 15.486 3.1 0 .03 2.26 2.57 3.098 3.096 5.73 3.655 9.23 5.854 15.486 6.194 3.097.155 1.95 2.695 3.097 3.098 11.832 4.12 30.26 4.614 34.07 9.29.712.868 5.08-.432 6.195 0 6.813 2.727 12.45 4.647 18.583 6.196 2.323.588 2.385 2.85 3.097 3.097 9.54 3.408 21.37 5.36 30.973 9.293.34.155-.28 2.756 0 3.097.898 1.084 8.177 2.354 9.292 3.097 5.977 3.996 16.043 3.376 21.68 6.195 1.673.836 3.84 4.83 6.195 6.194 6.783 3.934 11.12 6.01 15.486 9.292 14.68 10.964 32.366 16.508 49.556 21.68 11.12-12.14 15.58-39.954 24.778-49.555 2.354-2.447 5.234-5.482 6.195-9.292 1.115-4.428 1.177-6.255 3.097-9.29 5.048-7.93 9.2-16.044 12.39-24.78 2.6-7.153 2.88-15.02 6.193-21.68.775-1.58 5.05-4.46 6.195-6.194.712-1.084 3.035-5.234 3.097-6.195.186-3.56 1.982-1.392 3.097-3.096 4.058-6.318 4.646-15.486 12.39-18.583.154-4.12-.217-8.27 0-12.388.154-2.726 2.942-2.478 3.097-3.098.682-2.942-.68-6.35 0-9.29.93-3.966 5.235-3.687 6.195-6.196 1.022-2.694-.836-6.504 0-9.292.34-1.115 5.513-4.707 6.195-6.194 6.163-13.473 13.69-36.826 21.68-43.362.837-.68-.402-5.11 0-6.194 1.394-3.686 3.376-7 6.195-9.292.96-.774-.62-5.048 0-6.194.99-1.766 5.265-4.09 6.194-6.195 2.044-4.522 1.083-10.87 3.097-15.486.154-.373 2.756.278 3.097 0 .96-.775-.62-5.05 0-6.196.99-1.765 5.172-4.12 6.194-6.194 2.076-4.243 3.78-10.686 6.195-15.486 1.765-3.47 5.296-5.7 6.194-9.292.96-3.84.558-4.12 3.098-6.195 1.084-.898 2.354-8.176 3.097-9.29 4.15-6.227 3.004-13.505 6.194-21.682.124-.34 2.788.248 3.098 0 .247-.217 3.097-9.292 3.097-9.292.96-3.84.558-4.12 3.098-6.194.898-.745-.526-5.08 0-6.196z"/>
  <path d="M896.45 100.32c-8.362-.898-21.526-1.517-27.844-3.097-.774-.186-4.43-3.097-3.128-3.097-3.996-.062-4.15 3.747-9.26 3.097-9.386-1.177-22.084-5.513-24.78-6.194-1.888-.466-4.273.122-6.193 0-9.633-.683-11.894-2.2-15.487-3.1-15.486-3.87-36.98 4.678-43.36-3.096-.56-.712-5.205.186-6.196 0-12.822-2.57-20.906-1.95-34.07-3.097-12.79-1.115-30.29-5.606-40.264-3.097-8.455 2.106-5.234 1.27-12.39 0-3.994-.713-8.36.464-12.388 0-24.344-2.788-66.93-13.597-80.528 0-4.306 4.305-31.592-.434-40.265 0-12.605.65-25.77 3.128-37.167 3.097-20.596-.062-40.605-2.788-61.945-3.097-31.158-.465-67.303.712-89.82 3.097-14.712 1.548-31.902 8.61-46.46 9.292-15.237.71-30.97-4.183-46.457-3.1-14.217.992-29.238 7.56-43.362 9.293-3.562.434-11.646 3.252-12.39 3.097-1.145-.217.25-3.035-3.096-3.097-14.155-.31-23.85 1.394-30.973 3.097-17.004 4.09-36.516 5.05-52.653 6.195-5.668.402-9.106 2.632-12.39 3.097-22.485 3.22-49.493 4.522-68.14 6.195-5.42.495-9.32 2.756-12.388 3.097-16.725 1.858-34.844.402-49.556 3.097-13.75 2.54-26.915 8.457-40.264 12.39-13.504 3.996-27.503 7.062-40.264 12.39-9.973.68-13.1-5.483-24.778-3.098-5.358 3.933-8.115 10.47-18.584 9.292-10.5 2.942-22.27-3.098-24.778-3.098.9 0-1.858 2.788-3.097 3.098-10.345 2.57-16.415 4.43-24.778 6.194-8.734 1.827-17.066 1.363-24.778 3.097-13.07 2.912-25.367 8.673-37.168 9.292-2.88.155-2.26 2.88-3.097 3.097-8.89 2.416-21.557 5.39-24.778 6.195-4.12 1.02-6.41 2.23-9.292 3.096-4.646 1.394-9.478 2.385-12.39 3.097-4.335 1.084-6.224 1.86-9.29 3.098-4.74 1.89-7.59 1.89-12.39 3.098-5.7 1.425-10.252 4.274-15.486 6.194-5.607 2.045-9.23 5.42-12.39 6.195-8.734 2.2-9.447.186-15.486 3.097-7.68 3.686-9.602 9.91-15.486 12.39-4.09 1.734-9.633 2.167-12.39 3.096-6.844 2.292-14.216 3.934-21.68 6.195-4.894 1.487-11.305 2.044-15.486 3.097-2.107.527-2.633 2.942-3.098 3.097-13.41 4.18-27.968 8.64-40.264 9.29-2.664.156-2.51 2.974-3.097 3.098-8.115 1.797-17.035.62-24.778 3.098-.99.31-.434 2.446-3.097 3.097-4.43 1.115-6.257 1.177-9.292 3.097-5.947 3.78-15.115 7.898-18.584 9.292-4.74 1.89-7.588 1.89-12.39 3.097-4.676 1.176-5.636 2.756-12.388 3.096-3.035.155-2.075 2.757-3.097 3.098-5.11 1.64-7.433 1.58-12.39 3.097-3.685 1.147-7.494 1.178-12.388 3.098-1.395.527-4.523 5.327-6.196 6.195-4.367 2.23-8.02 1.115-12.39 3.097-6.936 3.128-12.914 6.41-18.582 9.292-1.735.898.186 2.26-3.097 3.097-4.15 1.02-6.783.68-9.292 3.096-2.85 2.726-5.792 3.965-9.292 6.195-6.503 4.15-10.963 5.42-15.485 9.292-9.137 2.23-19.172 3.53-24.778 9.292 3.5 17.16 7.03 34.256 18.583 43.362 3.562 29.61 17.376 54.852 30.973 80.528 3.717 7.03 5.172 9.013 9.292 12.39.96.804-.682 5.048 0 6.194 1.053 1.827 4.986 4.15 6.194 6.194.897 1.55-.744 4.553 0 6.195.495 1.146 5.512 1.734 6.194 3.097 3.004 5.947 3.5 15.207 6.194 21.68.62 1.487 5.39 4.368 6.195 6.195 1.858 4.21 1.95 9.415 3.097 12.388 6.163 15.982 13.318 36.27 18.583 49.556 1.518 3.81.992 7.496 3.098 12.39.65 1.486 5.297 4.428 6.195 6.194 2.23 4.367 1.053 8.053 3.097 12.39.744 1.61 5.235 4.304 6.195 6.193 2.23 4.368 1.053 8.054 3.097 12.39.744 1.61 5.328 4.243 6.195 6.195 2.136 4.862 1.052 8.796 3.096 12.39.99 1.764 4.925 4.304 6.194 6.193.713 1.084 3.036 5.235 3.098 6.195.186 3.593 1.89 1.363 3.097 3.097 4.305 6.195 7.526 13.66 12.39 18.584 6.844 1.084 13.38-3.376 18.583-6.195 1.734-.93 4.243-5.05 6.194-6.195 3.995-2.323 7.248-.775 12.39-3.098 1.58-.712 4.273-5.358 6.194-6.194 7.495-3.22 9.6-1.642 15.486-3.097 5.575-1.394 11.026-4.646 15.486-6.195 31.623-11.087 67.427-23.32 96.015-34.07 7.093-2.662 8.765-5.853 15.486-6.193 3.065-.155 2.012-2.726 3.096-3.097 7.217-2.385 15.27-1.27 21.68-3.098.806-.248.59-2.478 3.098-3.097 4.336-1.084 6.226-1.858 9.292-3.097.743-.31 2.26.03 3.097 0 3.13-.155 1.952-2.695 3.098-3.098 32.12-11.273 68.852-20.317 99.113-27.875 8.89-2.23 12.08-5.7 21.68-6.194 2.88-.154 2.26-2.88 3.098-3.097 7.03-1.92 14.867-1.33 21.68-3.097 3.5-.898 5.236-1.703 9.293-3.097 4.09-1.426 6.938-1.27 12.39-3.098 1.238-.434 4.552-5.482 6.194-6.195 7.495-3.22 9.6-1.64 15.486-3.097 5.234-1.3 11.584-5.018 15.486-6.195 12.884-3.87 28.897-8.703 40.263-9.29 2.664-.125 2.51-2.975 3.098-3.1 6.412-1.423 14.372-1.826 21.68-3.096 16.324-2.85 39.368-6.753 49.557-9.293 1.952-.495 4.213.34 6.195 0 19.513-3.283 38.84-5.884 58.848-9.29 10.81-1.83 23.85-5.174 27.875-6.196 1.89-.463 4.243.156 6.194 0 10.035-.835 15.3-2.26 18.583-3.096 1.858-.465 4.43.712 6.195 0 3.468-1.363 3.81-5.08 6.194-6.195 6.318-2.943 13.35-4.492 21.68-6.195 2.974-.62 6.32.65 9.293 0 2.725-.59 3.933-2.91 6.194-3.097 13.658-1.115 26.604 3.22 40.263 3.097 3.84-.03 6.412-2.57 12.39-3.097 36.392-3.252 68.263-3.19 102.21-6.195 38.993-3.438 78.11-2.88 117.694-3.097 48.503-.248 101.776-3.965 145.57 0 31.965 2.91 59.87.774 92.918 3.097 11.77.836 25.274 5.142 37.167 6.195 3.098.278 3.686-2.757 6.195-3.098 4.615-.62 6.442 2.85 9.292 3.098 4.892.433 10.746-1.177 15.485 0 1.146.278 3.81 3.097 3.128 3.097 13.442 1.55 26.172 1.394 40.234 3.097 12.977 1.58 26.76 5.854 40.264 6.195 17.438.433 35-4.77 52.654-3.098 10.16.96 29.052 6.1 34.07 9.29 7.247 4.616 19.79 4.213 30.972 6.196 3.934.712 4.49 2.385 9.292 3.097 11.955 1.734 18.336 2.23 24.778 3.097 4.057.527 8.332-.495 12.39 0 10.437 1.27 24.684 5.39 27.874 6.195 9.385 2.354 11.925 1.517 18.584 3.097 20.473 4.894 39.49 14.464 58.848 15.486 2.725.155 2.446 2.943 3.097 3.097 7.742 1.828 16.88 1.146 24.777 3.098 7.836 1.95 20.66 8.27 24.778 9.29 1.92.497 4.274-.525 6.194 0 17.406 4.833 43.423 15.52 55.75 18.585 1.95.496 4.212-.34 6.194 0 13.412 2.26 21.495 5.45 30.973 9.292 6.97 2.818 8.858 5.854 15.486 6.194 3.036.155 2.044 2.757 3.097 3.097 15.24 4.926 31.376 4.802 46.46 9.293 19.976 5.916 45.436 20.66 61.944 24.778 9.478 2.355 17.717 5.205 21.68 6.196 1.92.495 4.275-.527 6.196 0 5.76 1.58 9.198 5.39 12.39 6.194 4.428 1.115 6.255 1.177 9.29 3.098 4.182 2.663 6.32 1.58 12.39 3.097 5.73 1.424 10.344 3.87 15.486 6.194 4.057 1.827 11.707 5.543 12.39 6.194 2.817 2.725 5.852 3.902 9.29 6.194 5.544 3.686 9.013.775 15.487 3.098 1.33.464 4.522 5.45 6.194 6.194 4.522 1.982 9.106 1.58 12.39 3.097 1.58.744 4.335 5.235 6.194 6.195 4.368 2.23 8.115.96 12.39 3.097 1.64.804 4.274 5.202 6.194 6.194 4.367 2.23 7.96 1.27 12.39 3.097 6.968-10.003 11.21-27.13 15.485-34.07 1.486-2.446 6.07-6.658 6.194-9.29.186-3.5 2.2-1.456 3.097-3.098 1.767-3.16 1.21-5.73 3.098-9.292.65-1.24 5.36-1.672 6.195-3.097.836-1.394-.403-4.584 0-6.194 1.456-5.793 4.832-10.068 6.194-15.488 1.735-6.97 5.854-11.336 9.292-18.583 2.198-4.647 3.685-10.346 6.194-15.488 4.584-9.446 10.592-18.552 15.486-27.875 3.53-6.72 7.216-13.783 9.292-15.486.247-.216 3.097-9.29 3.097-9.29.96-3.84.556-4.12 3.096-6.195.96-.775-.62-5.05 0-6.195.99-1.765 5.08-4.18 6.195-6.194.34-.59-.03-2.416 0-3.098.186-3.5 2.2-1.455 3.098-3.097 4.615-8.3 4.894-24.28 9.292-27.874.278-.217 3.097-9.292 3.097-9.292.96-3.84.557-4.12 3.097-6.194.898-.744-.526-5.08 0-6.195.186-.37 2.726.31 3.097 0 .96-.774-.65-5.048 0-6.194.25-.433 2.696.34 3.1 0 1.02-.836-.776-5.08 0-6.194 1.67-2.416 4.49-3.004 6.193-6.194 1.982-3.717 3.934-5.916 6.195-9.292 3.685-5.544 3.035-14.247 6.194-21.68 8.518-20.07 22.145-36.3 24.778-58.85-5.08-9.724-17.933-16.88-24.778-18.582-3.995-.99-6.566-2.416-9.292-3.097-1.827-.464-4.49.744-6.194 0-1.518-.65-4.367-5.358-6.195-6.194-5.76-2.633-12.79-3.562-18.582-6.194-1.55-.713-4.398-5.235-6.195-6.195-2.85-1.548-7.06-2.2-9.29-3.097-9.79-3.934-21.032-5.606-27.877-9.292-1.734-.93-4.243-5.08-6.194-6.194-3.283-1.86-6.628-1.425-9.292-3.098-.805-.495-1.672-2.168-3.097-3.097-6.226-4.15-15.115-3.563-24.778-6.195-.744-.186-.65-2.478-3.097-3.098-20.535-5.14-44.322-14.96-58.848-18.583-3.996-.99-6.566-2.416-9.292-3.097-1.89-.465-4.367.65-6.194 0-10.717-3.81-23.632-13.66-30.973-15.487-3.994-.99-6.565-2.416-9.29-3.097-3.965-.99-10.562-3.004-12.39-3.097-2.447-.124-2.787-3.035-3.097-3.097-10.902-1.89-22.796 1.392-34.07 0-9.2-8.085-22.857-11.71-34.07-15.488-8.176-2.756-18.242-4.553-24.778-6.194-2.075-.527-2.663-2.974-3.097-3.097-10.747-3.282-20.473-3.623-30.972-6.194-17.902-4.367-38.035-11.83-52.654-15.486-2.106-.527-2.663-2.974-3.097-3.097-12.513-3.84-26.45-5.73-40.264-9.292-5.946-1.548-12.915-4.862-18.583-6.194-7.588-1.796-14.495-1.517-21.68-3.097-14.712-3.222-35.154-10.346-43.362-12.39-1.92-.495-4.274.527-6.194 0-9.973-2.756-18.15-7.836-27.875-9.292-10.19-1.517-23.26 1.146-34.07 0-10.747-1.115-20.627-5.39-30.972-6.194-14.774-1.146-41.534 2.91-46.46-3.097-2.074-2.54-12.666 1.92-15.485 0-4.336 1.3-6.72-2.974-9.292-3.098-4.43-.248-1.084-3.717-3.097-6.195-.218-.28-9.293-3.097-9.293-3.097-12.11-3.036-37.693 2.2-46.458 0-1.085-.28-3.842-3.098-3.13-3.098zm851.775 223.002c2.385 5.39-2.26 7.496-3.097 9.292-.526 1.115.898 5.45 0 6.195-2.54 2.074-2.137 2.353-3.097 6.193 0 0-2.85 9.075-3.096 9.292-.31.248-2.974-.34-3.098 0-3.19 8.177-2.044 15.455-6.194 21.68-.743 1.116-2.013 8.394-3.097 9.292-2.54 2.076-2.137 2.354-3.098 6.195-.898 3.593-4.43 5.823-6.194 9.292-2.416 4.8-4.12 11.243-6.195 15.486-1.022 2.075-5.203 4.43-6.194 6.194-.62 1.146.96 5.42 0 6.195-.34.278-2.943-.373-3.097 0-2.014 4.614-1.053 10.963-3.098 15.485-.93 2.106-5.204 4.43-6.195 6.195-.62 1.146.96 5.42 0 6.194-2.82 2.292-4.8 5.606-6.195 9.292-.402 1.084.837 5.513 0 6.194-7.99 6.536-15.517 29.89-21.68 43.362-.682 1.487-5.854 5.08-6.195 6.194-.836 2.788 1.022 6.598 0 9.292-.96 2.51-5.265 2.23-6.194 6.195-.68 2.942.682 6.35 0 9.29-.154.62-2.942.373-3.097 3.1-.216 4.118.155 8.268 0 12.388-7.743 3.098-8.33 12.266-12.39 18.584-1.114 1.704-2.91-.464-3.096 3.097-.062.962-2.385 5.112-3.097 6.196-1.146 1.734-5.42 4.615-6.195 6.194-3.314 6.66-3.592 14.527-6.194 21.68-3.19 8.736-7.34 16.85-12.388 24.78-1.92 3.035-1.982 4.862-3.097 9.29-.96 3.81-3.84 6.846-6.195 9.293-9.2 9.6-13.66 37.415-24.778 49.556-17.19-5.174-34.875-10.718-49.556-21.682-4.367-3.283-8.703-5.358-15.486-9.292-2.354-1.363-4.522-5.358-6.195-6.194-5.637-2.82-15.703-2.2-21.68-6.195-1.115-.743-8.394-2.013-9.292-3.097-.28-.34.34-2.942 0-3.097-9.602-3.934-21.433-5.885-30.973-9.292-.712-.247-.774-2.508-3.097-3.096-6.133-1.55-11.77-3.47-18.583-6.195-1.116-.434-5.483.866-6.195 0-3.81-4.678-22.238-5.173-34.07-9.292-1.146-.403 0-2.943-3.097-3.098-6.256-.34-9.756-2.54-15.486-6.194-.837-.527-3.098-3.067-3.098-3.097-5.45-2.324-10.128-1.24-15.486-3.1-1.146-.4 0-2.94-3.097-3.096-.835-.03-2.353.31-3.096 0-1.797-.712-2.633-2.942-3.098-3.097-9.013-3.067-19.357-3.624-27.875-6.195-4.552-1.363-12.48-3.747-18.582-6.194-2.633-1.053-10.84-3.934-18.584-6.195-.93-.28-.155-2.942-3.097-3.097-6.102-.31-17.035-.743-24.778-3.097-.96-.31-.125-2.944-3.098-3.1-.837-.03-2.354.31-3.098 0-4.522-1.795-20.008-5.82-30.972-9.29-4.77-1.518-7.62-1.146-12.39-3.098-1.33-.557.187-2.91-3.096-3.097-.837-.03-2.354.31-3.098 0-13.194-5.265-38.746-11.738-58.847-15.486-10.344-1.92-21.308-1.116-30.972-3.098-.495-.093-.495-2.974-3.097-3.098-.835-.03-2.353.31-3.096 0-3.593-1.424-7.124-1.517-12.39-3.097-7.68-2.323-30.88-9.787-43.36-12.39-2.88-.618-6.474.868-9.293 0-1.67-.525-3.096-3.034-3.096-3.096-19.482-3.56-39.645-2.694-58.848-6.194-7.247-1.33-11.18-3.964-18.583-6.194-5.947-1.765-12.544-1.642-18.584-3.097-9.323-2.23-16.726-2.82-27.876-6.195-8.27-2.51-26.79-.743-43.36-3.097-.93-.124-5.67.65-6.196 0-3.5-4.274-27.163-4.615-40.264-6.195-2.695-.31-5.05-2.663-9.292-3.097-5.08-.525-13.535 1.922-21.68 0-2.57-.587-3.067-2.972-6.195-3.096.248 0-.682 3.593-3.098 3.097-.217-.03-.9-2.817-3.098-3.096-9.353-1.24-14.557 3.717-27.875 3.097-15.858-.742-33.234-4.86-49.556-6.193-10.808-.868-22.268-.93-30.972-3.098-1.703-.434-4.43-.124-6.194 0-9.044.557-8.672 3.128-21.68 0-7.59-1.828-19.328-2.014-34.07-3.098-39.46-2.942-76.193-2.137-120.793 0-1.982.093-11.118-1.27-12.388 0-2.912 2.912-1.24.805-12.39 0-11.676-.836-11.986 3.624-24.777 3.097-6.32-.248-8.27-3.005-12.39-3.098-13.008-.248-23.198 2.292-40.264 3.097-2.693.123-6.72-.775-9.29 0-.992.31-4.15 3.097-3.098 3.097-9.23.124-16.29-3.748-24.778-3.098-9.415.743-18.614 4.274-27.875 6.194-2.54.526-14.03-1.796-15.487 0-6.133 7.495-22.146 4.987-40.264 6.194.34-.03-1.147 3.005-3.1 3.098-5.914.31-9.105-3.748-12.388-3.098-.402.093-.588 2.912-3.097 3.098-.34.03-3.345-4.182-6.194-3.098-1.176.434-.092 2.757-3.097 3.098-10.902 1.27-24.313 1.363-37.167 3.097-.093 0-.805 2.973-3.097 3.097-30.292 1.58-64.238 4.956-96.016 9.292-8.89 1.208-16.322 1.518-24.778 3.097-6.66 1.238-14.68 4.8-21.68 6.194-.96.186-6.97-5.42-9.292-3.098-4.646 4.646-11.553 7.093-21.68 9.292-1.952.434-4.244-.495-6.196 0-17.623 4.398-49.215 11.398-74.334 15.486-.247.03-.68 2.974-3.097 3.098-5.513.278-12.884-.217-21.68 0 .185 7.836-7.93 4.43-12.39 6.194-1.3.496.124 2.943-3.097 3.097-.836.03-2.354-.31-3.097 0-2.106.837-9.942 5.05-15.486 6.195-2.292.496-10.84-1.55-12.39 0-.247.248.28 3.035 0 3.097-2.384.62-10.747-1.64-12.388 0-.218.217.246 3.036 0 3.097-2.324.527-10.81-1.58-12.39 0-.248.248.31 3.005 0 3.098-7.434 2.137-16.168 3.19-24.778 6.194-1.146.403 0 2.943-3.098 3.097-.836.032-2.354-.308-3.097 0-3.748 1.52-7.31 3.842-15.486 6.196-15.052 4.367-32.025 7.28-49.555 12.39-7.588 2.198-16.818 3.716-24.778 6.194-.99.31-.093 2.942-3.097 3.097-12.018.62-30.075 10.81-43.362 15.486-20.163 7.093-38.592 10.283-58.848 18.584-1.332.557.186 2.91-3.097 3.097-.836.03-2.354-.31-3.097 0-3.5 1.394-7.93 3.22-15.486 6.194-1.86.744-4.306 1.89-6.195 3.098-2.292 1.455-9.075 3.995-15.486 6.194-4.647 1.58-12.36 3.717-18.585 6.195-3.47 1.393-8.393 3.22-15.486 6.194-2.293.96-6.38 1.517-9.293 3.096-1.89 1.022-4.553 5.39-6.194 6.195-6.412 3.16-11.894 3.16-18.584 6.195-2.014.898-3.315 4.77-6.195 6.195-3.717 1.858-19.45 8.3-27.876 6.194-6.66-1.672-5.7-2.075-9.292-6.194-1.363-1.55-5.297-4.615-6.195-6.195-3.283-5.792-2.385-14.68-6.194-21.68-.868-1.61-2.913.402-3.1-3.098-.06-.96-2.383-5.11-3.096-6.194-3.004-4.522-15.64-13.04-12.39-24.778-3.87-4.522-5.14-8.982-9.29-15.486-.59-.93-3.067-3.006-3.098-3.1-2.85-6.38-3.19-14.958-6.194-21.68-.65-1.424-2.912.248-3.098-3.097-.06-1.424-2.322-4.49-3.097-6.194-2.2-4.77-3.593-8.952-6.194-15.488-1.24-3.066-2.013-4.955-3.098-9.29-.805-3.16-2.353-1.488-3.097-3.1-2.075-4.397-.99-7.835-3.097-12.388-1.764-3.778-9.012-7.03-9.29-12.39-.187-3.777-5.204-5.326-6.195-9.29-2.416-9.633-5.297-14.093-9.292-24.778-1.642-4.398-4.8-9.91-6.195-15.487-.464-1.828.713-4.46 0-6.195-2.663-6.38-5.822-9.447-9.29-15.486-1.55-2.696-1.302-5.948-3.1-9.293-1.083-2.013-5.264-4.46-6.193-6.195-.805-1.517.434-4.49 0-6.194-1.487-5.885-10.376-19.7-18.584-24.778-.184-12.575-.773-25.583-6.193-34.07-.99-1.548-9.044-13.628-9.292-18.583-.155-2.726-3.53-8.208-6.194-12.39-3.53-5.543-9.6-13.194-6.194-24.777 3.965-13.473 8.982-13.566 21.68-18.584.93-.372.62-2.478 3.098-3.097 4.8-1.21 7.65-1.21 12.39-3.098 3.065-1.24 4.955-2.014 9.29-3.098 2.974-.743 7.125-3.747 12.39-6.194 1.208-.558.372-2.416 3.097-3.097 5.05-1.27 10.965.247 18.585-3.098 1.92-.836 4.615-5.482 6.194-6.194 5.08-2.322 13.44-3.654 18.583-6.194 2.044-.99 4.46-5.265 6.194-6.194 5.947-3.19 10.78-1.982 18.584-6.195 1.456-.774 5.05-5.822 6.195-6.194 10.964-3.593 19.14-2.912 27.875-3.097 16.354-10.438 32.646-12.792 55.75-18.584 2.727-.68 5.297-2.106 9.293-3.097 2.725-.682 5.296-2.106 9.292-3.097 2.91-.713 1.796-2.602 3.097-3.098 4.088-1.548 8.64-.712 12.39-3.097 2.786-1.765 2.167-4.77 6.193-6.194 7.124-2.51 15.022-.466 21.68-3.1 1.302-.494-.123-2.94 3.098-3.096 5.204-.28 3.407-1.672 6.195-3.097 2.694-1.363 5.854-1.425 9.292-3.097 1.796-.9 4.707-5.544 6.194-6.195 1.704-.743 4.367.465 6.195 0 5.79-1.456 25.675-3.717 37.166-6.194 14.34-3.097 26.76-10.282 40.264-15.486 7.062-2.725 15.083-3.747 21.68-6.194 1.24-.465-.092-2.943 3.098-3.097.836-.03 2.354.31 3.097 0 3.066-1.24 4.956-2.014 9.292-3.098 3.004-.743 21.588-7.464 30.972-9.29 15.795-3.1 30.476-2.665 46.458-6.196.59-.125.434-2.943 3.097-3.098 10.78-.558 20.597-3.376 34.07-6.195 35.71-7.433 72.538-14.96 108.404-21.68 9.693-1.828 17.87-4.832 27.874-6.195 13.752-1.89 26.017-1.734 37.167-6.194 1.116-.434 5.483.867 6.196 0 2.787-3.407 4.243-1.58 9.29-3.098 2.82-.836 8.736-2.632 18.585-3.097 2.696-.124 6.722.774 9.293 0 12.11-3.655 41.69-5.792 61.945-9.292.31-.06.65-2.972 3.097-3.096 10.87-.557 24.995-2.973 37.167-6.194 21-5.545 59.127-3.81 89.82-6.195 2.51-.186 5.173-2.664 9.292-3.097 6.442-.682 17.53.526 27.875 0 34.038-1.735 74.055-2.88 114.598-6.195 25.428-2.075 50.856-1.858 77.43-3.097 5.018-.248 5.266-2.602 9.293-3.097 23.2-2.79 52.716-.466 80.53 0 6.472.092 12.79 3.096 18.583 3.096 4.646 0 9.942-2.973 15.486-3.097 26.697-.59 50.608 1.92 77.43 3.096 12.172.527 26.513 2.416 40.264 0 2.974-.526 4.615-3.47 9.292-3.097 11.522.866 22.58 7.99 34.07 9.29 11.893 1.363 22.64-1.145 34.07 0 28.433 2.82 53.86 11.553 86.723 15.487.928.124 5.667-.65 6.193 0 3.16 3.84 7.93 1.703 18.584 3.097 5.45.712 6.628 2.664 12.39 3.097 19.697 1.426 39.49-1.92 58.847 0 7.278.714 14.216 4.523 21.68 6.196 15.518 3.47 31.747 2.973 49.556 6.194 8.053 1.456 14.588 5.235 21.68 6.195 33.328 4.584 70.154 1.89 102.21 9.292 7.248 1.672 15.425 3.685 21.68 6.194 5.02 2.014 18.832 10.222 27.876 12.39 12.637 3.035 27.876.403 40.265 3.097.558.124.434 2.974 3.098 3.098.836.03 2.354-.31 3.097 0 3.066 1.238 4.956 2.013 9.292 3.097 2.726.68 5.296 2.106 9.292 3.097 2.724.68 5.295 2.105 9.29 3.096 2.726.682 5.297 2.106 9.292 3.098 2.974.743 7.124 3.747 12.39 6.194 2.446 1.146 6.225 1.456 9.29 3.097 1.58.837 4.895 5.73 6.195 6.195 6.38 2.354 9.943.93 18.584 3.097 2.974.743 16.23 3.872 24.78 6.195 12.853 3.47 25.056 9.787 37.166 12.39 17.654 3.808 35.525 2.662 52.653 6.193.495.093.495 2.973 3.097 3.097 7.154.372 9.23.59 15.486 3.098 6.907 2.756 18.243 10.84 27.875 15.486 5.792 2.787 12.358 3.16 18.584 6.194 5.977 2.912 9.694 7.186 15.486 9.292 9.013 3.252 18.924 3.562 27.875 6.195 12.7 3.747 24.097 10.437 37.167 15.486 4.584 1.765 7.805.99 12.39 3.097 1.455.65-.28 2.912 3.096 3.097 8.084.434 5.513 5.823 12.39 6.195 1.393.062 4.552 2.323 6.194 3.097 31.22 15.02 65.29 22.888 92.917 40.263 11.584.806 17.593 7.186 24.778 12.39z" fill="#ffad14"/>
  <path d="M1639.822 372.878c.62 7.65.31 13.473-3.098 18.584-2.54 3.81-6.04 15.92-12.39 21.68 1.395 15.86-7.4 21.496-9.29 34.07-21.062 1.456-27.783-11.428-46.46-12.39-2.29-17.343-1.393-37.816-21.68-37.166-2.478 1.642-5.017 3.222-9.292 3.098-3.562 9.2-2.013 15.58 3.098 24.778.898 1.64 2.91-.403 3.097 3.097.28 5.233 8.982 6.286 9.292 12.388.122 2.57 6.162 7.867 9.29 12.39 14.65 21.215 31.685 46.705 21.68 86.722-.68 2.726-2.105 5.296-3.096 9.292-1.735 6.97-13.504 26.79-21.68 34.07-2.48 2.2-6.443.96-9.293 3.097-1.33.99-1.826 5.42-3.096 6.193-1.146.682-5.39-.96-6.194 0-.31.372.37 2.912 0 3.097-1.115.527-5.452-.898-6.195 0-.248.31.31 2.974 0 3.098-5.637 2.044-16.353 3.004-21.68 3.097-6.908.124-18.12-.836-24.78-3.097-1.114-.372 0-2.943-3.096-3.098-7.187-.37-9.602-7.65-15.487-12.39-1.084-.866-5.358 1.024-6.195 0-1.332-1.64-1.61-4.644-3.097-6.193-5.512-5.76-10.468-15.238-12.388-15.486-6.566-.805-5.792 12.514-18.583 9.292-7.87-10.716-30.602-6.566-37.17-18.583-3.9-12.266 4.585-31.097 12.39-43.363.434-.68 2.974-3.097 3.098-3.097 3.407-8.672 3.314-19.698 6.194-27.875.403-1.146 2.943.03 3.098-3.097.03-.837-.31-2.354 0-3.098 1.393-3.468 5.42-7.06 6.194-15.486 14.433-2.044 19.884 4.894 30.973 6.195 3.314 8.052 18.366 4.335 21.68 12.388 9.726 9.477-4.986 26.233 3.098 34.07 6.008 14.03 25.52 14.03 34.07 3.097-2.974-2.447 3.87-15.425 0-18.584-.28-.247-3.005.31-3.098 0-.34-1.083.805-5.543 0-6.193-.372-.31-2.91.37-3.097 0-.527-1.115.898-5.45 0-6.195-.403-.34-2.88.434-3.097 0-2.354-4.305-3.748-8.982-6.195-12.39-1.177-1.61-5.08-1.61-6.194-3.096-.837-1.084 1.022-5.358 0-6.195-.465-.37-2.788.466-3.098 0-4.924-7.618-8.517-15.764-12.39-24.777-.587-1.393-2.91.217-3.096-3.097-.34-6.473-5.823-15.114-6.194-24.778-.093-2.51-.713-6.907 0-9.292.464-1.486 2.88-3.097 3.097-3.097.743-4.802-1.456-10.872 0-15.487.31-1.022 2.942-.093 3.097-3.097.062-1.456 2.323-4.49 3.097-6.195 2.912-6.286 4.956-11.15 12.39-18.582 7.185-7.186 10.034-7.62 21.68-12.39 1.332-.557-.186-2.91 3.097-3.097.837-.03 2.354.31 3.098 0 3.5-1.392 23.415-4.8 34.07-3.096.216.03.712 2.974 3.097 3.097 6.1.31 8.67.62 12.388 3.1 1.424.928 2.292 2.6 3.097 3.096 5.668 3.53 15.3 9.385 21.68 15.486 10.53-2.51 19.637-2.416 27.876 3.097 1.116.743 8.394 2.013 9.293 3.097 1.146 1.393 9.044 5.637 12.39 9.29zM1503.543 292.35c.123 1.734.433 4.522 0 6.194-.527 2.107-3.036 2.788-3.098 3.098-.743 3.716 1.363 8.89 0 12.39-.495 1.27-2.942-.125-3.097 3.096-.186 3.345-18.12 25.583-21.68 27.875-1.116.713-5.39-.99-6.195 0-3.438 4.212-2.757 4.553-9.292 6.195-4.738 1.177-15.33 6.04-24.777-3.098.68-13.782 20.1-8.796 21.68-21.68-1.052-8.24-8.114-10.47-15.485-12.39.495-3.592-.682-5.512-3.098-6.194-2.756-13.783-5.017-17.87 3.098-30.972 4.583-7.403 6.844-10.22 15.486-12.39 1.796-.433 12.977-4.955 21.68-3.097.527.124.465 2.974 3.098 3.098 6.845.37 15.58 10.313 18.583 18.583 1.24 3.407 2.88 6.442 3.098 9.292zM1423.014 289.253c-3.934 28.06-11.74 52.25-21.68 74.334h-21.682c-8.517 5.017-18.49 10.778-27.875 18.583-.93.774-2.26 5.823-3.097 6.195-1.394.62-5.05-.99-6.195 0-6.783 5.853-13.596 16.694-21.68 24.778-1.983 1.982-7.99 3.902-9.292 6.194-1.734 3.066-1.673 10.686-3.097 15.486-.28.93-2.943.155-3.098 3.098-.154 3.098.124 6.195 0 9.292-2.292 10.562 11.43 5.11 12.39 12.39-2.974 2.446 3.87 15.424 0 18.583-3.624 2.973-3.222 9.942-6.195 18.583-3.47 10.067-8.89 20.07-15.486 27.876-31.964-8.3-65.197-15.332-92.918-27.876-.9-26.698 7.587-44.042 15.485-61.945 6.474-6.752 8.828 1.55 18.584 0 2.508-8.27 3.065-15.672 6.193-24.778 2.292-6.628 8.735-14.216 9.292-21.68.28-3.78-2.2-13.566-3.097-18.584-3.035-16.662-7.34-32.52-12.39-49.555.094-9.385-15.578-3.004-15.485-12.39 1.393-26.48 10.128-45.62 15.486-68.138 19.543-2.602 35.865 7.06 52.652 12.39 13.04 4.15 27.07 4.025 37.167 12.388.557 25.335-12.607 36.95-15.487 58.847-3.593 2.602-8.3 4.09-15.486 3.098-1.642 16.105 4.088 24.81 6.194 37.167 14.434-2.076 15.054-17.964 27.876-21.68 2.726-9.943-10.22-4.244-9.29-12.39 2.724-10.717 5.388-21.464 12.388-27.875 2.013-12.45 3.345-25.553 9.29-34.07 29.085 4.986 52.995 15.145 80.53 21.68zM1200.012 267.572c.526 9.91 7.62 20.566 6.194 37.167-.62 7.06-4.553 18.273-6.194 24.777-2.354 9.477-5.854 10.81-9.292 21.68-7.774 6.69-19.14 9.757-24.778 18.584 2.82 16.82 8.827 30.385 12.39 46.46 2.54 7.805 16.322 4.305 21.68 9.292.31 12.698.495 25.273-6.195 30.972 1.023 14.433-2.415 24.438-6.194 34.07-13.876 1.58-25.645-3.655-37.167-6.195-12.172-2.695-24.623-2.51-34.07-9.292-7.557-12.42-6.938-33.698-9.292-52.654-1.053-8.486-1.24-20.472-3.097-27.875-1.827-7.31-2.044-19.7-12.39-18.584-10.003-2.788-4.366 10.097-9.29 12.39-4.182 15.547 10.623 12.078 12.388 21.68 0 12.388-6.194 18.583-6.194 30.972-5.388 7.402-.526 22.238-9.29 27.875-8.394 1.425-17.222-3.16-24.78-6.194-1.114-.435-5.48.866-6.193 0-2.478-3.006-4.213-2.48-9.292-3.1-.93-.122-5.668.652-6.195 0-2.477-3.003-4.212-2.476-9.29-3.096-.93-.124-5.67.65-6.196 0-.186-.248.217-3.066 0-3.097-9.57-1.95-19.915.93-27.875-6.195-6.072-8.33 1.3-20.35 3.096-30.972.496-2.973-.65-6.318 0-9.292.558-2.57 2.57-3.128 3.097-6.194.806-4.77-3.47-12.018 3.098-15.487-2.85-12.14 16.323-2.26 18.584-9.29 6.566-32.646 13.97-64.517 18.584-99.113-2.447-5.978-13.597-3.036-18.584-9.292-1.053-1.332.03-3.903-3.097-3.097 4.15-25.8 14.092-45.778 15.486-74.334 6.01-1.207 17.592 1.21 27.875 3.098 17.84 3.252 35.216 7.247 55.75 12.39 2.726.68 5.297 2.105 9.293 3.096 2.726.68 5.297 2.106 9.292 3.097 2.726.683 14.805 5.855 21.68 9.293 5.08 2.54 10.47 5.854 15.487 9.292 2.725 1.858 3.933 4.46 6.194 6.194 1.672 1.27 7.774 1.486 9.292 3.097.96.99-1.053 5.327 0 6.194 2.54 2.076 8.982 3.594 9.29 9.293.25 4.46 5.886 6.69 6.196 12.39zm-74.334 52.653c10.19-3.686 10.53-6.72 15.486-12.39-2.478-16.105-14.402-22.764-30.972-24.777-4.46 10.004-5.916 22.982-9.292 34.07 8.33 6.566 15.145 6.566 24.778 3.097z" fill="#fff"/>
  <path d="M1141.164 307.836c-4.955 5.668-5.296 8.703-15.486 12.39-9.633 3.468-16.447 3.468-24.778-3.098 3.376-11.088 4.832-24.066 9.292-34.07 16.57 2.013 28.494 8.672 30.972 24.778z"/>
  <path d="M980.107 379.073c-.155 23.6-2.54 44.94-6.194 65.042-28.092.217-51.663-4.088-74.334-9.292-1.984-2.632-.652-10.375-3.1-12.39-3.406-2.786-1.578-4.242-3.096-9.29-3.593-11.863-7.062-39.77-12.39-55.75-2.198-6.567-.65-20.01-12.388-18.584-10.562-.25-9.168 11.49-9.292 21.68 7.68 1.61 11.027 7.557 15.487 12.388-3.406 8.982-2.787 21.99-6.194 30.973.99 12.36.155 22.89-6.194 27.876-10.84 2.602-19.513-4.367-30.973-6.194-20.69-3.283-44.91.093-61.946-9.292 2.075-20.66 1.487-43.95 6.195-61.945-2.108-7.93 5.295-4.18 9.29-6.195 3.686-1.858 5.173-4.862 9.292-6.194 1.92-34.194 8.827-63.432 9.292-99.112-3.655-5.637-16.137-2.447-21.68-6.195.464-28.464 6.503-51.29 9.29-77.432 14.062-1.3 41.69 1.022 58.85 3.097.928.124 5.667-.65 6.193 0 2.478 3.005 4.212 2.478 9.292 3.098.928.123 5.667-.65 6.193 0 2.478 3.004 4.213 2.477 9.292 3.097.93.124 5.668-.65 6.195 0 1.703 2.106 7.37 4.057 15.486 6.194 6.473 1.704 15.734 3.376 21.68 6.195 1.487.71-.31 2.91 3.098 3.096 4.46.248 6.69 5.885 12.39 6.195.525.032 14.773 10.438 18.582 15.487.837 1.084-1.022 5.358 0 6.194.434.373 2.788-.463 3.098 0 2.508 3.966 3.902 10.222 6.194 15.488 2.26 5.172 5.7 9.508 6.195 12.39 1.58 9.074 1.858 27.1 0 40.263 0 .125-2.974.775-3.098 3.098-.402 7.68-2.385 12.668-6.194 18.584-1.114 1.703-2.91-.465-3.096 3.097-.372 7.215-14.28 12.45-21.68 18.582 4.366 16.26 14.03 27.287 15.485 46.46 6.04 5.295 17.344 5.388 24.777 9.29zM871.703 279.96c21.464 9.23 41.163-4.026 37.167-21.68-2.385-10.562-16.384-14.216-30.972-15.486-3.53 10.933-3.407 25.49-6.195 37.167z" fill="#fff"/>
  <path d="M908.87 258.28c3.996 17.654-15.703 30.91-37.167 21.68 2.788-11.676 2.664-26.233 6.195-37.166 14.588 1.27 28.587 4.924 30.972 15.486z"/>
  <path d="M760.202 156.07c-1.053 28.898 2.695 62.596-3.097 86.724-21.68-1.487-37.23 6.97-55.75 0v-21.68c-7.186.99-11.894-.496-15.487-3.098-13.256 2.23-.712 30.26-9.292 37.167 7.527 5.885 25.924.93 34.07 6.194 1.86 18.367-5.42 27.597-3.097 46.46-6.474 4.893-20.567 2.136-27.876 6.194 3.778 18.584-10.314 36.208 9.29 37.168 13.04 1.95 6.877-8.92 9.293-18.584 1.022-4.088 5.513-4.863 6.195-9.292 16.446 3.19 38.127 1.084 52.653 6.195 4.18 11.553-1.673 29.3-3.097 46.46-1.115 13.503 2.91 27.162-3.098 37.166-12.45 8.145-25.676.526-40.264 0-14-.496-28.216.712-43.36 0-4.647-.217-10.625-2.602-15.488-3.098-6.906-.68-14.773.65-21.68 0-12.575-1.208-35.31-2.756-52.654-6.194 1.487-22.268 1.642-45.838 6.195-65.04-3.13-9.324 6.906-5.483 12.388-6.196 4.057-1.084 4.863-5.45 9.292-6.194-1.053-35.123 5.265-62.875 6.194-96.015-2.54-7.805-16.322-4.305-21.68-9.292-7.31-21.588 5.853-38.87 3.097-65.042-.867-5.017 2.943-5.326 3.098-9.29 55.596 2.23 111.47 4.18 164.154 9.29zM574.367 208.724c.93 11.243-16.508 4.15-21.68 9.292.247 45.59 9.26 82.294 3.097 117.695-.403 2.23 1.486 10.904 0 12.39-.248.248-3.036-.278-3.098 0-2.353 9.075-2.415 17.872-6.194 24.778-1.084 1.983-4.615 3.593-6.195 6.195-3.407 5.544-10.995 13.132-21.68 18.583-5.73 2.912-11.49 3.376-18.584 6.195-5.885 2.355-39.304 6.01-55.75 3.098-.34-.062-.62-2.973-3.098-3.097-6.752-.37-7.712-1.92-12.39-3.096-5.45-1.363-6.936-2.014-12.388-6.195-12.017-9.2-18.026-14.372-24.778-34.07-4.647-13.567-7.558-37.942-3.098-55.75 1.053-4.213 1.053-6.227 3.097-9.293 1.362-2.044 2.694-8.517 6.194-12.39 8.827-9.786 32.77-18.644 49.556-15.485.403.062.557 2.973 3.097 3.097 9.602.495 12.947 3.623 18.584 12.388 1.085 1.704 2.912-.464 3.098 3.097.526 9.82 8.24 21.464-3.097 34.07-.557 8.734-14.71 3.872-12.388 15.486 8.89.652 15.734-.773 18.583-6.193 6.41.867 2.23-9.137 6.195-12.39 3.56-2.91 0-9.29 3.097-12.388 4.646-4.647-.496-8.642 0-21.682.805-21.68 7.65-46.644-3.097-61.945-22.765-2.2-40.667 8.27-55.75-3.097-5.514-17.624-4.43-53.428 0-71.237 2.508-.59 3.096-3.098 6.194-3.098H571.27c6.72 15.982 1.394 44.043 3.097 65.042zM369.95 218.016c1.92 11.924 1.578 33.667 0 40.264-.156.65-2.944.372-3.1 3.097-.06 1.456-2.322 4.49-3.096 6.195-5.39 11.677-17.964 19.203-27.875 30.972 4.397 11.367 8.268 22.27 6.193 40.265-.93 8.02-6.442 21.71-9.29 27.874-.962 2.106-1.488 6.752-3.1 9.292-1.702 2.694-7.525 3.654-9.29 6.194-2.076 2.974-.713 6.845-3.098 9.292-1.703 1.765-4.026 1.703-6.194 3.097-1.888 1.207-5.605 6.72-9.29 9.29-1.116.775-5.36-1.02-6.195 0-6.845 8.394-18.49 11.43-34.07 15.487-.775.217-.28 2.943-3.097 3.097-2.974.155-6.38-.557-9.292 0-13.907 2.633-43.33 4.12-61.945 0-8.64-1.92-14.68-2.88-21.68-6.194-1.487-.712.31-2.91-3.097-3.097-3.965-.217-3.903-5.173-6.195-6.195-1.486-.68-4.893.96-6.194 0-1.3-.99-18.367-17.468-18.584-21.68-.124-2.633-4.708-6.846-6.194-9.292-2.013-3.252-3.996-6.876-6.195-12.39-.432-1.114.868-5.48 0-6.194-3.87-3.16-1.61-6.473-3.096-18.583-.68-5.453-3.252-10.346-3.097-15.488 1.177-36.95 19.543-54.356 43.36-74.334-8.237-12.884-14.99-22.795-15.485-37.167-.093-2.507-.712-6.906 0-9.29.496-1.642 3.004-3.098 3.097-3.098.65-3.623-1.395-8.982 0-12.39.557-1.33 2.91.156 3.097-3.096.092-1.858 11.15-15.58 15.486-18.583 3.562-2.478 8.053-1.55 12.39-3.098.71-.247.773-2.508 3.096-3.097 16.043-4.026 38.653-11.15 55.75 3.097 4.46-.712 1.084-9.23 6.194-9.29 16.818 2.352 24.004-4.895 40.264-3.1 6.536 18.244-.62 50.177 6.195 68.14-11.677 3.81-24.716 6.257-40.264 6.195-15.766-.743-11.616-21.433-27.877-21.68-11.46.247-15.176 8.455-15.486 15.486-.588 13.504 13.783 19.544 27.875 18.583 1.797 17.282-3.593 27.38-6.194 40.264-4.12 5.172-17.562 1.022-21.68 6.194-2.355 3.097-3.78 6.164-6.195 9.292-.837 1.084-5.947 5.327-6.195 6.194-2.354 7.744-1.456 21.37 0 27.876 4.12 18.46 27.597 31.065 43.362 30.972 16.694-.124 40.945-10.283 37.167-37.167.96-7.155-8.95-3.438-9.292-9.292-9.23 1.084-18.862 1.797-21.68 9.292-11.523 3.686 2.29 13.41-6.195 18.584-24.5 1.145-28.402-23.324-21.68-40.266 2.167-5.482 8.795-16.942 15.485-21.68 1.115-.775 5.358 1.022 6.195 0 .31-.372-.372-2.912 0-3.098 1.115-.526 5.45.9 6.194 0 1.518-1.858 7.898-4.49 15.486-6.194 21.99-4.956 46.986-3.066 61.945-15.486 2.974-11.243-13.906-2.602-12.39-12.39-10.374-3.56-13.998-25.15-3.096-34.07 1.052-.866-.9-5.14 0-6.194 2.415-2.85 5.698-1.177 9.29-3.097 1.24-.68 5.328-5.978 6.195-6.194 18.43-4.614 30.322.372 40.265 9.292 5.915 5.297 7.557 8.487 9.29 15.487.497 1.92 3.1 3.034 3.1 3.096zM85 394.56c1.953 12.822 6.227 26.326 3.1 37.166-9.82 6.133-21.032 4.18-30.974 6.195-20.163 4.12-32.15 13.07-46.46-3.097-2.105-2.384-.99-7.03-3.096-9.29-2.354-2.51-8.92-4.74-12.39-9.293-1.67-2.2-1.145-6.97-3.096-9.292-3.22-3.87-9.57-5.978-12.39-9.292-2.043-2.415-1.238-6.875-3.096-9.29-3.47-4.523-12.823-9.045-18.584-15.488-3.778-4.212-5.7-11.52-9.292-15.486-4.522-4.986-7.99-6.132-12.39-9.292-6.348 4.46 4.77 21.867 3.1 34.07 3.653 3.562 10.932 3.5 18.582 3.097 4.274 23.6 14.99 40.76 15.486 68.14-29.92 10.345-65.878 14.65-99.112 21.68-10.004-16.848-12.234-41.44-15.486-65.042-1.796-12.14 12.73-7.898 15.486-15.486-3.933-33.265-10.375-63.96-18.583-92.918-2.664-7.65-21.557.898-24.778-6.195-1.363-26.512-11.212-44.538-9.292-74.334 7.712-4.43 12.358-4.708 24.778-6.194.93-.125 5.668.65 6.195 0 2.075-2.54 9.477-4.06 18.583-6.196 6.227-1.456 11.213-3.78 15.487-3.097 7.03 1.115 5.266 3.438 9.292 6.194 1.92 1.302 7.34 1.364 9.29 3.1 2.48 2.198 6.195 8.67 9.293 12.388 2.663 3.16 7.185 6.72 9.29 9.29 3.037 3.656 3.532 9.045 6.196 12.39 3.003 3.748 6.44 6.195 9.29 9.292 6.32 6.907 12.978 12.11 18.584 18.584 6.288 7.247 14.62 13.813 15.486 21.68 7.99-7.123-3.747-24.034-3.097-37.167-6.04-7.37-17.344 5.668-24.778-3.097 2.51-25.242-12.76-32.645-9.292-58.848 4.4-3.5 7.496-4.986 12.39-6.194 2.88-.713 6.442.867 9.29 0 4.09-1.24 19.855-3.84 30.974-6.195 15.982-3.376 33.605-11.862 52.653-9.29 6.225 18.55 5.42 44.134 12.39 61.944-.713 10.654-9.23 13.504-18.585 15.486 4.058 33.11 11.367 62.967 15.487 96.015 7.93 9.044 21.835-4.027 27.875 3.097.93 13.132 4.057 26.296 6.194 40.264zM-147.292 453.407c.712 2.818 5.637 16.6 3.097 27.875-13.938 5.018-28.247 8.053-43.362 12.39-23.725 6.844-47.728 14.71-74.334 21.68-1.92.496-4.244-.496-6.195 0-2.912.712-7.743 1.703-12.39 3.097-2.88.866-5.172 2.074-9.29 3.096-3.75.93-13.257 7.65-21.682 3.098-4.15-21.65-12.14-39.49-15.486-61.945-1.796-12.143 12.73-7.9 15.486-15.488-5.513-35.773-17.066-65.506-24.778-99.112-12.946-.712-14.62 5.05-24.778 0-8.207-20.69-12.42-45.405-18.583-68.14 5.39-4.645 9.2-7.06 15.486-9.29 13.628-4.833 25.924-5.235 40.264-9.293 2.726-.774 5.39-1.982 9.292-3.097 1.053-.31 5.575.774 6.195 0 4.244-5.172 25.088-8.765 37.168-12.39 9.54-2.88 16.54-6.1 27.875-9.29 1.053-.31 5.575.774 6.194 0 1.518-1.86 8.92-4.925 18.584-3.098 10.748 24.375 17.965 52.22 24.78 80.53-13.257 8.423-29.952 13.41-46.46 18.582-14.93 2.54-6.04-18.738-18.583-18.583-24.593-.34-5.173 27.164-6.195 40.265 15.61 2.2 17.314-9.54 34.07-6.195 2.787 16.818 10.407 28.805 9.292 49.556-6.938 3.376-15.518 5.142-21.68 9.292 4.676 10.81 4.273 26.698 12.388 34.07 19.822-.805 13.504-13.938 12.39-30.973 16.167-6.535 34.72-10.716 52.652-15.486 11.615 13.813 6.504 35.463 15.486 49.555 1.92 3.035 1.983 4.863 3.098 9.292zM-342.42 456.504c1.61 4.058 6.32 17.902 6.195 27.875-.093 6.782-2.416 7.774-3.097 12.388-.557 3.81 1.177 8.735 0 12.39-.34 1.022-2.942.06-3.097 3.097-.06 1.424-2.322 4.49-3.096 6.194-.93 2.043-1.518 6.844-3.098 9.29-.774 1.178-5.73 2.076-6.194 3.098-.59 1.3.96 5.204 0 6.195-.96.99-5.327-1.053-6.195 0-2.075 2.54-4.862 9.106-9.29 12.39-2.727 2.012-6.63 1.454-9.293 3.096-1.797 1.114-4.584 5.388-6.195 6.193-1.58.806-4.46-.433-6.195 0-2.726.682-5.296 2.107-9.292 3.098-2.726.682-5.296 2.107-9.292 3.098 0 0-9.074 2.85-9.29 3.097-2.076 2.54-2.354 2.137-6.195 3.097-3.655.9-14.433 6.567-21.68 9.292-1.085.403-5.514-.836-6.195 0-2.075 2.54-2.354 2.137-6.195 3.097-3.654.9-14.433 6.568-21.68 9.293-1.085.403-5.514-.836-6.195 0-5.823 7.124-35.37 6.597-43.362 6.195-6.41-20.442-16.043-37.663-18.583-61.945 3.686.588 1.55-4.646 3.097-6.195.96-.96 5.328 1.053 6.195 0 .743-.898 8.548-5.482 12.39-9.292 2.508-9.694-3.284-16.54-6.196-24.778-1.64-4.676-3.684-12.327-6.193-18.583-4.305-10.81-11.274-33.14-15.487-49.556-11.986-1.674-15.114 5.543-27.875 3.096-8.053-22.92-22.114-39.83-21.68-71.237 1.703-3.098 6.04-1.363 9.29-3.098 1.705-.93 4.77-5.606 6.196-6.194 1.735-.713 4.368.464 6.195 0 2.726-.682 5.297-2.106 9.292-3.098 3.53-.867 13.287-6.442 21.68-9.29 1.92-.652 13.38-.528 15.487-3.1 2.075-2.538 2.354-2.136 6.194-3.096 3.655-.93 14.434-6.566 21.68-9.292 1.085-.402 5.514.837 6.196 0 7.557-9.26 45.405-7.774 58.848-3.097 1.146.403 0 2.943 3.097 3.097 2.043.093 11.273 1.735 12.388 3.098 2.478 3.035 2.85 3.902 6.194 6.194 5.018 3.407 8.363 6.07 12.39 12.39 2.167 3.375 3.964 5.822 6.194 9.29 1.92 3.036 1.982 4.864 3.097 9.293 1.735 6.876 6.195 29.64 0 46.458 3.748 4.244 19.668 5.76 27.875 9.292 6.66 2.85 9.354 6.257 15.487 12.39 2.168 2.167 7.68 3.747 9.29 6.194 2.51 3.78 1.302 7.992 3.1 12.39.556 1.332 2.91-.186 3.096 3.097.032.836-.31 2.354 0 3.097zm-114.597 52.653c20.256.124 34.782-14.31 30.972-27.875-4.677-16.663-23.29-12.76-40.264-6.194 1.704 12.73 8.89 20.04 9.293 34.07zm-34.07-86.723c17.995-1.61 33.605-5.637 30.972-27.875-8.64-8.24-24.468-6.412-37.167-3.098-3.252 15.64 7.062 17.716 6.195 30.972z" fill="#fff"/>
  <path d="M-426.045 481.282c3.81 13.566-10.716 28-30.972 27.875-.403-14.03-7.59-21.34-9.292-34.07 16.974-6.565 35.588-10.468 40.265 6.195zM-460.115 394.56c2.633 22.237-12.977 26.264-30.972 27.874.867-13.256-9.447-15.33-6.195-30.972 12.7-3.314 28.526-5.142 37.167 3.097z"/>
  <g stroke="#000" stroke-width=".75">
    <path d="M1635.14 723.078l-6.794-3.434 1.24-2.453 16.542 8.363-1.24 2.453-6.83-3.453-10.056 19.893-2.914-1.477 10.05-19.892zM1661.115 748.87c1.413-3.2 3.107-7.047 4.547-9.816l-.1-.053c-2.084 2.234-4.44 4.582-7.104 7.063l-9.428 8.846-2.184-1.107 1.762-12.466c.533-3.686 1.097-7.025 1.806-9.995l-.065-.034c-1.478 2.753-3.538 6.41-5.427 9.663l-5.44 9.277-2.752-1.39 12.854-21.557 3.68 1.86-1.65 12.73c-.463 3.225-.943 6.062-1.553 8.67l.097.053c1.707-1.97 3.742-4.02 6.16-6.337l9.44-8.8 3.68 1.865-9.9 23.048-2.82-1.425 4.398-10.094z" stroke-width="2.3229375"/>
  </g>
  <path d="M1555.38 616.982c11.024 4.58 16.023 16.704 11.585 27.37-4.538 10.906-16.608 15.79-27.745 11.16-11.023-4.584-16.307-16.688-11.77-27.59 4.44-10.667 16.79-15.57 27.814-10.986l.117.046zm-1.84 3.773c-8.442-3.513-17.65.77-21.162 9.214-3.56 8.56-.06 17.994 8.62 21.602 8.393 3.63 17.487-.706 21.045-9.264 3.513-8.443.177-17.942-8.384-21.5l-.12-.053zm-13.465 24.105l-4.454-1.855 7.948-19.113c1.902.378 4.513 1.053 7.678 2.37 3.637 1.51 5.033 2.78 6.05 4.305.712 1.26.9 3.128.17 4.887-.926 2.227-3.252 3.184-5.888 2.91l-.096.234c1.63 1.366 2.053 3.332 1.567 6.15-.633 3.18-.77 4.498-.55 5.28l-4.803-2.002c-.297-.948.037-2.738.375-5.21.526-2.258-.254-3.68-2.717-4.708l-2.112-.876-3.168 7.628zm4.602-10.738l2.112.88c2.462 1.022 4.797 1.03 5.624-.963.728-1.758-.07-3.47-2.887-4.638-1.17-.49-2.04-.712-2.558-.79l-2.293 5.51z" fill="#fff"/>
</svg>
