<?xml version="1.0" encoding="utf-8"?>
<!-- Generator: Adobe Illustrator 19.2.0, SVG Export Plug-In . SVG Version: 6.00 Build 0)  -->
<svg version="1.1" id="Layer_1" xmlns="http://www.w3.org/2000/svg" xmlns:xlink="http://www.w3.org/1999/xlink" x="0px" y="0px"
	 viewBox="0 0 180 130" style="enable-background:new 0 0 180 130;" xml:space="preserve">
<style type="text/css">
	.st0{fill:#E5E6EB;}
	.st1{fill:#FFFFFF;}
	.st2{fill:#505A78;}
	.st3{fill:#FBC9BA;}
	.st4{fill:#F79C82;}
	.st5{fill:#C5E1F6;}
	.st6{filter:url(#Adobe_OpacityMaskFilter);}
	.st7{mask:url(#b);fill:#505A78;}
	.st8{fill:#7FDE95;}
</style>
<title>Page 1</title>
<g>
	<path class="st0" d="M156,49.7c-10.8,0-19.5,8.7-19.5,19.5c0,10.8,8.7,19.5,19.5,19.5c10.8,0,19.5-8.7,19.5-19.5
		C175.5,58.5,166.8,49.7,156,49.7 M26.7,74.7c-10.8,0-19.5,8.7-19.5,19.5c0,10.8,8.7,19.5,19.5,19.5c10.8,0,19.5-8.7,19.5-19.5
		C46.2,83.4,37.4,74.7,26.7,74.7"/>
	<path class="st1" d="M130.7,128h28.2c0.7,0,1.2-0.5,1.2-1.2V25.2c0-0.7-0.5-1.2-1.2-1.2H21.1c-0.7,0-1.2,0.5-1.2,1.2v101.6
		c0,0.7,0.5,1.2,1.2,1.2H130.7L130.7,128z"/>
	<path class="st1" d="M19.6,115v11.4c0,0.7,0.6,1.3,1.3,1.3h138.4c0.7,0,1.3-0.6,1.3-1.3V91.9"/>
	<path class="st2" d="M160.8,92c-0.5,0.6-0.7,2-0.9,3.6c-0.2,8.4-0.1,18.4-0.2,22.3c0,2.2,0,4.4,0,6.6l0,1.6l0,0.4l0,0.1l-0.1,0.2
		l-0.2,0.1l-0.8,0l-1.6,0l-12.4,0c-8.2,0-16.4,0-25.3-0.1c-17.7-0.2-36.2-0.2-53.7-0.2c-8.5,0.1-20.2,0.2-28.8,0.2l-15.5,0.1
		c-0.5,0-0.5,0-0.6-0.1c-0.1-0.1-0.2-0.2-0.2-0.3c0-0.8,0-1.6,0-2.4l0-4.6l0-2.2c0-2.5-1.8-3.4-1.8,0.3v4l0,2.8v1.5l0,0.7
		c0,0.4,0.1,0.9,0.4,1.2c0.2,0.4,0.6,0.7,1,0.9c0.2,0.1,0.4,0.2,0.6,0.2l0.3,0h1.7l3,0c8,0,15.5,0,16.8,0
		c21.5,0.2,37.9-0.2,59.2,0.1c10.6,0.2,21.3,0.2,32,0.2c5.4,0,10.7,0,16.1,0c2.7,0,5.3,0,8,0l1,0l0.5,0c0.2,0,0.6,0,0.9-0.2
		c0.6-0.2,1.1-0.7,1.4-1.3c0.1-0.3,0.2-0.6,0.3-0.9l0-0.3V126l0-4c0-0.9,0-15.3-0.2-26.5C161.5,93.2,161.3,91.4,160.8,92"/>
	<path class="st1" d="M160.6,38.5V24c0-0.7-0.6-1.3-1.3-1.3H21c-0.7,0-1.3,0.6-1.3,1.3v41.8"/>
	<path class="st2" d="M19.5,65.7c0.5-0.6,0.7-2,0.9-3.6c0.2-8.9,0.1-19.4,0.2-23.6l0.1-13.7l0-0.8l0.1-0.2l0.2-0.1l0.1,0h0.4l3.3,0
		c2.2,0,4.4,0,6.5,0c8.7,0,17.4,0,26.8,0.1C76.7,24,96.3,24,114.7,24l30.4-0.2l6.7-0.1l4.6,0l2.5,0c0.6,0,0.5,0,0.6,0.1
		c0.1,0.1,0.1,0.1,0.1,0.4l0.1,12.3c0,2.5,1.8,3.4,1.8-0.3v-4.1c0-1.9,0-4,0-6.1c0-0.5,0-1.1,0-1.6c0-0.2,0-0.7-0.2-1.2
		c-0.2-0.4-0.5-0.8-0.9-1.1c-0.4-0.3-0.9-0.4-1.3-0.4h-2.4l-17.8,0c-22.7-0.2-40,0.2-62.6-0.1c-11.2-0.2-22.5-0.2-33.9-0.2l-17,0
		h-4.2c-0.2,0-0.3,0-0.6,0c-0.3,0-0.7,0.1-1,0.3c-0.6,0.3-1.1,0.9-1.3,1.6c-0.1,0.3-0.1,0.8-0.1,0.9v0.5l0,1.1l0,8.4
		c0,0.9,0,16.2,0.2,28C18.8,64.5,19,66.3,19.5,65.7"/>
	<path class="st1" d="M46.1,49.7l0.1,9.8c0,1.4-1.1,2.5-2.5,2.5l-9.8,0.1c-1.4,0-2.5-1.1-2.5-2.5l-0.1-9.8c0-1.4,1.1-2.5,2.5-2.5
		l9.8-0.1C44.9,47.2,46.1,48.3,46.1,49.7"/>
	<path class="st2" d="M46.6,49.1c-0.1-0.3-0.2-0.6-0.2-0.8c-0.5-1.2-1.9-1.9-2.9-1.9l-2-0.1c-1.8,0-3.4-0.1-5.1-0.1l-2.5,0
		c-1.1-0.1-2.4,0.5-3.1,1.5c-0.3,0.5-0.6,1-0.6,1.6c0,0.1,0,0.3,0,0.4l0,0.3l0,0.6c0,0.8,0.1,1.7,0.1,2.6c0,1.3-0.3,2.7-0.3,4
		c0,0.7,0.1,1.3,0.1,2c0,0.3,0.1,0.9,0.2,1.3c0.2,0.5,0.4,0.9,0.7,1.3c0.6,0.8,1.5,1.2,2.5,1.3l0.3,0l0.2,0l0.5,0l1,0
		c1.4,0,2.6,0.1,3.9,0.1c0.6,0,1.4,0,2.1-0.1L44,63c1-0.1,2-0.7,2.5-1.6c0.3-0.4,0.4-0.9,0.5-1.4c0.1-0.5,0-0.8,0-1.1
		c0-0.9,0-2.8-0.1-4.8c0-1-0.1-2.2-0.2-3l-0.1-1.4l-1.4,0c0,0.3,0,0.6,0,1.4l0,4l0,3.6c0,0.5,0,1,0,1.1c0,0.2-0.1,0.4-0.1,0.4
		c-0.2,0.5-0.7,0.8-1.2,0.9c-0.1,0-0.2,0-0.4,0l-0.5,0l-1.1,0c-1.5,0-3-0.1-4.4,0l-2.2,0.1l-1.1,0l-0.5,0c-0.1,0-0.3,0-0.4,0
		c-0.5-0.1-0.9-0.5-1-0.9c-0.1-0.2-0.1-0.4-0.1-0.7l0.1-1.1c0.1-1.6,0-3.2,0-4.8l0-2.4c0-0.8,0-1.7,0.1-2c0.1-0.4,0.4-0.8,0.8-1
		c0.1,0,0.2-0.1,0.3-0.1c0.1,0,0.4,0,0.6,0c0.4,0,0.8,0,1.2,0c1.6,0,3.2,0.3,4.8,0.3c0.4,0,0.9,0,1.5-0.1c0.3,0,0.7,0,1.1-0.1l0.7,0
		c0.1,0,0.3,0,0.4,0c0.4,0.1,0.7,0.3,1,0.6c0.2,0.2,0.3,0.4,0.3,0.7l1.4,0C46.7,49.5,46.7,49.3,46.6,49.1 M133.2,52.5
		c-0.6-0.5-2-0.7-3.6-0.9c-5.7-0.2-12.3-0.2-15-0.2c-12-0.2-22.1-0.1-34.1-0.3l-9-0.1L71,51l-0.3,0l-0.1,0l-0.3,0
		c-0.7,0.1-1.4,0.4-1.8,0.9c-0.4,0.5-0.7,1-0.8,1.6c-0.1,0.3-0.1,0.6-0.1,0.8V56c0,0.3,0,1,0.2,1.5c0.2,0.6,0.5,1.1,1.1,1.5
		c0.3,0.2,0.6,0.4,0.9,0.5c0.3,0.1,0.8,0.1,0.9,0.1l18,0c5.7,0,13.6-0.1,19.3-0.2c3.3,0,14.5-0.1,18.9-0.2c2.5,0,3.4-1.8-0.3-1.8
		c-4.4,0-20.8-0.1-22.5-0.1c-7.2-0.1-13.6-0.1-19.9,0c-3.2,0-6.3,0-9.6,0c-0.8,0-1.6,0-2.5,0l-1.3,0l-0.3,0l-0.1,0l-0.2-0.1
		c-0.1-0.1-0.2-0.3-0.3-0.5c0-0.1,0-0.2,0-0.4l0-0.6c0-0.4,0-0.9,0-1.3c0-0.3,0-0.3,0-0.5l0.1-0.3c0.3-0.4,0.1-0.3,1.3-0.3l2.7,0
		c1.8,0,3.6,0,5.4,0.1c3.6,0,7.2,0,10.8,0c7.2,0,14.4,0,21.5,0.1c0.6,0,10.3,0,17.8-0.2C131.9,53.2,133.7,52.9,133.2,52.5
		 M57.7,39.1c-0.5,0.6-0.7,2-0.8,3.6c-0.2,3.4-0.1,7.5-0.1,9.1c-0.1,7.3,0.1,13.4-0.1,20.6c-0.2,7.2-0.2,14.7-0.1,21.8
		c0,3.5,0.2,8.2,0.3,11.7c0,1.8,0.2,6.9,0.3,10.2c0,0.9,0,1.5,0,2c0,2.5,1.8,3.4,1.8-0.3c0-0.3,0-0.8,0-1.7l0-12.6
		c0.1-8.7-0.3-15.4,0-24.1c0.3-8.6-0.1-17.5,0-26.1c0-0.4-0.1-6.2-0.3-10.8C58.4,40.4,58.1,38.5,57.7,39.1"/>
	<path class="st3" d="M94.1,93.8c-0.2-0.2-0.5-0.3-0.7-0.1l-3.7,2.7c-0.3,0.2-0.6,0.1-0.8-0.2l-5.4-8.9c-0.2-0.4-0.7-0.4-1,0
		l-11.4,18.6h33.6L94.1,93.8z"/>
	<path class="st3" d="M94,94.3l5.5,6.6c1.5,1.8,3.9,4.5,3.4,4.1l-0.2,0c-2.6,0-5.2,0-7.8,0c-2.7,0-5.5,0.2-8.4,0.1
		c-2.2,0-4.4-0.2-6.7-0.3c-2.2,0-4.5,0.2-6.7,0.2h-0.4l-0.2,0l0.5-0.8l1.2-1.9l3.5-5.5c1.1-1.8,2.4-4.1,3.7-6.3l1.3-2.2l0.1-0.2
		L83,88c0.1,0,0.2,0.1,0.2,0.2l1.1,1.7l1.7,2.8l1.2,1.9l0.6,1l0.4,0.6c0.2,0.3,0.4,0.6,0.7,0.7c0.3,0.1,0.7,0.1,1,0
		c0.3-0.1,0.7-0.5,0.8-0.5c0.3-0.3,0.7-0.5,1-0.8c0.7-0.5,1.3-1,1.9-1.5c0.2-0.2,0.1-0.1,0.2-0.2l0.1,0l0.8-0.7
		c-0.1-0.1-0.3-0.3-0.6-0.4c-0.2,0-0.4,0-0.6,0L93,93.2l-0.2,0.1c-0.6,0.4-1.4,1-2.4,1.7c-1.4,0.9-0.9,1.2-1.8-0.3l-4.5-7.5
		c-0.2-0.3-0.4-0.5-0.6-0.7c-0.4-0.2-1-0.1-1.3,0.2c-0.3,0.3-0.6,0.9-0.8,1.1c-0.3,0.5-0.7,1.1-1,1.6c-0.6,1-1.3,2.1-1.9,3.1
		c-1.3,2.1-2.6,4.2-3.9,6.2l-1.9,3.1l-2.3,3.7l-0.5,0.7l-0.1,0.1l0,0.1l0.3,0l0.7,0c0.5,0,0.9,0,1.4,0l1.9,0.1l3.5,0.1
		c2.6,0.1,5.3,0,8,0l8,0.1c2.7,0,5.3-0.2,8-0.2l4.1,0.1c0.2,0,0.5,0,0.6,0l-0.4-0.4l-0.8-0.9l-1.5-1.8c-0.6-0.7-1.1-1.4-1.7-2.1
		c-0.9-0.9-2.2-2.4-4.6-5c-0.7-0.8-1.5-1.6-2.3-2.4l-0.7-0.6l-0.8,0.7L94,94.3L94,94.3z"/>
	<path class="st4" d="M100.8,82.7c0,2.3-1.8,4.2-4.1,4.2c-2.3,0-4.2-1.8-4.2-4.1c0-2.3,1.8-4.2,4.1-4.2
		C99,78.6,100.8,80.4,100.8,82.7"/>
	<path class="st4" d="M101.3,82.3c0-0.2,0-0.4-0.1-0.6c-0.2-1.1-0.7-2-1-2.3c-0.6-0.7-1.4-1.2-2.3-1.5c-0.9-0.2-1.8-0.2-2.7,0
		c-0.9,0.3-1.6,0.9-2.2,1.6c-0.5,0.5-1,1.1-1.2,1.8c-0.2,0.7,0,1.5,0.1,2.2c0.1,0.7,0.5,1.4,0.9,2c0.4,0.6,0.9,1.1,1.6,1.5
		c0.6,0.4,1.5,0.5,2.3,0.5c0.8,0,1.6-0.2,2.2-0.5c0.4-0.2,1.3-0.8,1.9-1.7c0.3-0.5,0.5-1.1,0.5-1.5c0.1-0.5,0.1-0.9,0.1-1.2l-1,0
		c0,0.2,0,0.4-0.1,0.9c-0.1,0.3-0.3,1-0.7,1.4c-0.7,0.8-1.7,1.1-1.8,1.1c-0.6,0.1-1.2,0.1-1.7,0c-0.6-0.1-1.1-0.4-1.5-0.8
		c-0.4-0.4-0.8-0.8-1-1.4c-0.2-0.5-0.2-1.1,0-1.7c0.1-0.6,0.3-1.2,0.7-1.6c0.4-0.5,0.9-0.8,1.4-1c0.5-0.2,1.1-0.5,1.7-0.4
		c0.6,0.1,1.1,0.6,1.5,0.9c0.2,0.2,0.6,0.4,1,1.1c0.1,0.2,0.2,0.4,0.4,0.7c0.1,0.2,0.2,0.5,0.2,0.7l1,0
		C101.3,82.6,101.3,82.4,101.3,82.3 M107.9,106.3c-0.9-0.9-5.3-0.8-6.6-0.8c-3.3-0.1-6.1,0-9.4-0.2c-3.3-0.2-6.7-0.2-10-0.2
		c-1.6,0-3.8,0.1-5.4,0.2c-1,0.1-4.6,0.2-6,0.2c-1.7,0-2.3,1.5,0.2,1.5c1.4,0,6.4,0,6.9,0c4,0.1,7.1-0.2,11,0.1
		c3.9,0.3,8,0,11.9,0.1C100.9,107.3,108.8,107.2,107.9,106.3"/>
	<path class="st2" d="M135.2,84.1c-0.4-0.3-1-0.5-1.9-0.7c-0.4-0.1-0.9-0.1-1.4-0.2l-0.4,0l-0.1,0l-0.2,0c-0.5-0.1-1-0.1-1.3-0.1
		c-1.2-0.2-2.3,0-3.5-0.2c-1.2-0.2-2.5-0.3-3.7-0.2c-0.6,0-1.4,0.1-2,0.2l-1.1,0.1c-0.2,0-0.4,0-0.7,0.1c-0.8,0-1.5,0-2,0
		c-2.5,0-3.4,1.8,0.3,1.8l1.7,0c0.7,0,2,0,2.1,0c1.5,0.2,2.6-0.2,4.1,0.2c1.5,0.4,3,0,4.4,0.2c0.1,0,1.1,0,1.8-0.2
		C133.9,84.8,135.8,84.5,135.2,84.1 M135.3,93.5c-0.4-0.3-1-0.5-1.9-0.7c-0.4-0.1-0.9-0.1-1.4-0.2l-0.4,0l-0.1,0l-0.2,0
		c-0.5-0.1-1-0.1-1.2-0.1c-1.2-0.2-2.2,0-3.4-0.2c-1.2-0.2-2.5-0.3-3.6-0.2c-0.6,0-1.4,0.1-1.9,0.2l-1.1,0.1l-0.6,0.1l-2,0
		c-2.5,0-3.4,1.8,0.3,1.8l1.7,0c0.6,0,1.9,0,2.1,0c1.5,0.2,2.6-0.2,4,0.2c1.4,0.4,2.9,0,4.3,0.2c0.1,0,1,0,1.8-0.2
		C134,94.2,135.8,93.9,135.3,93.5 M135.5,102.9c-0.4-0.3-1-0.5-1.9-0.7c-0.4-0.1-0.9-0.1-1.4-0.2l-0.4,0l-0.1,0l-0.2,0
		c-0.5-0.1-1-0.1-1.2-0.1c-1.2-0.2-2.2,0-3.4-0.2c-1.2-0.2-2.4-0.3-3.6-0.2c-0.6,0-1.4,0.1-1.9,0.2l-1,0.1c-0.2,0-0.4,0-0.6,0.1
		l-2,0c-2.5,0-3.4,1.8,0.3,1.8l1.7,0c0.6,0,1.9,0,2.1,0c1.4,0.2,2.6-0.2,4,0.2c1.4,0.4,2.9,0,4.3,0.2c0.1,0,1,0,1.8-0.2
		C134.2,103.6,136,103.3,135.5,102.9 M160.5,33.2c-0.6-0.5-2-0.7-3.6-0.9c-6.2-0.2-13.5-0.1-16.4-0.2c-13.2-0.1-24.3,0-37.4-0.2
		c-13.1-0.2-26.7-0.2-39.6-0.2L42.4,32c-3.6,0-15.8,0.2-20.5,0.2c-2.5,0-3.4,1.8,0.3,1.8l24.5,0c15.8,0.2,27.9-0.2,43.6,0.1
		c15.6,0.4,31.6,0,47.2,0.2c0.7,0,11.3,0,19.5-0.2C159.3,34,161.1,33.7,160.5,33.2"/>
	<path class="st5" d="M136.5,64.8c0-10.8,8.7-19.5,19.5-19.5c10.8,0,19.5,8.7,19.5,19.5c0,10.8-8.7,19.5-19.5,19.5
		C145.2,84.3,136.5,75.6,136.5,64.8"/>
	<path class="st1" d="M156,84.3c5.4,0,10.3-2.2,13.8-5.8c0.1-0.1,0.2-0.3,0.1-0.5c-2.3-5.4-7.7-9.3-13.9-9.3s-11.7,3.8-13.9,9.3
		c-0.1,0.2,0,0.3,0.1,0.5C145.7,82.1,150.6,84.3,156,84.3"/>
	<path class="st2" d="M142.7,76.4c0.6-0.1,1.3-0.9,2.1-1.7c0.7-0.8,1.5-1.6,1.9-1.9c2.1-1.6,4.1-2.6,6.7-3c2.6-0.3,5.2,0,7.6,0.9
		c1.1,0.4,2.7,1.2,3.7,1.9c0.3,0.2,1.1,0.8,1.7,1.4c0.7,0.6,1.3,1.4,1.6,1.9c0.7,1.1,2.3,0.8,1.1-1c-0.3-0.5-1.2-1.6-2.1-2.5
		c-0.9-0.9-1.9-1.6-2.1-1.7c-1.4-1.1-2.8-1.7-4.3-2.1c-1.5-0.4-3-0.7-4.7-0.8c-1.7-0.1-3.5,0.2-5.2,0.8c-1.7,0.6-3.2,1.5-4.6,2.5
		c-0.1,0.1-1.5,1.2-2.5,2.6C142.7,75.1,142.2,76.5,142.7,76.4"/>
	<path class="st1" d="M149.7,58.4c0-3.5,2.8-6.3,6.3-6.3c3.5,0,6.3,2.8,6.3,6.3c0,3.5-2.8,6.3-6.3,6.3
		C152.5,64.7,149.7,61.9,149.7,58.4"/>
	<path class="st2" d="M151.4,63.8c0,0,0.3,0.3,0.8,0.6c0.5,0.4,1.2,0.8,2.1,1c0.8,0.3,1.8,0.3,2.5,0.3c0.7-0.1,1.3-0.2,1.5-0.3
		c0.6-0.1,1.5-0.6,2.3-1.3c0.8-0.7,1.4-1.5,1.7-2c0.8-1.9,1-3.5,0.8-5.1c-0.3-1.6-0.9-3.4-2.9-4.9c-0.9-0.5-2.1-0.9-3.4-1
		c-1.3-0.1-2.9,0.1-4.3,1c-2.5,1-4,3.8-3.9,6.3h2.1c0-1.8,1-3.7,2.7-4.5c1.1-0.7,2.6-1,4-0.6c1.4,0.3,2.7,1.3,3.4,2.6
		c0.7,1.3,0.8,2.9,0.3,4.2c-0.5,1.3-1.5,2.4-2.6,3c-0.7,0.3-1.3,0.4-1.9,0.4c-0.6,0-1.2-0.1-2.1-0.3c-0.7-0.1-1.4-0.4-2.1-1
		c0,0-0.6-0.5-1-1.2c-0.5-0.8-0.8-1.9-0.8-2.6h-2.1c0,1,0.4,2.1,0.9,3C150,62.4,150.7,63.1,151.4,63.8"/>
	<g transform="translate(128.82 22.73)">
		<defs>
			<filter id="Adobe_OpacityMaskFilter" filterUnits="userSpaceOnUse" x="7" y="21.5" width="40.8" height="41.1">
				<feColorMatrix  type="matrix" values="1 0 0 0 0  0 1 0 0 0  0 0 1 0 0  0 0 0 1 0"/>
			</filter>
		</defs>
		<mask maskUnits="userSpaceOnUse" x="7" y="21.5" width="40.8" height="41.1" id="b">
			<g class="st6">
				<path id="a" class="st1" d="M47.9,21.5H7v41.1h40.8V21.5z"/>
			</g>
		</mask>
		<path class="st7" d="M7.1,42.6l0,0.8c0,0.7,0.1,1.3,0.2,2c0.1,0.7,0.2,1.3,0.4,1.9c0.1,0.6,0.3,1.2,0.5,1.8c0.8,2.3,1.9,4.1,2.6,5
			c1.2,1.7,2.7,3.2,4.3,4.4c1.6,1.2,3.4,2.2,5.2,2.9c0.9,0.4,1.9,0.6,2.9,0.9c1,0.2,2,0.4,3,0.4c2,0.1,4.1-0.1,6-0.5
			c1.9-0.4,3.8-1.3,5.5-2.3c1.7-1,3.3-2.4,4.7-3.9c2.2-2.3,4-5.1,4.9-8.2c0.9-3.2,0.7-6.5,0.1-9.7c-0.7-3.2-2.1-6.1-4.1-8.6
			c-2-2.5-4.4-4.5-7.3-5.9c-1.4-0.7-3.1-1.2-4.8-1.5c-1.8-0.3-3.7-0.4-5.5-0.2C22,21.9,18.5,23.3,16,25c-1.7,1.1-5.5,4.2-7.4,8.7
			c-1,2.2-1.5,5-1.6,6.9c0,0.6,0,1.1,0,1.4h1.4c0-0.3,0-0.6,0.1-1.3c0.1-1.8,0.8-5.5,2.6-8.3c1.5-2.4,3.5-4.4,5.3-5.7
			c1.8-1.2,3.3-1.9,3.8-2c3.2-1.2,6.4-1.6,9.5-1.1c1.7,0.2,3.2,0.7,4.7,1.3c1.4,0.7,2.9,1.4,4.1,2.5c2.6,1.9,4.6,4.5,5.9,7.5
			c1.1,2.9,1.5,6.1,1,9.4c-0.2,1.7-0.7,3.4-1.3,5c-0.7,1.6-1.6,3.1-2.7,4.4c-1.1,1.3-2.4,2.5-3.8,3.5c-1.4,0.9-3,1.8-4.6,2.3
			c-1.6,0.5-3.3,1-5,1.1c-1.7,0.2-3.5,0-5.2-0.4c-3.4-0.8-6.3-2.9-8.7-5.3c-1.1-1.2-3.1-3-4.6-7.4c-0.4-1.4-0.8-2.8-0.9-4.3L8.4,42
			H7L7.1,42.6L7.1,42.6z"/>
	</g>
	<path class="st8" d="M7.1,89.7c0-10.8,8.7-19.5,19.5-19.5c10.8,0,19.5,8.7,19.5,19.5c0,10.8-8.7,19.5-19.5,19.5
		C15.9,109.3,7.1,100.5,7.1,89.7"/>
	<path class="st1" d="M26.7,109.3c5.4,0,10.3-2.2,13.8-5.8c0.1-0.1,0.2-0.3,0.1-0.5c-2.3-5.4-7.7-9.3-13.9-9.3
		c-6.3,0-11.7,3.8-13.9,9.3c-0.1,0.2,0,0.3,0.1,0.5C16.3,107,21.2,109.3,26.7,109.3"/>
	<path class="st2" d="M13.4,101.4c0.6-0.1,1.3-0.9,2.1-1.7c0.7-0.8,1.5-1.6,1.9-1.9c2.1-1.6,4.1-2.6,6.7-3c2.6-0.3,5.2,0,7.6,0.9
		c1.1,0.4,2.7,1.2,3.7,1.9c0.3,0.2,1.1,0.8,1.7,1.4c0.7,0.6,1.3,1.4,1.6,1.9c0.7,1.1,2.3,0.8,1.1-1c-0.3-0.5-1.2-1.6-2.1-2.5
		c-0.9-0.9-1.9-1.6-2.1-1.7c-1.4-1.1-2.8-1.7-4.3-2.1c-1.5-0.4-3-0.7-4.7-0.8c-1.7-0.1-3.5,0.2-5.2,0.8c-1.7,0.6-3.2,1.5-4.6,2.5
		c-0.1,0.1-1.5,1.2-2.5,2.6C13.3,100,12.8,101.5,13.4,101.4"/>
	<path class="st1" d="M20.4,83.4c0-3.5,2.8-6.3,6.3-6.3c3.5,0,6.3,2.8,6.3,6.3s-2.8,6.3-6.3,6.3C23.2,89.7,20.4,86.8,20.4,83.4"/>
	<path class="st2" d="M22,88.7c0,0,0.3,0.3,0.8,0.6c0.5,0.4,1.2,0.8,2.1,1c0.8,0.3,1.8,0.3,2.5,0.3c0.7-0.1,1.3-0.2,1.5-0.3
		c0.5-0.1,1.5-0.6,2.3-1.3c0.8-0.7,1.4-1.5,1.7-2c0.8-1.9,1-3.5,0.8-5.1c-0.3-1.6-0.9-3.4-2.9-4.9c-0.9-0.4-2.1-0.9-3.4-1
		c-1.3-0.1-2.9,0.1-4.3,1c-2.5,1-4,3.8-3.9,6.3h2.1c0-1.8,1-3.7,2.7-4.5c1.1-0.7,2.6-1,4-0.6c1.4,0.3,2.7,1.3,3.4,2.6
		c0.7,1.3,0.8,2.9,0.3,4.2c-0.5,1.3-1.5,2.4-2.6,3c-0.7,0.3-1.3,0.4-1.9,0.4c-0.6,0-1.2-0.1-2.1-0.3c-0.7-0.1-1.4-0.4-2.1-1
		c0,0-0.6-0.5-1-1.2c-0.5-0.8-0.8-1.9-0.8-2.6h-2.1c0,1.1,0.4,2.1,0.9,3C20.7,87.3,21.3,88.1,22,88.7"/>
	<path class="st2" d="M6.5,90.3c0,0.2,0,0.5,0,0.8c0,0.7,0.1,1.3,0.2,2c0.1,0.7,0.2,1.3,0.4,1.9c0.1,0.6,0.3,1.2,0.5,1.8
		c0.8,2.3,1.9,4.1,2.6,5c1.2,1.7,2.7,3.2,4.3,4.4c1.6,1.2,3.4,2.2,5.2,2.9c0.9,0.4,1.9,0.6,2.9,0.9c1,0.2,2,0.4,3,0.4
		c2,0.1,4.1-0.1,6-0.5c1.9-0.4,3.8-1.3,5.5-2.3c1.7-1,3.3-2.4,4.7-3.9c2.2-2.3,4-5.1,4.9-8.2c0.9-3.2,0.7-6.5,0.1-9.7
		c-0.7-3.2-2.1-6.1-4.1-8.6c-2-2.5-4.4-4.5-7.3-5.9c-1.4-0.7-3.1-1.2-4.8-1.5c-1.8-0.3-3.7-0.4-5.5-0.2c-3.6,0.3-7.1,1.7-9.6,3.3
		c-1.7,1.1-5.5,4.2-7.4,8.7c-1,2.2-1.5,5-1.6,6.9l0,1.4h1.4L8,88.4c0.1-1.8,0.8-5.5,2.6-8.3c1.5-2.4,3.5-4.4,5.3-5.7
		c1.8-1.2,3.3-1.9,3.8-2c3.2-1.2,6.4-1.6,9.5-1.1c1.7,0.2,3.2,0.7,4.7,1.3c1.4,0.7,2.9,1.4,4.1,2.5c2.6,1.9,4.6,4.5,5.9,7.5
		c1.1,2.9,1.5,6.1,1,9.4c-0.2,1.7-0.7,3.4-1.3,5c-0.7,1.6-1.6,3.1-2.7,4.4c-1.1,1.3-2.4,2.5-3.8,3.4c-1.4,0.9-3,1.8-4.6,2.3
		c-1.6,0.5-3.3,1-5,1.1c-1.7,0.2-3.5,0-5.2-0.4c-3.4-0.8-6.3-2.9-8.7-5.3c-1.1-1.2-3.1-3-4.6-7.4c-0.4-1.4-0.8-2.8-0.9-4.3l-0.2-1.1
		H6.5L6.5,90.3L6.5,90.3z"/>
</g>
</svg>
