<?xml version="1.0" encoding="utf-8"?>
<!-- Generator: Adobe Illustrator 19.2.0, SVG Export Plug-In . SVG Version: 6.00 Build 0)  -->
<svg version="1.1" id="Layer_1" xmlns="http://www.w3.org/2000/svg" xmlns:xlink="http://www.w3.org/1999/xlink" x="0px" y="0px"
	 viewBox="0 0 180 130" style="enable-background:new 0 0 180 130;" xml:space="preserve">
<style type="text/css">
	.st0{fill:#505A78;fill-opacity:0.2;}
	.st1{fill:#FFFFFF;}
	.st2{fill:#F79C82;}
	.st3{fill:#505A78;}
	.st4{fill:#EDEEF1;}
	.st5{filter:url(#Adobe_OpacityMaskFilter);}
	.st6{mask:url(#b);fill:#EDEEF1;}
	.st7{fill:#DCDEE4;}
	.st8{fill:#B2EBC0;}
	.st9{opacity:0.2;}
	.st10{fill:#B3D8F7;}
</style>
<title>Page 1</title>
<g>
	<path class="st0" d="M117.5,15.7c-0.4-2.4-0.7-6.8-2-8.8c0.2,0.4-2.9-3.7-2.8-2.2c-0.2-2.2-4.1-1.9-3.9,0.3c0,0.2,0,0.5,0.1,0.7
		c0.1,0.6,0.5,1.2,1.1,1.4c4.6,1.9,4.1,12.9,4.5,17c0.4,3.4,0.8,6.7,1,10.1c0.4,5.6,2.9,10.7-1.8,12.6c-11.2,4.6-39.1,3.6-39.1,3.6
		s1.9,4.5,4.2,3.7c4.1-1.4,10.3-0.8,14.6-1.2c5.2-0.5,10.4-0.7,15.5-1.4c5.1-0.7,10.9-0.7,10.9-6.5C119.9,36,118.7,23.8,117.5,15.7"
		/>
	<path class="st1" d="M105.5,42.1L86,43.7c-0.1,0-0.2-0.1-0.2-0.1l-1.5-17.9c0-0.1,0.1-0.2,0.1-0.2l19.4-1.6c0.1,0,0.2,0.1,0.2,0.1
		l1.5,17.9C105.6,42,105.5,42.1,105.5,42.1"/>
	<path class="st2" d="M102.2,28.6c-0.5-0.5-1.6-0.6-2.8-0.7c-2.8,0-10.4,0.7-10.8,0.7c-1.9,0.2-2.4,2.1,0.4,1.9
		c0.3,0,6.9-0.2,10.5-0.8C101.3,29.5,102.6,29.1,102.2,28.6 M102.5,33.2c-0.5-0.5-1.6-0.6-2.8-0.7c-2.8,0-10.4,0.7-10.8,0.7
		c-1.9,0.2-2.4,2.1,0.4,1.9c0.3,0,6.9-0.2,10.5-0.8C101.6,34,103,33.6,102.5,33.2 M102.9,37.7c-0.5-0.5-1.6-0.6-2.8-0.7
		c-2.8,0-10.4,0.7-10.8,0.7c-1.9,0.2-2.4,2.1,0.4,1.9c0.3,0,6.9-0.2,10.5-0.8C102,38.6,103.4,38.2,102.9,37.7"/>
	<path class="st3" d="M106.1,40.4c-0.4-5.9-0.7-9.7-0.9-12.2c-0.1-1.3-0.2-2.2-0.2-3l0-0.6c0-0.3,0-0.6-0.1-0.9
		c-0.1-0.2-0.2-0.4-0.4-0.5c-0.2-0.1-0.4-0.2-0.6-0.1l-6.4,0.5c-1.4,0.1-3.1,0.2-5.3,0.4c-1.1,0.1-2.3,0.2-3.7,0.3l-2.2,0.2L85,24.6
		c-0.4,0-0.9,0-1.1,0.3c-0.3,0.2-0.4,0.5-0.4,0.9c0-0.3,0-0.2,0,0.1l0.1,1l0.9,9.8l0.4,4l0.2,1.8l0,0.5c0,0.3,0,0.6,0.1,0.8
		c0.1,0.2,0.2,0.4,0.4,0.5c0.2,0.1,0.4,0.2,0.6,0.2l14.9-1.3l4.5-0.5l-0.1-1.5l-4.5,0.4l-14.2,1.2l-1.4-16.4c-0.6,0,1.5-0.1,2.9-0.3
		l15.1-1.3c0,0,0,0,0,0l0.1,1l0.2,2.1c0.1,1.4,0.2,2.6,0.3,3.8l0.5,5.7c0.1,1.5,0.2,2.6,0.3,3.4l0.1,0.9c0,0.1,0,0.1,0,0.2l0,0l0,0
		v0l0,0l0.7-0.1h0v0l-0.1-0.7l0.1,1.5c0.3,0,0.7-0.3,0.7-0.6c0-0.2,0-0.2,0-0.3l0-0.1l0-0.4L106.1,40.4L106.1,40.4z"/>
	<path class="st3" d="M89.4,23.6c0.5-0.7,0.6-2.4,0.6-4.1c0-0.8,0.3-2.1,1.4-2.9c1-0.9,2.6-1.2,3.8-0.6c1.3,0.5,2,1.7,2.2,2.6
		c0.1,0.4,0.1,1,0.2,1.3l0.1,0.7c0.2,2.8,2.2,3.7,1.9-0.5l0-0.6l0-0.6c0-0.2,0-0.5-0.1-0.8c-0.2-1.2-1.1-2.9-2.9-3.9
		c-1.7-1-4.2-0.9-5.9,0.4c-1.8,1.2-2.6,3.3-2.4,5C88.5,22.2,89,24.2,89.4,23.6"/>
	<path class="st3" d="M100.7,52.6c3.9-0.3,8-0.7,11.7-1c0.9-0.1,1.8-0.1,2.8-0.3c0.9-0.2,1.8-0.6,2.5-1.1c1.4-1,2.1-2.3,2.5-3.2
		c0.2-0.5,0.3-1.1,0.4-1.7c0.1-0.6,0-1.2,0-1.7l-0.3-3l-0.6-5.8l-1.1-11.3c-0.4-3.7-0.7-7.5-1.1-11.3l-0.3-2.9
		c-0.1-1.1-0.5-2.3-1.1-3.2c-1.2-2-3.5-3.3-5.9-3.4c-0.3,0-0.6,0-0.9,0l-0.8,0.1l-1.5,0.1L104.1,3l-6.1,0.5L85.6,4.7l-6.2,0.6
		l-3.1,0.3l-1.5,0.2c-0.6,0.1-1.2,0.2-1.8,0.4c-2.4,0.8-4.2,2.9-4.8,5.3C68,12,68,12.7,68,13.3c0,0.7,0.1,1.1,0.1,1.6
		c0.1,1,0.2,2,0.3,3c0.8,7.8,2,18.5,2.8,26.2c0.1,0.6,0.2,1.5,0.3,2.5l0.2,1.6c0,0.5,0.2,1.3,0.4,2c0.5,1.4,1.4,2.7,2.8,3.7
		c1.3,0.9,3.1,1.4,4.8,1.2l10.9-1.2c2.6-0.3,3.4-2.3-0.5-1.9l-3.9,0.4c-1.6,0.2-3.4,0.3-5.2,0.5l-1.4,0.1c-0.5,0-0.8,0.1-1.2,0
		c-0.8-0.1-1.5-0.3-2.2-0.7c-1.3-0.8-2.2-2.2-2.4-3.5c-0.1-0.3-0.1-0.8-0.1-1.2l-0.1-1.2l-0.2-2.2l-0.5-5.4c-0.4-4.9-0.9-9.5-1.3-14
		l-0.7-6.6l-0.3-3.2c-0.1-1.2-0.2-2,0-2.9c0.4-1.8,1.8-3.2,3.6-3.7c0.8-0.2,2-0.3,3.1-0.4l3.3-0.3c4.4-0.4,9-0.8,13.9-1.2
		c4.8-0.4,9.7-0.8,14.6-1.3c0.7-0.1,1.1-0.1,1.6-0.1c0.5,0.1,0.9,0.2,1.4,0.3c0.9,0.4,1.6,1,2.2,1.8c0.3,0.4,0.4,0.8,0.6,1.3
		c0.1,0.2,0.1,0.5,0.1,0.7c0,0.2,0.1,0.6,0.1,0.9l0.4,3.7c1,9.8,2,19.6,2.9,29.2c0,0.1,0,0.4,0.1,0.9c0,0.4,0.1,0.9,0,1.5
		c-0.2,1.1-1,2.7-2.7,3.5c-0.4,0.2-0.9,0.3-1.3,0.4c-0.5,0.1-1.2,0.1-1.8,0.2l-3.9,0.4c-2.7,0.3-5.4,0.6-8,0.9
		c-2.4,0.4-4.3,0.9-3.7,1.3C97.5,52.5,99,52.7,100.7,52.6L100.7,52.6z"/>
	<path class="st4" d="M178,123.4c0,1.4-8.8,2.5-19.6,2.5c-10.8,0-19.6-1.1-19.6-2.5c0-1.4,8.8-2.5,19.6-2.5
		C169.2,120.9,178,122,178,123.4"/>
	<g transform="translate(136 116.774)">
		<defs>
			<filter id="Adobe_OpacityMaskFilter" filterUnits="userSpaceOnUse" x="1.4" y="3" width="40.8" height="7.5">
				<feColorMatrix  type="matrix" values="1 0 0 0 0  0 1 0 0 0  0 0 1 0 0  0 0 0 1 0"/>
			</filter>
		</defs>
		<mask maskUnits="userSpaceOnUse" x="1.4" y="3" width="40.8" height="7.5" id="b">
			<g class="st5">
				<path id="a" class="st1" d="M42.2,3v7.5H1.4V3H42.2z"/>
			</g>
		</mask>
		<path class="st6" d="M41.8,6.5c0.1-0.1,0-0.4-0.2-0.7c-0.2-0.2-0.5-0.5-0.8-0.6c-0.7-0.4-1.5-0.7-2.4-0.9c-3.3-0.8-7.3-0.9-8.8-1
			C25.9,3,22.7,3,19.4,3c-3.3,0.1-6.5,0.2-10.1,0.4C8.4,3.5,7.5,3.6,6.6,3.8C6.1,3.8,5.1,4,4.4,4.2C3.6,4.4,2.9,4.7,2.4,5
			C1.9,5.3,1.6,5.6,1.5,6L1.4,6.4c-0.1,0.1,0,0.3,0,0.4c0.1,0.3,0.1,0.5,0.2,0.7c0.2,0.4,0.5,0.7,1.2,1C3.4,8.8,4.2,9.1,5,9.2
			c0.4,0.1,0.8,0.2,1.2,0.3L7,9.6l1.4,0.2c0.9,0.1,1.8,0.2,2.7,0.3c1.8,0.2,3.6,0.3,5.3,0.3c3.4,0.1,8.1,0,11.4-0.2
			c1.7-0.1,6.7-0.5,10-1.1c1.1-0.2,1.8-0.3,2.3-0.5c0.7-0.2,1.3-0.5,1.7-1C42,7.5,42.2,7.2,42.2,7c0-0.2-0.1-0.4-0.3-0.4
			c-0.1,0-0.3,0-0.3,0c0,0-0.2-0.1-0.2-0.1c-0.1,0-0.1-0.1-0.2-0.1c-0.3,0-0.9,0.1-1.9,0.3C39,6.8,38.4,6.9,37.5,7
			c-1.8,0.3-4.6,0.6-7,0.7c-2.4,0.1-4.5,0.2-5,0.2c-4.2,0-7.9,0-11.6-0.2C12,7.6,10.2,7.4,8.3,7.2C7.9,7.1,7.4,7,6.9,6.9
			C6.7,6.9,6.6,6.9,6.5,6.8C6.4,6.8,6.2,6.7,6.3,6.6c0.2-0.1,0.4-0.1,0.5,0c0,0,0,0,0.1,0l0,0l0.2,0l0.4-0.1L9,6.3
			c2-0.2,4.1-0.4,6.2-0.5c4.2-0.2,8.4-0.3,12.5-0.1c0.3,0,6,0.2,10.2,0.6c1.3,0.1,2.4,0.3,3,0.4c0.2,0,0.3,0,0.3,0c0,0,0.1,0,0.1,0
			c0-0.1,0.2-0.1,0.2-0.1C41.7,6.6,41.6,6.6,41.8,6.5"/>
	</g>
	<path class="st1" d="M171.8,123H145c-1.1,0-2-0.9-2-2V88.3c0-1.1,0.9-2,2-2h26.8c1.1,0,2,0.9,2,2V121
		C173.8,122.1,172.9,123,171.8,123"/>
	<path class="st3" d="M172.6,123.6c0.2,0,0.3-0.1,0.5-0.2l0.2-0.1l0.1-0.1c0.1,0,0,0,0.2-0.1c0.4-0.3,0.6-0.7,0.8-1.1
		c0.2-0.4,0.2-1,0.2-1.3l0.1-3.9c0.1-2.5,0.1-4.6,0.1-5.8c0-4.3,0.2-8.4,0.2-12.4c0-2.1,0-4.1,0-6.2l0-3.1l0-0.8c0-0.1,0-0.3,0-0.5
		c0-0.2-0.1-0.4-0.1-0.6c-0.3-0.8-0.8-1.5-1.6-1.9c-0.4-0.2-0.8-0.3-1.2-0.3l-0.3,0h-0.2l-0.4,0l-1.5,0l-3.1,0.1
		c-2.1,0.1-4.2,0.1-6.3,0.1c-3.2-0.1-6.5-0.4-9.8-0.4c-1.6,0-3.3,0.1-4.9,0.1l-0.6,0c-0.3,0-0.7,0.1-1,0.2c-0.7,0.2-1.2,0.6-1.6,1.2
		c-0.4,0.5-0.6,1.2-0.7,1.9l0,1.3l0,9.8c0,3.3-0.1,6.4-0.1,9.6c0,3.1,0.2,7,0.2,10.7l0,1.4c0,0.7,0.3,1.4,0.7,2
		c0.5,0.5,1.1,0.9,1.8,1.1c0.2,0,0.3,0.1,0.5,0.1h1l5.1,0c2.1,0,7,0,11.9,0c2.5,0,5.3-0.1,7.4-0.2l1.6-0.1v-1.6c-0.3,0-0.7,0-1.6,0
		l-9.8,0l-13.6,0l-1.4,0l-0.4,0c-0.1,0-0.1,0-0.2,0c-0.1,0-0.2-0.1-0.3-0.1c-0.2-0.1-0.4-0.3-0.5-0.5c0-0.1-0.1-0.2-0.1-0.3l0-0.6
		l0-5.3c0-3.7,0.1-7.3,0.1-10.8c0-3.6-0.1-7.1-0.1-10.8l0-2.6l0-1.3l0-0.7l0-0.3c0-0.1,0-0.2,0-0.3c0.1-0.4,0.4-0.8,0.8-0.8
		c0.9,0,1.8,0,2.6,0.1c3.9,0.1,7.8,0,11.8,0c3.9,0,7.8,0.1,11.7,0.1l0.7,0c0.2,0,0.2,0,0.3,0c0.1,0,0.3,0.1,0.4,0.3
		c0.2,0,0.1,1.4,0.2,2.3c0.1,2,0.1,3.9,0.1,5.9c0,3.9-0.4,7.8-0.4,11.7c0,1.9,0.2,4.8,0.2,10c0,0.8,0,1.6,0.1,2.5l0,0.6
		c0,0.2,0,0.2,0,0.3c0,0.2-0.1,0.3-0.2,0.5c-0.1,0.2-0.3,0.3-0.6,0.4v1.6C172.1,123.7,172.4,123.7,172.6,123.6"/>
	<path class="st7" d="M168.7,96.1c-0.6-0.6-2.1-0.8-3.8-1c-3.8-0.2-14.2-0.2-14.7-0.2c-2.6,0-3.6,2.1,0.3,2.1
		c0.4,0,9.4,0.3,14.4,0.1C167.4,96.9,169.3,96.6,168.7,96.1 M168.7,105c-0.6-0.6-2.1-0.8-3.8-1c-3.8-0.2-14.2-0.2-14.7-0.2
		c-2.6,0-3.6,2.1,0.3,2.1c0.4,0,9.4,0.3,14.4,0.1C167.4,105.8,169.3,105.5,168.7,105 M168.7,113.9c-0.6-0.6-2.1-0.8-3.8-1
		c-3.8-0.2-14.2-0.2-14.7-0.2c-2.6,0-3.6,2.1,0.3,2.1c0.4,0,9.4,0.3,14.4,0.1C167.4,114.8,169.3,114.4,168.7,113.9"/>
	<path class="st3" d="M151.6,86.5c0.7-0.3,1.4-1.4,2.1-2.7c0.7-1.5,1.7-4.5,2.5-7.1c0.8-2.7,1.3-5,1.3-5.3c0.2-1.1-0.2-2-0.7-2.2
		c-0.5-0.1-1.1,0.4-1.4,2c0,0.2-0.5,2.1-1.3,4.5c-0.8,2.4-1.7,5.3-2.3,7.4C151.3,85.1,151,86.8,151.6,86.5 M161.8,70.5
		c-0.5,0.5-0.7,1.6-0.7,2.9c0.1,2.8,0.9,10.4,1,10.8c0.2,1.9,2.4,2.4,2.1-0.4c0-0.3-0.4-6.9-1-10.6
		C162.7,71.4,162.2,70.1,161.8,70.5 M175.4,67.6c0.5-0.7,0.7-2.4,0.5-4.3c-0.1-1-0.4-2-0.6-2.9c-0.3-0.9-0.6-1.6-0.8-2.1
		c-0.8-2-2-3.6-3.4-5l-1.1-1l-1.2-0.9l-0.6-0.4l-0.7-0.4L166,50c-0.5-0.2-1-0.4-1.5-0.5c-0.5-0.2-1-0.4-1.6-0.4l-3.1-0.5l-1.4-0.2
		c-0.5-0.1-0.9-0.2-1.3-0.3c-0.9-0.2-1.7-0.6-2.5-0.9c-0.7-0.4-1.7-0.9-2.5-1.5l-0.6-0.5l-0.5-0.5c-0.4-0.3-0.7-0.7-1-1
		c-0.7-0.6-2.1-2.8-2.7-4.5c-0.3-0.9-0.5-1.6-0.7-2.1c-0.3-1.3-0.9-2.2-1.5-2.2c-0.5-0.1-1.1,0.9-0.5,3c0.1,0.4,0.3,1,0.6,2
		c0.4,1,1.1,2.6,1.9,3.9c0.8,1.3,1.6,2.2,1.9,2.4c1.7,1.9,3.7,3.2,5.9,4c0.5,0.2,1.1,0.3,1.6,0.5c0.6,0.1,1.1,0.3,1.7,0.4
		c1.1,0.2,2.4,0.4,3.4,0.6c2.2,0.4,4.2,1.2,6,2.3c1.8,1.2,3.3,2.8,4.2,4.8c0,0.1,0.4,0.8,0.8,1.7c0.4,1,0.9,2.2,1.3,3.4
		C174.6,66.2,174.9,68.2,175.4,67.6"/>
	<path class="st1" d="M158.4,44.2c-1.9-1.7-2.2-4.6-0.5-6.6c1.7-1.9,4.6-2.2,6.6-0.5c1.9,1.7,2.2,4.6,0.5,6.6
		C163.3,45.7,160.3,45.9,158.4,44.2"/>
	<path class="st3" d="M158.4,45.2c0.3,0.2,0.6,0.4,0.8,0.5c1,0.6,2.3,0.8,2.8,0.7c1.1,0,2.1-0.3,3-1c0.9-0.6,1.6-1.5,2-2.5
		c0.4-1,0.3-2.1,0.2-3.1c-0.1-0.8-0.1-1.7-0.6-2.5c-0.5-0.8-1.4-1.2-2.1-1.6c-0.7-0.5-1.6-0.7-2.4-0.8c-0.8-0.1-1.7-0.2-2.5,0.1
		c-0.8,0.3-1.6,0.9-2.3,1.6c-0.6,0.7-1.1,1.5-1.3,2.3c-0.2,0.5-0.5,1.7-0.1,2.9c0.1,0.6,0.5,1.2,0.8,1.6c0.4,0.7,0.9,1.1,1.2,1.4
		l1-1.2c-0.2-0.2-0.4-0.4-0.8-1c-0.2-0.3-0.4-0.9-0.5-1.5c-0.1-1.1,0.4-2,0.5-2.1c0.3-0.5,0.8-0.9,1.2-1.3c0.5-0.3,1.1-0.4,1.7-0.5
		c0.6-0.1,1.2-0.1,1.7,0.2c0.5,0.2,0.9,0.7,1.2,1.2c0.3,0.5,0.7,1,0.8,1.6c0.1,0.6,0,1.2-0.2,1.7c-0.2,0.5-0.3,1.2-0.7,1.6
		c-0.5,0.4-1.2,0.4-1.7,0.5c-0.2,0.1-0.6,0.3-1.4,0.3c-0.2,0-0.5,0-0.8,0c-0.3-0.1-0.7-0.2-1-0.4l-1.1,1.2
		C158.1,44.9,158.3,45,158.4,45.2"/>
	<path class="st8" d="M160.7,49.5c-4.5-0.4-8.5,3.4-8.9,8.4l-1.2,14c-0.1,0.6,0.4,1.1,1,1.2l14.1,1.2c0.6,0.1,1.1-0.4,1.2-1l1.2-14
		C168.5,54.3,165.2,49.9,160.7,49.5"/>
	<path class="st3" d="M161.2,50.3c0.3,0,0.5,0.1,0.7,0.2c1.2,0.4,2.2,1.1,2.9,1.8c0.7,0.7,1.1,1.5,1.3,1.9c0.5,0.9,0.8,1.9,0.9,2.9
		c0.1,1,0,1.9-0.1,3c-0.2,2.3-0.4,4.5-0.6,6.7c-0.1,1.1-0.1,2.2-0.2,3.3c0,0.6-0.1,1.1-0.1,1.7l-0.1,0.9c0,0.2,0,0.2-0.1,0.3
		c-0.1,0.1-0.3,0.1-0.4,0c-1.2-0.2-2.4-0.5-3.6-0.6c-1.8-0.2-3.6,0-5.4-0.2l-2.7-0.2l-1.3-0.1l-0.5,0c0,0-0.1,0-0.1,0
		c-0.1-0.1-0.1-0.2-0.1-0.2c0,0,0,0,0-0.1l0-0.3l0.1-0.6c0.1-0.9,0.2-1.7,0.3-2.6c0.1-1.7,0.2-3.8,0.3-5.8c0.1-1,0.1-2,0.2-3
		c0-0.5,0.1-1,0.1-1.4c0-0.4,0.1-0.8,0.2-1.2c0.2-1,1.1-3.3,3-4.8c0.9-0.7,2.2-1.3,3.2-1.5c0.6-0.1,1-0.1,1.4-0.1l0.1-1.6
		c-0.3,0-0.8-0.1-1.8,0c-0.6,0.1-1.6,0.3-2.5,0.7c-1,0.4-1.9,1.1-2.7,1.9c-1.4,1.3-2.2,3.1-2.6,4.5l-0.2,1l-0.1,0.8l-0.1,0.9
		c-0.2,2.1-0.4,4-0.5,5.9c-0.2,2-0.4,3.9-0.6,5.9l-0.1,1.7c0,0.8,0.5,1.6,1.2,1.9c0.4,0.2,0.8,0.2,1.2,0.2l0.7,0.1l1.5,0.1
		c1.9,0.2,3.8,0.5,5.8,0.8c1.7,0.2,3.5,0.3,5.3,0.5c0.7,0.1,1.4,0,1.9-0.4c0.4-0.3,0.7-0.6,0.9-1.1c0.1-0.2,0.1-0.4,0.2-0.7l0.1-0.6
		l0.2-1.6c0.1-1.1,0.2-2.1,0.3-3.2c0.2-2.1,0.1-4.3,0.3-6.4c0-0.5,0.1-1.1,0.2-1.6l0.1-0.8l0.1-0.9c0.1-1.2,0-2.4-0.4-3.6
		c-0.2-0.6-0.5-1.2-1.1-2.1c-0.6-0.8-1.4-1.8-2.8-2.8c-0.8-0.6-1.9-1-2.9-1.1c-0.5-0.1-1-0.1-1.5-0.1l-0.1,1.6
		C160.8,50.3,161,50.3,161.2,50.3"/>
	<g class="st9">
		<path class="st3" d="M168,60.4l-1.1,12.9c-0.1,0.6-0.6,1.1-1.2,1l-3.4-0.3c-0.6-0.1-1.1-0.6-1-1.2l1.6-19.1
			c0.1-0.9,1.1-1.3,1.8-0.8C166.9,54.6,168.3,57.4,168,60.4"/>
		<path class="st3" d="M167.8,60.3c0.6-0.6,0.9-2.4,0.2-4.3c-0.3-1-0.9-2-1.6-2.8c-0.2-0.2-0.3-0.3-0.6-0.6
			c-0.3-0.2-0.5-0.4-0.8-0.6c-0.5-0.3-0.9-0.4-1.3-0.4c-0.6,0-1.2,0.4-1.6,0.9c-0.4,0.5-0.4,1.1-0.5,1.7c-0.3,3.2-0.5,5.9-1,9.1
			c-0.3,1.9-0.5,3.8-0.7,5.7c-0.1,0.9-0.2,1.9-0.3,2.8l0,0.4c0,0.2,0,0.5,0,0.7c0,0.5,0.1,0.9,0.4,1.3c0.5,0.8,1.3,1.2,2.3,1.2
			c0.3,0,0.6,0,0.8,0.1c0.5,0,1,0.1,1.6,0.1l0.4,0c0.3,0,0.6,0.1,0.8,0c0.5-0.1,1-0.3,1.4-0.7c0.4-0.4,0.6-0.8,0.7-1.4
			c0-0.2,0.1-0.6,0.1-0.7l0-0.4l0.1-1.6c0-1,0.1-3.8,0.2-5.7l0.2-2.3c0.2-2.8-1.8-4.1-2.1,0.1c0,0.4-0.1,1-0.2,2l-0.6,7l-0.1,0.7
			c0,0.1,0,0.1,0,0.1c-0.1,0.1-0.2,0.1-0.3,0.1l-2.7-0.2c-0.1,0-0.3-0.1-0.3-0.2c0,0,0-0.1,0-0.1l0-0.3l0.1-0.9
			c0.1-1.2,0.3-2.5,0.5-3.8c0.7-4.3,0.8-8.8,1.3-13c0,0,0,0,0,0c0,0,0,0,0,0c0,0,0,0,0,0c0.1,0.1,0.2,0.2,0.3,0.3
			c0.2,0.2,0.4,0.4,0.6,0.6c0.4,0.4,0.7,0.9,1,1.4C167.3,58.8,167.2,60.9,167.8,60.3"/>
	</g>
	<path class="st3" d="M108.4,59.5c-0.3,0.8,0,2.4,0.2,4.2c-0.1,0.9,0.2,1.8,0.2,2.2c0.1,1.7,0.3,3.2-0.1,4.9
		c-0.2,0.8-0.3,1.7-0.6,2.5c-0.2,0.8-0.4,1.6-0.6,2.4c-0.1,0.4-0.3,0.8-0.4,1.3c-0.2,0.4-0.3,0.9-0.4,1.3c-0.2,0.4-0.7,1.5-1.1,2.1
		c-0.6,0.7-1,1.3-1.4,1.6c-2,1.7-1.7,4.3,1.7,1.3l1.4-1.6c0.4-0.4,0.7-1.1,1.1-1.6l0.5-0.8l0.2-0.4c0.3-0.5,0.5-1,0.7-1.5
		c0.2-0.5,0.3-1,0.4-1.5c0.3-1,0.4-2,0.9-3.1c0.7-2.2,0.3-4.6,0.2-6.8c0-0.1-0.2-1.6-0.7-2.7C109.8,60.6,108.6,58.7,108.4,59.5
		 M84,61.4c-0.7,0.5-1.2,2.2-1.3,4.1c-0.2,0.9-0.1,1.9-0.1,2.4c-0.1,1.9,0.3,3.5,0.5,5.4c0.1,0.5,0.1,1,0.2,1.4
		c0.1,0.5,0.3,0.9,0.4,1.4c0.2,1,0.7,1.8,1.1,2.7c0.2,0.4,0.5,0.9,0.8,1.3c0.3,0.4,0.6,0.9,0.9,1.3c0.3,0.3,1.2,1.4,1.8,2
		c0.8,0.8,1.2,1.4,1.7,1.7c2.3,2,4.2,0.9,1.2-1.7C91,83.1,90.7,82.7,90,82c-0.3-0.3-0.7-0.9-1.1-1.4c-0.4-0.5-0.7-0.9-0.7-1
		c-0.4-1-1-1.7-1.4-2.6c-0.2-0.4-0.4-0.8-0.6-1.3c-0.1-0.5-0.2-0.9-0.3-1.5c-0.2-2.1-1-4.1-0.9-6.2c0-0.1-0.1-1.5-0.4-2.6
		C84.5,62.9,84.6,60.9,84,61.4"/>
	<path class="st4" d="M84.5,122.4c0,1.9,5.2,3.4,11.7,3.4c6.4,0,11.7-1.5,11.7-3.4c0-1.9-5.2-3.4-11.7-3.4
		C89.7,119,84.5,120.5,84.5,122.4"/>
	<path class="st4" d="M84.3,122.3c0.3-0.4,0.8-0.6,1.4-0.9c0.6-0.2,1.4-0.4,2.3-0.6c1.8-0.3,4.1-0.7,4.9-0.7c2-0.1,3.9-0.1,5.7,0
		c1.8,0.1,3.7,0.4,5.5,1.1c0.6,0.2,1.3,0.5,1.7,0.8c0.1,0.1,0.2,0.2,0.3,0.2c0.1,0.1,0.1,0.1,0.1,0.1c0,0,0,0.1,0,0.1c0,0,0,0,0,0
		c0,0-0.1,0.1-0.2,0.1l-0.3,0.2c-0.5,0.2-1,0.4-1.6,0.6c-1.2,0.3-2.4,0.6-3.6,0.8c-1.9,0.3-4.5,0.5-6.4,0.5c-1,0-3.8-0.1-5.6-0.6
		c-1-0.2-1.6-0.5-2-0.7c-0.6-0.3-1-0.4-1.3-0.5c-0.3-0.1-0.6-0.3-0.8-0.3c-0.1,0-0.3,0-0.4,0.1c-0.1,0.1-0.2,0.4-0.1,0.8
		c0.2,0.7,0.9,1.5,2,2c0.4,0.2,1,0.4,2,0.7c1.1,0.3,2.8,0.6,4.3,0.8c1.5,0.2,2.8,0.2,3.1,0.2c2.5,0.1,4.7-0.1,6.9-0.5
		c1.1-0.2,2.2-0.5,3.3-0.9c0.6-0.2,1.1-0.4,1.8-0.8c0.3-0.2,0.6-0.4,1-0.8c0.4-0.4,0.6-0.8,0.7-1.4c0-0.1,0.1-0.2,0.1-0.3l-0.1-0.4
		c-0.1-0.5-0.3-1.1-0.7-1.5c-0.4-0.5-0.7-0.6-1.1-0.9c-0.7-0.4-1.3-0.7-2-0.9c-1.3-0.4-2.6-0.7-3.9-0.9c-2.6-0.3-5.2-0.3-7.7-0.3
		c-0.2,0-3.7,0.2-6.3,1.3c-1.3,0.5-2.5,1.2-3.1,2.2c-0.3,0.4-0.3,1-0.3,1.2C84.1,122.5,84.2,122.5,84.3,122.3"/>
	<path class="st1" d="M97.9,76.2c-2.6,0.3-4.9-1.6-5.2-4.2c-0.3-2.6,1.6-4.9,4.2-5.2c2.6-0.3,4.9,1.6,5.2,4.2
		C102.3,73.6,100.5,75.9,97.9,76.2"/>
	<path class="st3" d="M98.6,76.8c0.3-0.1,0.7-0.2,0.9-0.2c1.2-0.4,2.1-1.2,2.4-1.6c0.7-0.8,1.2-1.8,1.3-2.9c0.1-1.1,0-2.2-0.5-3.2
		c-0.4-1-1.3-1.6-2.2-2.3c-0.6-0.5-1.4-1.1-2.3-1.3c-0.9-0.2-1.8,0.2-2.6,0.4c-0.8,0.2-1.6,0.7-2.2,1.2c-0.6,0.6-1.3,1.1-1.6,1.9
		c-0.3,0.8-0.5,1.8-0.4,2.8c0.1,0.9,0.3,1.9,0.8,2.6c0.3,0.5,1,1.5,2.1,2.1c0.6,0.3,1.2,0.5,1.8,0.5c0.8,0.1,1.4,0.1,1.8,0l-0.2-1.6
		c-0.3,0-0.6,0.1-1.3-0.1c-0.3-0.1-1-0.3-1.5-0.7c-0.9-0.7-1.2-1.7-1.3-1.9c-0.2-0.6-0.2-1.2-0.1-1.8c0.1-0.6,0.4-1.1,0.8-1.6
		c0.3-0.5,0.7-0.9,1.3-1.2c0.5-0.2,1.2-0.2,1.7-0.1c0.6,0.1,1.2,0.2,1.7,0.5c0.5,0.3,0.8,0.8,1.1,1.3c0.3,0.5,0.7,1,0.7,1.7
		c0,0.7-0.6,1.1-0.8,1.6c-0.1,0.2-0.2,0.7-0.8,1.2c-0.2,0.2-0.4,0.4-0.6,0.5c-0.3,0.2-0.6,0.3-1,0.4l0.2,1.6
		C98.2,76.9,98.4,76.9,98.6,76.8"/>
	<path class="st7" d="M97.3,80c-5,0-9.1,4.5-9.1,10v15.6c0,0.6,0.5,1.2,1.2,1.2h15.8c0.6,0,1.2-0.5,1.2-1.2V90.1
		C106.4,84.5,102.3,80,97.3,80"/>
	<path class="st3" d="M97.9,80.8c0.3,0,0.5,0.1,0.7,0.1c1.3,0.3,2.6,0.9,3.4,1.7c0.9,0.7,1.4,1.5,1.7,2c0.6,1,1.1,2.1,1.3,3.2
		c0.1,0.5,0.2,1.1,0.2,1.6l0,0.8l0,0.9c0,2.5,0,5-0.1,7.5c0,1.2,0.1,2.4,0.1,3.7l0.1,1.9c0,0.3,0,0.6,0,1l0,0.3c0,0,0,0.1,0,0.1
		c-0.1,0.2-0.2,0.2-0.4,0.1c-1.4-0.1-2.7-0.3-4.1-0.3c-2,0-4,0.3-5.9,0.3l-3,0l-1.5,0l-0.6,0c-0.1,0-0.1,0-0.2,0
		c-0.1-0.1-0.1-0.2-0.1-0.3c0-1.4,0.1-2.8,0.1-4.2c0-1.9-0.2-4.2-0.2-6.5c0-1.1,0-2.2,0-3.3c0-1.1,0-2,0.1-2.9
		c0.1-1.1,0.9-3.8,3-5.5c1-0.9,2.3-1.6,3.4-1.9c0.6-0.2,1-0.2,1.4-0.2v-1.6c-0.3,0-0.8,0-1.8,0.2c-0.7,0.1-1.7,0.4-2.7,1
		c-1,0.6-2,1.4-2.8,2.3c-1.4,1.6-2.2,3.5-2.5,5.1c-0.2,0.8-0.2,1.5-0.2,2c0,0.6,0,0.9,0,1c0,2.3,0,4.5,0,6.5c0,2.2-0.1,4.4-0.1,6.5
		l0,1.5c0,0.7,0.2,1.4,0.7,1.8c0.2,0.2,0.6,0.4,0.9,0.5c0.3,0.1,0.7,0.1,1,0.1c0.8,0,1.7,0,2.6,0c2.1,0,4.2,0.2,6.5,0.3
		c2,0.1,4,0,5.9,0c0.6,0,1.4-0.1,1.9-0.5c0.4-0.3,0.7-0.8,0.8-1.3c0.1-0.3,0.1-0.5,0.1-0.8l0-0.5l0-1.8c0-1.2,0.1-2.4,0-3.5
		c0-2.4-0.3-4.7-0.3-7.1c0-1.2,0.1-2.3,0.1-3.7c0-1.3-0.3-2.7-0.8-3.9c-0.3-0.6-0.7-1.3-1.4-2.2c-0.7-0.8-1.7-1.9-3.3-2.7
		c-1-0.6-2.1-0.9-3.2-1c-0.5,0-1,0-1.5,0v1.6C97.5,80.8,97.7,80.8,97.9,80.8"/>
	<path class="st3" d="M91.5,123c0.6-0.4,1-1.6,1.3-2.8c0.3-1.5,0.6-4.2,1-6.7c0.4-2.4,0.8-4.5,0.8-4.7c0.4-1.9-1.4-3.2-2.1-0.2
		c0,0.1-0.5,2-0.9,4.3c-0.4,2.3-0.8,5.1-0.8,7.1C90.7,121.9,90.9,123.4,91.5,123"/>
	<g class="st9">
		<path class="st3" d="M106.4,91.4v14.2c0,0.6-0.5,1.2-1.2,1.2h-3.9c-0.6,0-1.2-0.5-1.2-1.2V84.4c0-0.9,1-1.5,1.8-1
			C104.6,85.1,106.4,88,106.4,91.4"/>
		<path class="st3" d="M106.2,91.3c0.6-0.6,0.7-2.4,0-4.3c-0.4-1.1-1.2-2.2-2-3c-0.4-0.4-0.8-0.7-1.2-1c-0.6-0.3-1-0.7-1.4-0.7
			c-0.8-0.1-1.5,0.2-2,0.8c-0.2,0.3-0.4,0.6-0.4,1c-0.1,0.3,0,0.8-0.1,1.1c-0.1,3.5,0,6.6-0.2,10.1c-0.1,2.1-0.2,4.2-0.2,6.3
			c0,1.1,0,2.1,0,3.1l0,0.9c0,0.5,0.1,1,0.4,1.4c0.5,0.9,1.5,1.3,2.5,1.2l1.2,0c0.5,0,1.1,0,1.8,0l0.6,0c0.3,0,0.6,0,0.9-0.1
			c0.6-0.2,1.1-0.6,1.4-1.1c0.3-0.5,0.4-1.1,0.4-1.7l0-0.9l-0.1-1.8c-0.1-1.1-0.2-4.3-0.2-6.4l0-2.3c0-2.8-2.1-3.9-2.1,0.3v2l0,7.9
			c0,0.6,0,1.5,0,1.3c0,0.1-0.2,0.2-0.3,0.2c-1.1,0-2.2,0-3.3,0.1c-0.1,0-0.3,0-0.3-0.2c0,0,0-0.1,0-0.1l0-0.5l0-1
			c0-1.3,0.1-2.7,0.2-4.1c0.4-4.8,0.1-9.8,0.2-14.6c0-0.1,0-0.1,0-0.1v0c0,0,0,0,0,0l0,0c0,0,0,0,0,0l0.2,0.1
			c0.9,0.6,1.9,1.6,2.5,2.7C105.6,89.8,105.6,91.9,106.2,91.3"/>
	</g>
	<path class="st3" d="M100.8,123c0.6-0.4,1-1.5,1.3-2.8c0.2-1.5,0.4-4.3,0.4-6.8c0-2.5-0.3-4.7-0.3-4.9c-0.1-1.1-0.8-1.7-1.3-1.6
		c-0.5,0-0.9,0.7-0.8,2.1c0,0.1,0.1,1.9,0.1,4.2c0,2.3-0.2,5-0.2,6.9C100.1,121.9,100.2,123.4,100.8,123"/>
	<path class="st4" d="M42,30.6l-0.7-3.7c-0.2-1-1.2-1.7-2.2-1.5l-18.2,3.4l-0.5-2.6c-0.2-1-1.2-1.7-2.2-1.5L3.7,27.2
		c-1,0.2-1.7,1.2-1.5,2.2l1.5,7.9L42,30.6L42,30.6z"/>
	<path class="st1" d="M45.4,48.4L7.5,55.8L3.9,37.3l37.9-7.4"/>
	<path class="st3" d="M6.9,37c0.7,0.4,2.2,0.4,3.9,0.2c7.3-1.1,15.7-2.8,19.1-3.4c1.9-0.3,3.8-0.7,5.7-1l2.8-0.5l1.4-0.2l0.6-0.1
		c0.1,0,0.2,0,0.3,0c0.2,0,0.4,0.2,0.6,0.4c0.1,0.2,0.2,0.3,0.3,0.9l0.5,2.7l1,5.3c0.3,1.8,0.6,3.5,1,5.3l0.1,0.7l0.1,0.3
		c0,0.1,0,0.1,0,0.2c0,0.2-0.1,0.4-0.2,0.6c-0.2,0.2-0.3,0.3-0.6,0.3L42,48.8l-11.1,1.9l-11.5,2l-5.8,1l-2.9,0.5l-1.4,0.3l-0.4,0.1
		c-0.2,0-0.2,0-0.2,0c-0.1,0-0.1,0-0.2,0c-0.1,0-0.3-0.2-0.3-0.3c0,0,0-0.1,0-0.1L8,54l-0.1-0.7l-0.5-2.9l-1.1-5.8
		C5.6,40.8,4.9,37,4.2,33.2l-0.5-2.9l-0.1-0.7l-0.1-0.4c0-0.1,0-0.1,0-0.1c0-0.2,0.1-0.3,0.2-0.4c0.1-0.1,0.1-0.1,0.2-0.1
		c0,0,0,0,0.1,0l0,0l0.1,0l0.4-0.1L6,28.1l3.2-0.6l6.4-1.2l1.5-0.3c0.3,0,0.5-0.1,0.8-0.1l0.4-0.1c0.1,0,0.1,0,0.2,0
		c0.2,0,0.4,0.1,0.5,0.2c0.1,0.1,0.1,0.1,0.2,0.2c0,0.1,0.1,0.1,0.1,0.4l0.2,0.9l0.2,1.1l0.2,0.8l0.1,0.5c0,0.3,0.2,0.1,0.4,0.1
		c2.8-0.5,8-1.5,13.2-2.6l3.7-0.7c0.6-0.1,1.2-0.2,1.8-0.3c0.3-0.1,0.4-0.1,0.6-0.1c0.1,0,0.2,0,0.2,0l0.1,0
		c0.4,0.1,0.6,0.5,0.6,0.8c0.2,1.3,0.9,2.1,1.4,2.1c0.2,0,0.5-0.2,0.6-0.6c0-0.2,0.1-0.5,0.1-0.8c0-0.2,0-0.4,0-0.6
		c0-0.1,0-0.2,0-0.3c0-0.1-0.1-0.3-0.1-0.5c-0.2-0.6-0.8-1.5-1.8-1.8l-0.1,0c-0.1,0-0.2-0.1-0.3-0.1c-0.2,0-0.4-0.1-0.6,0
		c-0.5,0-0.7,0.1-1,0.1l-1.7,0.3L33,25.4l-11.3,2.1c0,0,0,0-0.1-0.1l0-0.1c0-0.1,0-0.3-0.1-0.4l-0.1-0.8c0-0.2-0.1-0.7-0.3-1
		c-0.6-1.3-1.9-1.8-2.8-1.7c-0.5,0-0.7,0.1-0.9,0.1l-0.6,0.1c-0.3,0.1-0.5,0.1-0.7,0.1L9.5,25c-1.1,0.2-2.2,0.4-3.2,0.6
		c-0.5,0.1-1.1,0.2-1.6,0.3l-0.8,0.1l-0.4,0.1c-0.2,0-0.4,0.1-0.6,0.2c-0.8,0.3-1.4,1-1.7,1.7C1,28.4,1,28.9,1,29.3
		c0,0.5,0.1,0.6,0.1,0.9l0.6,3.1c0.4,2,0.8,4.1,1.1,6.1c0.7,4,1.5,8.1,2.3,12.2l0.3,1.6L5.6,54l0.1,0.4l0,0.2c0,0.1,0,0.2,0.1,0.3
		c0.2,0.8,0.8,1.5,1.6,1.9C7.7,56.9,8.2,57,8.6,57C8.8,57,9,57,9.2,57l0.4-0.1l6.7-1.1c9.1-1.5,18.3-3.2,27.5-4.9
		c0.9-0.2,1.9-0.8,2.3-1.7c0.2-0.4,0.4-0.9,0.4-1.4c0-0.2,0-0.5-0.1-0.7l-0.1-0.4l-0.6-3.4l-1.3-6.9l-0.6-3.4l-0.1-0.4
		c0-0.2-0.1-0.5-0.2-0.7c-0.2-0.5-0.5-0.9-0.8-1.2c-0.7-0.7-1.8-1-2.7-0.8L33.1,31c-0.8,0.1-13.1,2.4-22.6,4.4
		C8.1,36,6.3,36.7,6.9,37"/>
	<path class="st4" d="M45.6,122.8c0,1.7-4.6,3-10.2,3c-5.6,0-10.2-1.3-10.2-3s4.6-3,10.2-3C41,119.8,45.6,121.2,45.6,122.8"/>
	<path class="st4" d="M45.4,122.8c0.3-0.3,0-1.1-0.6-1.6c-0.6-0.6-1.4-1-2.4-1.3c-1.6-0.7-3.7-0.8-4.5-0.9c-1.8-0.2-3.5-0.2-5.2-0.1
		c-1.7,0.1-3.3,0.3-5.2,0.7c-0.5,0.1-0.9,0.3-1.4,0.5c-0.2,0.1-0.5,0.2-0.7,0.4c-0.3,0.1-0.6,0.5-1,0.7c-0.3,0.3-0.5,0.7-0.6,1
		c-0.1,0.2-0.1,0.4-0.1,0.6c0,0.2,0,0.4,0.1,0.6c0,0.2,0.1,0.4,0.2,0.6c0.1,0.2,0.2,0.4,0.3,0.5c0.1,0.2,0.3,0.3,0.5,0.5
		c0.2,0.1,0.3,0.3,0.5,0.4c1,0.7,2,0.9,2.9,1.2c0.9,0.2,1.9,0.4,2.8,0.5c1.8,0.2,4.2,0.2,5.9,0c0.9-0.1,3.5-0.4,5.1-0.9
		c1.1-0.3,1.8-0.5,2.4-0.8c0.7-0.3,1.3-0.9,1.5-1.5c0.2-0.6-0.1-1.1-0.3-1.1c-0.1,0-0.3,0-0.4,0.1c0,0-0.1,0-0.2,0
		c-0.1,0-0.1,0-0.2,0c-0.2,0-0.7,0.3-1.6,0.6c-0.3,0.1-0.8,0.3-1.7,0.5c-0.8,0.2-2.2,0.4-3.4,0.5c-1.2,0.1-2.2,0.1-2.4,0.1
		c-2-0.1-3.9-0.2-5.6-0.4c-0.9-0.2-1.7-0.4-2.5-0.7c-0.2-0.1-0.4-0.2-0.5-0.3c-0.1,0-0.2-0.1-0.2-0.2c0,0-0.1,0-0.1-0.1
		c-0.1-0.1-0.1-0.2,0-0.2c0,0,0.1,0,0.1,0c0.1,0,0,0,0.2,0c0.3-0.2,0.8-0.3,1.2-0.5c0.9-0.3,1.9-0.5,2.8-0.6c2-0.3,4-0.4,6-0.3
		c0.2,0,2.9,0.1,4.9,0.4c1.2,0.2,2.2,0.6,2.7,0.8l0.3,0.1l0.2,0.1C45.2,122.8,45.3,122.9,45.4,122.8"/>
	<path class="st3" d="M17.1,64.1c-0.5,0.7-0.5,2.4-0.2,4.3c0.3,2.1,1.5,4.5,2,5.4c1.1,2.1,2.6,3.8,4.4,5c0.9,0.6,2,1.1,3.1,1.4
		c1.1,0.3,2.2,0.5,3.5,0.6c1.2,0.1,2.4,0,3.6-0.2l1.6-0.3c0.5-0.1,1-0.1,1.4-0.1c1.9,0,3.8,0.6,5.5,1.5c0.8,0.5,1.8,1.1,2.7,1.9
		c0.9,0.7,1.8,1.6,2.5,2.3c0.7,0.7,2.7,3.1,3.7,4.8c0.5,0.9,0.9,1.5,1.1,1.9c0.7,1.2,1.5,1.9,2,1.8c0.5-0.1,0.7-1.1-0.3-3
		c-0.2-0.4-0.5-0.9-1-1.8C52,88.5,51,87,50,85.7c-1-1.3-1.9-2.3-2.1-2.5c-1.8-2.1-3.9-3.6-6.2-4.6c-2.3-1-5-1.4-7.9-0.9
		c-2.4,0.4-4.8,0.6-7-0.1c-2.2-0.7-4-2.2-5.3-4.3c-0.1-0.1-0.5-0.8-1.1-1.8c-0.5-1-1.1-2.4-1.6-3.6C18,65.5,17.6,63.5,17.1,64.1
		 M52,112.6c-0.6-0.6-1.9-0.8-3.4-1.2c-0.4-0.1-0.9-0.2-1.4-0.4c-0.3-0.1-0.6-0.2-0.8-0.3l-0.9-0.4c-0.2-0.1-0.3-0.1-0.5-0.2
		l-0.4-0.3c-0.3-0.2-0.6-0.3-0.9-0.5c-0.5-0.4-1.1-0.9-1.5-1.4c-1.9-2-2.7-4.3-2.8-4.5c-0.4-1.1-1-1.7-1.6-1.7c-0.5,0-1,0.9-0.3,2.7
		c0.1,0.1,0.8,2.5,2.8,4.8c1,1.1,2.3,2.2,3.8,2.9c1.5,0.7,3,1.1,4.2,1.2c0.6,0,1.2,0.1,1.7,0c0.5-0.1,0.9-0.1,1.3-0.2
		C52,113.1,52.3,112.9,52,112.6"/>
	<path class="st1" d="M30.6,67.4c-0.6,2.6,1,5.3,3.6,5.9s5.3-0.9,5.9-3.6c0.7-2.6-0.9-5.3-3.6-5.9C33.9,63.2,31.3,64.8,30.6,67.4"/>
	<path class="st3" d="M31.5,67.1c0.1-0.2,0.2-0.4,0.3-0.6c0.5-0.8,1.3-1.2,1.6-1.3c0.7-0.3,1.4-0.4,2-0.3c0.7,0,1.3,0.3,1.9,0.6
		c0.5,0.3,1.2,0.7,1.5,1.4c0.2,0.5,0,1.1,0,1.6c0,0.5,0.2,1.1,0,1.6c-0.2,0.5-0.5,1-0.9,1.3c-0.4,0.4-0.9,0.5-1.4,0.6
		c-0.5,0.2-1.1,0.4-1.7,0.3c-0.6-0.1-1.2-0.3-1.6-0.6c-0.3-0.2-0.9-0.8-1.3-1.5c-0.2-0.4-0.4-0.8-0.5-1.2c-0.1-0.6,0-1,0-1.3
		l-1.6-0.4c-0.1,0.4-0.2,0.8-0.2,1.9c0,0.5,0.3,1.6,0.7,2.4c0.8,1.5,2.2,2.3,2.5,2.4c0.9,0.5,1.8,0.6,2.7,0.6c1,0,1.9-0.2,2.7-0.7
		c0.8-0.5,1.5-1.2,2-1.9c0.5-0.7,1-1.5,1.2-2.6c0.2-1.1,0-2.2-0.5-3.1c-0.4-1-1-1.9-1.9-2.6c-0.9-0.6-2-0.8-3-0.9
		c-1-0.1-2.2-0.4-3.2,0c-0.5,0.2-1.2,0.7-2.1,1.8c-0.3,0.3-0.5,0.8-0.6,1.2c-0.2,0.5-0.4,1.1-0.4,1.6l1.5,0.4
		C31.4,67.4,31.4,67.2,31.5,67.1"/>
	<path class="st10" d="M33.9,78.1c4.7-0.4,9,3.5,9.4,8.7l1.3,14.7c0.1,0.6-0.4,1.2-1.1,1.3l-14.9,1.3c-0.6,0.1-1.2-0.4-1.3-1.1
		l-1.3-14.7C25.7,83.1,29.1,78.5,33.9,78.1"/>
	<path class="st3" d="M33.2,77.5c-0.3,0-0.6,0.1-0.8,0.1c-1.5,0.3-2.9,1.1-3.9,2c-1,0.9-1.6,1.8-1.9,2.3c-0.7,1.2-1.1,2.5-1.4,3.7
		c-0.2,1.3-0.2,2.7-0.1,3.8l0.6,7.1c0.1,1.1,0.3,2.3,0.4,3.5l0.2,1.8c0,0.3,0.1,0.6,0.1,0.9c0,0.1,0,0.4,0.1,0.7
		c0,0.3,0.1,0.5,0.2,0.7c0.5,0.9,1.5,1.4,2.6,1.2c1.3,0,2.6,0,3.9-0.1c1.9-0.1,3.7-0.6,5.6-0.8c0.9-0.1,1.9-0.2,2.8-0.3l1.4-0.1
		l0.9-0.1c0.4,0,0.8-0.2,1.1-0.4c0.7-0.5,1-1.3,1-2.1l-0.1-1.5c0-0.9-0.1-1.8-0.2-2.7c-0.2-1.8-0.5-4-0.7-6.1L44.5,88
		c-0.1-0.5-0.1-1-0.2-1.5l-0.1-0.8L44.1,85c-0.2-0.6-0.5-1.7-1.2-2.8c-0.7-1.1-1.7-2.4-3-3.3c-1.3-0.9-3.1-1.5-4.4-1.5
		c-0.8,0-1.3,0-1.7,0.1L34,79c0.3,0,0.7,0,1.4,0c0.5,0.1,1.3,0.2,2.1,0.6c0.8,0.4,1.7,0.9,2.3,1.6c1.2,1.1,1.9,2.7,2.3,3.9
		c0.2,0.6,0.3,1.2,0.3,1.6c0.1,0.4,0.1,0.8,0.1,0.9c0.2,2.2,0.3,4.2,0.5,6.2c0.2,2.1,0.3,4.2,0.5,6.2l0.1,1.4c0,0.2,0,0.4-0.2,0.4
		c-0.1,0-0.1,0-0.3,0.1l-0.8,0.1l-1.6,0.1c-2,0.2-4,0.2-6.2,0.3c-1.8,0.1-3.7,0.3-5.6,0.5c-0.1,0-0.1,0-0.2,0c0,0-0.1-0.1-0.1-0.1
		c0-0.1,0,0,0-0.4l-0.1-1.7c-0.1-1.1-0.1-2.2-0.3-3.4c-0.2-2.2-0.7-4.4-0.9-6.7c-0.1-1.1-0.1-2.3,0-3.3c0.1-1,0.4-1.9,0.7-2.8
		c0.1-0.4,0.3-1,0.7-1.7c0.4-0.7,0.9-1.5,2-2.3c0.6-0.5,1.3-0.9,2.1-1.2c0.4-0.2,0.8-0.3,1.1-0.4l-0.1-1.6
		C33.6,77.4,33.4,77.5,33.2,77.5"/>
	<g class="st9">
		<path class="st3" d="M42.9,87l1.2,13.5c0.1,0.6-0.4,1.2-1.1,1.3l-3.6,0.3c-0.6,0.1-1.2-0.4-1.3-1.1l-1.8-20
			c-0.1-0.9,0.9-1.6,1.7-1.2C40.7,81.2,42.7,83.9,42.9,87"/>
		<path class="st3" d="M42.7,86.9c0.5-0.7,0.5-2.5-0.5-4.3c-0.5-1-1.3-1.9-2.1-2.6c-0.7-0.5-2.1-1.4-2.8-1.2
			c-0.7,0.1-1.3,0.5-1.6,1.1c-0.2,0.3-0.2,0.6-0.3,0.9c0,0.3,0,0.7,0,1c0.2,3.3,0.6,6.2,0.7,9.6c0.1,2,0.2,4,0.3,6l0.2,3
			c0,0.3,0,0.4,0.1,1c0.1,0.5,0.3,0.9,0.6,1.3c0.6,0.7,1.6,1.1,2.6,0.9l1-0.1l1.6-0.2l0.5-0.1c0.3,0,0.6-0.1,0.8-0.2
			c0.5-0.2,1-0.6,1.3-1.1c0.3-0.5,0.4-1.1,0.3-1.6l-0.1-1c-0.1-0.6-0.2-1.1-0.2-1.6c-0.1-1-0.5-4-0.8-6l-0.2-2.3
			c-0.3-2.8-2.5-3.7-2.1,0.5l0.2,2l0.6,7.4l0.1,0.9c0,0.2,0,0.2,0,0.2c0,0,0,0.1,0,0.1c0,0.1-0.1,0.2-0.2,0.2l-3,0.3
			c-0.1,0-0.3,0-0.4-0.2c0,0,0-0.1,0-0.1l0-0.4l-0.1-0.9c-0.1-1.3-0.2-2.6-0.2-4c0-4.6-0.7-9.2-1.1-13.8c0-0.1,0,0,0,0c0,0,0,0,0,0
			c0,0,0,0,0.1,0.1l0.2,0.1l0.3,0.2c0.2,0.2,0.5,0.3,0.7,0.5c0.5,0.4,0.9,0.8,1.2,1.3C42,85.5,42.2,87.6,42.7,86.9"/>
	</g>
	<path class="st3" d="M33.7,103.8c-0.3,0.1-0.8,0.5-1.2,1c-0.2,0.3-0.3,0.6-0.5,1c-0.1,0.4-0.3,0.7-0.4,1.1
		c-0.2,0.9-0.4,2.2-0.4,3.7c0,1.5,0,3.1,0.2,4.6c0.3,3,0.8,5.5,0.8,5.8c0.2,1.2,0.9,1.9,1.5,1.9c0.5,0,0.9-0.8,0.6-2.5
		c0-0.2-0.3-2.3-0.6-5c-0.2-2.7-0.3-5.9,0-8.1C33.7,105.1,34.3,103.6,33.7,103.8"/>
</g>
</svg>
