<svg xmlns="http://www.w3.org/2000/svg" viewBox="0 0 1000 278.838">
  <defs>
    <clipPath id="a">
      <path d="M45 11.08h98.748v27.463H45V11.08z"/>
    </clipPath>
  </defs>
  <g clip-path="url(#a)" transform="matrix(10.12 0 0 -10.12 -454.75 390.43)">
    <path d="M59.518 18.557l7.346 12.45c-.12.344-.257.68-.41 1.012L53.45 37.51 45.126 25.6c.03-.192.064-.385.102-.576z" fill="#faba0e"/>
    <path d="M91.656 17.067h-3.02c-.013 0-.022.003-.03.013l-2.604 3.175-2.604-3.175c-.007-.01-.02-.013-.03-.013h-2.417c-.016 0-.03.008-.036.022-.007.01-.003.026.006.038l3.835 4.708-3.793 4.664c-.01.013-.01.03-.004.043.006.01.02.022.032.022h3.023c.01 0 .023-.007.03-.02l2.28-2.827 2.326 2.83c.006.01.017.017.028.017h2.464c.014 0 .03-.013.034-.022.007-.014.004-.03-.005-.043l-3.596-4.32 4.11-5.052c.01-.012.013-.028.005-.04-.007-.013-.02-.02-.034-.02M108.01 24.892c-1.336 0-2.25-.81-2.514-2.224h4.554v.093c0 1.13-.834 2.132-2.04 2.132m4.385-3.67c-.005-.01-.018-.017-.033-.017h-6.914c.144-1.61 1.19-2.527 2.883-2.527 1.043 0 2.15.357 3.713 1.188.025.014.057-.01.057-.04l-.005-2.123c-.003-.02-.01-.03-.02-.033-1.456-.615-2.92-1.03-4.064-1.03-2.976 0-5.138 2.167-5.138 5.156 0 2.985 2.162 5.155 5.14 5.155 2.714 0 4.46-1.83 4.46-4.343 0-.407-.073-1.355-.077-1.386M126.443 28.526c-.85 0-1.538.68-1.538 1.514 0 .858.69 1.558 1.538 1.558.85 0 1.536-.7 1.536-1.558 0-.835-.688-1.514-1.537-1.514m-1.244-11.46c-.025 0-.04.016-.04.04v9.42c0 .02.013.034.03.038h2.5c.018-.004.03-.02.03-.037v-9.42c0-.025-.016-.04-.037-.04H125.2zM96.228 18.486c-.454 0-.914.063-1.442.204l.003 6.045c.62.197 1.16.29 1.694.29 1.73 0 2.892-1.275 2.892-3.174 0-2.044-1.236-3.364-3.148-3.364m.677 8.462c-.705 0-1.415-.126-2.16-.383h-2.488c-.02 0-.036-.02-.036-.038V11.08c.753.1 1.668.368 2.568 1.005l-.002 4.7c.61-.09 1.117-.145 1.605-.145 3.405 0 5.608 2.04 5.608 5.196 0 3.01-2.097 5.112-5.093 5.112M120.653 19.267c-.78-.407-1.473-.602-2.126-.602-1.542 0-2.466 1.088-2.466 2.913 0 2.108 1.18 3.474 3.004 3.474.503 0 .994-.122 1.59-.39v-5.395zm0 12.284v-4.93c-.73.21-1.372.307-2.02.307-2.963 0-5.198-2.233-5.198-5.2 0-2.948 1.973-5.088 4.686-5.088.94 0 1.824.234 2.858.766l-.004-.853c.683.132 1.467.406 2.242.955V32.56c-.76-.1-1.66-.355-2.563-1.01M136.373 19.287c-.754-.434-1.4-.644-1.975-.644-1.65 0-2.638 1.086-2.638 2.916 0 2.076 1.163 3.472 2.896 3.472.466 0 1.026-.177 1.717-.542v-5.203zm2.568 7.39c0 .06-.05.107-.108.107l-2.017-.004c-.062 0-.11-.05-.11-.11v-.34h-.05c-.93.407-1.73.598-2.51.598-2.793 0-4.984-2.318-4.984-5.284 0-2.998 1.96-5.005 4.878-5.005.777 0 1.78.05 2.714 1.13v-1.213c.663.14 1.443.42 2.185.954l.004 9.168zM74.047 19.456l6.256.002c-.094-.7-.33-1.52-.873-2.352H72.92c-.795 0-1.45.617-1.53 1.398 0 .01-.007.022-.01.03v12.34c.003.008.01.02.01.03.08.782.735 1.4 1.53 1.4.028 0 .05-.004.073-.004l7.296.002c-.096-.698-.332-1.537-.874-2.368h-5.37v-3.357h5.315c.024 0 .04-.018.04-.037v-2.33c0-.018-.016-.036-.04-.036h-5.313v-4.718z" fill="#203562"/>
    <path d="M91.657 17.068h-3.02c-.013 0-.023.003-.03.012l-2.603 3.176L83.4 17.08c-.008-.01-.02-.012-.03-.012h-2.42c-.015 0-.027.007-.035.022-.007.01-.004.027.005.04l3.835 4.706-3.79 4.665c-.012.015-.012.03-.007.043.006.01.02.023.034.023h3.02c.01 0 .024-.007.03-.02l2.283-2.828 2.324 2.832c.006.01.017.016.03.016h2.462c.015 0 .03-.013.035-.023.006-.014.004-.03-.006-.042l-3.596-4.32 4.11-5.05c.012-.013.014-.03.006-.04-.007-.015-.02-.022-.033-.022M108.01 24.893c-1.336 0-2.252-.81-2.514-2.226h4.554v.093c0 1.13-.833 2.133-2.04 2.133m4.385-3.672c-.005-.008-.018-.015-.033-.015h-6.912c.14-1.61 1.187-2.527 2.88-2.527 1.043 0 2.15.356 3.714 1.187.025.015.057-.01.057-.04l-.004-2.122c-.003-.02-.01-.03-.022-.033-1.454-.615-2.917-1.03-4.063-1.03-2.977 0-5.136 2.166-5.136 5.156 0 2.985 2.16 5.155 5.137 5.155 2.717 0 4.462-1.827 4.462-4.343 0-.407-.073-1.354-.077-1.386M126.444 28.526c-.85 0-1.54.68-1.54 1.515 0 .86.69 1.56 1.54 1.56.848 0 1.536-.7 1.536-1.56 0-.834-.688-1.514-1.536-1.514M125.2 17.068c-.024 0-.04.014-.04.038v9.422c0 .018.013.033.03.036h2.5c.018-.003.03-.018.03-.036v-9.422c0-.024-.015-.038-.036-.038H125.2zM96.228 18.486c-.453 0-.913.062-1.442.204l.004 6.045c.62.2 1.16.29 1.695.29 1.73 0 2.892-1.276 2.892-3.175 0-2.044-1.236-3.364-3.15-3.364m.678 8.464c-.705 0-1.414-.127-2.16-.383h-2.487c-.022 0-.036-.02-.036-.04V11.08c.75.1 1.667.37 2.566 1.005l-.002 4.698c.61-.088 1.117-.144 1.605-.144 3.405 0 5.608 2.04 5.608 5.195 0 3.013-2.096 5.115-5.093 5.115M120.653 19.267c-.778-.406-1.472-.602-2.126-.602-1.542 0-2.466 1.09-2.466 2.914 0 2.106 1.18 3.473 3.005 3.473.503 0 .994-.12 1.588-.39v-5.396zm0 12.286V26.62c-.73.213-1.37.307-2.02.307-2.962 0-5.197-2.232-5.197-5.2 0-2.947 1.972-5.088 4.686-5.088.94 0 1.822.234 2.856.766l-.004-.852c.684.132 1.468.406 2.243.954v15.054c-.76-.1-1.66-.356-2.564-1.01M136.373 19.288c-.753-.434-1.4-.645-1.975-.645-1.65 0-2.638 1.087-2.638 2.916 0 2.076 1.164 3.473 2.896 3.473.466 0 1.026-.176 1.717-.543v-5.202zm2.568 7.39c0 .06-.05.107-.108.107l-2.017-.004c-.06 0-.11-.05-.11-.107v-.343h-.05c-.93.407-1.728.598-2.51.598-2.793 0-4.984-2.317-4.984-5.284 0-2.997 1.96-5.005 4.878-5.005.78 0 1.78.05 2.715 1.13v-1.213c.662.14 1.443.42 2.185.955l.003 9.167zM74.048 19.457h6.255c-.095-.697-.33-1.517-.873-2.35H72.92c-.795 0-1.45.616-1.53 1.398 0 .01-.006.02-.008.03v12.34l.01.03c.078.782.733 1.4 1.53 1.4.025 0 .05-.004.072-.004l7.295.004c-.096-.7-.332-1.538-.874-2.368h-5.368v-3.358h5.314c.023 0 .04-.018.04-.036v-2.33c0-.02-.017-.037-.04-.037h-5.314v-4.717zM141.606 26.93h.29c.324 0 .477.092.477.316 0 .233-.163.33-.5.33h-.267v-.645zm.35.924c.58 0 .868-.197.868-.558 0-.3-.162-.502-.457-.57l.457-.927h-.492l-.406.856h-.32V25.8h-.44v2.054h.79zm-1.13.056c-.306-.31-.473-.706-.473-1.116 0-.41.157-.797.452-1.096.298-.3.69-.467 1.085-.467.432 0 .822.158 1.132.457.294.284.456.67.456 1.08 0 .443-.152.824-.446 1.123-.305.304-.685.467-1.116.467-.426 0-.797-.152-1.09-.447m2.4.168c.34-.346.522-.792.522-1.284 0-.508-.188-.96-.538-1.3-.36-.35-.823-.537-1.3-.537-.487 0-.95.198-1.298.553-.346.35-.533.802-.533 1.284 0 .487.196.954.552 1.31.345.344.78.522 1.278.522.503 0 .96-.188 1.315-.548" fill="#203562"/>
    <path d="M58.16 29.9l-.454 1.283-3.843 5.136.69.17 6.627-5.727 3.9 1.116c.457.116.976.142 1.374.14-1.226 2.643-3.47 4.812-6.43 5.868-5.853 2.085-12.29-.973-14.37-6.83-.645-1.81-.797-3.68-.527-5.457l9.34 3.246L58.16 29.9zM66.864 31.007c-.343-.22-.844-.514-1.344-.674l-3.91-1.114-2.606-8.372-.677-.22.552 6.393-.31 1.328-3.66-1.046-9.68-2.278c.768-3.724 3.404-6.97 7.248-8.34 5.854-2.085 12.286.975 14.37 6.827.897 2.523.84 5.154.016 7.497M66.227 16.87c-.618 0-1 .484-1 1.075 0 .633.438 1.075 1 1.075.557 0 .994-.442.994-1.075 0-.634-.436-1.074-.993-1.074m0 2.27c-.633 0-1.174-.475-1.174-1.195 0-.68.488-1.19 1.174-1.19.626 0 1.168.472 1.168 1.19 0 .72-.542 1.196-1.168 1.196" fill="#203561"/>
    <path d="M65.946 18.044v.435h.295c.15 0 .325-.022.325-.204 0-.214-.163-.232-.346-.232h-.274zm.836.203c0 .287-.175.407-.516.407h-.536V17.24h.232v.605h.218l.366-.604h.262l-.395.62c.213.027.37.13.37.387" fill="#203561"/>
  </g>
</svg>
