<svg version="1.1" id="Layer_1" xmlns="http://www.w3.org/2000/svg" xmlns:xlink="http://www.w3.org/1999/xlink" x="0" y="0" viewBox="0 0 216 26" xml:space="preserve" enable-background="new 0 0 216 26"><style type="text/css">.st0{fill:#0061ff}</style><switch><g><g><path id="Path_29_" class="st0" d="M210,20.6c4.1,0,6-2,6-4.6c0-3-3-3.6-5.5-3.9c-2.2-0.3-4.1-0.6-4.1-2.2c0-1.2,0.9-2.3,3.2-2.3 c2.2,0,3.5,1,3.7,2.5h2.5c-0.4-2.5-2.3-4.3-6.1-4.3c-3.8,0-5.6,2-5.6,4.3c0,3,2.8,3.5,5.4,3.9c2.2,0.3,4.3,0.7,4.3,2.3 c0,1.3-1,2.4-3.6,2.4c-2.2,0-3.9-0.9-4.1-2.9h-2.6C203.8,18.9,206.1,20.6,210,20.6z"/><path id="Path_28_" class="st0" d="M195.9,20.6c4.1,0,6-2,6-4.6c0-3-3-3.6-5.5-3.9c-2.2-0.3-4.1-0.6-4.1-2.2 c0-1.2,0.9-2.3,3.2-2.3c2.2,0,3.5,1,3.7,2.5h2.5c-0.4-2.5-2.3-4.3-6.1-4.3c-3.8,0-5.6,2-5.6,4.3c0,3,2.8,3.5,5.4,3.9 c2.2,0.3,4.3,0.7,4.3,2.3c0,1.3-1,2.4-3.6,2.4c-2.2,0-3.9-0.9-4.1-2.9h-2.6C189.6,18.9,191.9,20.6,195.9,20.6z"/><path id="Path_27_" class="st0" d="M180.8,20.6c-4.7,0-7-2.8-7-7.2v-0.3c0-4.4,2.7-7.4,7.1-7.4c4.7,0,6.8,3.3,6.8,7.1V14H176 c0.2,2.9,2,4.6,4.9,4.6c2,0,3.4-0.9,4-2.6h2.6C186.7,18.9,184.3,20.6,180.8,20.6z M180.9,7.7c-2.7,0-4.6,1.6-4.9,4.3h9.5 C185.3,9.3,183.6,7.7,180.9,7.7z"/><path id="Path_26_" class="st0" d="M158.5,20.2h2.3v-7.4c0-3,1.5-5,4.3-5c2.7,0,3.9,1.7,3.9,4.4v8.1h2.2v-8.6 c0-3.5-1.8-5.9-5.5-5.9c-2.7,0-4.4,1.5-5.2,3.6l-0.2-3.2h-1.9V20.2z"/><path id="Path_25_" class="st0" d="M153.1,20.2V6.1h2.3v14.1H153.1z M154.3,4.4c-1.2,0-1.7-0.6-1.7-1.7c0-1.1,0.6-1.7,1.7-1.7 c1.1,0,1.7,0.5,1.7,1.7C155.9,3.9,155.4,4.4,154.3,4.4z"/><path id="Path_24_" class="st0" d="M145,20.6c4.1,0,6-2,6-4.6c0-3-3-3.6-5.5-3.9c-2.2-0.3-4.1-0.6-4.1-2.2c0-1.2,0.9-2.3,3.2-2.3 c2.2,0,3.5,1,3.7,2.5h2.5c-0.4-2.5-2.3-4.3-6.1-4.3c-3.8,0-5.6,2-5.6,4.3c0,3,2.8,3.5,5.4,3.9c2.2,0.3,4.3,0.7,4.3,2.3 c0,1.3-1,2.4-3.6,2.4c-2.2,0-3.9-0.9-4.1-2.9h-2.6C138.8,18.9,141.1,20.6,145,20.6z"/><path id="Path_23_" class="st0" d="M129.5,20.5c2.5,0,4.1-1.3,4.9-3.3l0.2,3h1.9V6.1h-2.3v7.6c0,2.9-1.5,4.7-4,4.7 c-2.6,0-3.6-1.8-3.6-4.3v-8h-2.3v8.6C124.3,18.2,126,20.5,129.5,20.5z"/><path id="Path_22_" class="st0" d="M108.8,20.2V2.7h6.6c4.5,0,6.4,1.6,6.4,4.5c0,2.2-1,3.4-2.9,4c2,0.5,3.2,1.9,3.2,4.1 c0,3.1-2.1,4.9-6.6,4.9H108.8z M115.3,12.3h-4.2v5.9h4.2c3.2,0,4.4-1.1,4.4-3C119.7,13.1,118.2,12.3,115.3,12.3z M115.5,4.7h-4.4 v5.7h4.4c2.6,0,4-0.9,4-2.9C119.5,5.6,118.3,4.7,115.5,4.7z"/><polygon id="Path_21_" points="88,20.2 93.4,12.9 88.4,6.1 92.7,6.1 95.5,10.4 98.4,6.1 102.7,6.1 97.6,12.9 102.9,20.2 98.8,20.2 95.5,15.6 92.3,20.2"/><path id="Path_20_" d="M81.4,20.6c-4.6,0-7.2-2.5-7.2-7.2V13c0-4.8,3-7.3,7.2-7.3c4.2,0,7.2,2.6,7.2,7.3v0.4 C88.6,18.1,85.6,20.6,81.4,20.6z M81.4,17.4c2.1,0,3.4-1.4,3.4-4V13c0-2.7-1.3-4.2-3.4-4.2c-2.1,0-3.4,1.5-3.4,4.2v0.3 C78,15.9,79.3,17.4,81.4,17.4z"/><path id="Path_19_" d="M66.6,20.6c-2.3,0-3.9-1.1-4.6-2.9l-0.3,2.6h-3.2V1.3h3.6v7.3c0.8-1.8,2.4-2.9,4.6-2.9 c3.4,0,5.9,2.4,5.9,7.1v0.4C72.6,17.9,70.2,20.6,66.6,20.6z M65.4,17.4c2.1,0,3.4-1.4,3.4-4.2v-0.3c0-2.6-1.4-4-3.4-4 c-2,0-3.4,1.6-3.4,4.1v0.3C62.1,15.9,63.4,17.4,65.4,17.4z"/><path id="Path_18_" d="M42.4,25V6.1h3.1l0.4,2.6c0.8-1.8,2.3-3,4.7-3c3.6,0,6,2.6,6,7.4v0.4c0,4.7-2.6,7.1-6,7.1 c-2.3,0-3.8-1-4.5-2.7V25H42.4z M49.3,17.4c2.1,0,3.5-1.4,3.5-4v-0.3c0-2.8-1.5-4.2-3.4-4.2c-2.1,0-3.4,1.6-3.4,4.2v0.3 C46,15.8,47.3,17.4,49.3,17.4z"/><path id="Path_17_" d="M33.3,20.6c-4.6,0-7.2-2.5-7.2-7.2V13c0-4.8,3-7.3,7.2-7.3c4.2,0,7.2,2.6,7.2,7.3v0.4 C40.5,18.1,37.6,20.6,33.3,20.6z M33.3,17.4c2.1,0,3.4-1.4,3.4-4V13c0-2.7-1.3-4.2-3.4-4.2c-2.1,0-3.4,1.5-3.4,4.2v0.3 C29.9,15.9,31.2,17.4,33.3,17.4z"/><path id="Path_16_" d="M16.4,20.2h3.7v-6.5c0-3,0.7-4.1,3.8-4.1h1.5V5.9h-0.9c-2.6,0-4.1,1.2-4.6,3.4l-0.5-3.2h-3V20.2z"/><path id="Path_15_" d="M0,20.2V2.7h6.6c4.3,0,7.8,2.5,7.8,8.1V12c0,5.7-3.3,8.2-7.7,8.2H0z M6.4,5.9H3.7V17h2.9 c2.4,0,4.1-1.6,4.1-5.1V11C10.6,7.5,8.9,5.9,6.4,5.9z"/></g></g></switch></svg>
