<svg xmlns="http://www.w3.org/2000/svg" height="168" width="559" viewBox="0 0 559 168">
  <path fill="#1ED760" d="M83.996.277C37.746.277.253 37.77.253 84.02c0 46.25 37.494 83.74 83.743 83.74 46.254 0 83.744-37.49 83.744-83.74 0-46.247-37.49-83.74-83.745-83.74V.278zm38.404 120.78c-1.5 2.46-4.72 3.24-7.18 1.73-19.662-12.01-44.414-14.73-73.564-8.07-2.81.64-5.61-1.12-6.25-3.93-.642-2.81 1.11-5.61 3.927-6.25 31.9-7.288 59.263-4.15 81.337 9.34 2.46 1.51 3.24 4.72 1.73 7.18zm10.25-22.802c-1.89 3.072-5.91 4.042-8.98 2.152-22.51-13.836-56.823-17.843-83.448-9.76-3.453 1.042-7.1-.904-8.148-4.35-1.04-3.454.907-7.094 4.354-8.144C66.84 68.925 104.65 73.395 130.5 89.28c3.07 1.89 4.04 5.91 2.15 8.976zm.88-23.744c-26.99-16.03-71.52-17.504-97.29-9.683-4.137 1.255-8.513-1.08-9.767-5.22-1.254-4.14 1.08-8.512 5.22-9.77 29.582-8.98 78.757-7.245 109.83 11.202 3.73 2.208 4.95 7.015 2.74 10.732-2.2 3.722-7.02 4.95-10.73 2.74zm94.56 3.073c-14.46-3.448-17.03-5.868-17.03-10.953 0-4.804 4.52-8.037 11.25-8.037 6.52 0 12.98 2.455 19.76 7.51.2.152.46.213.71.173.26-.038.48-.177.63-.386l7.06-9.952c.29-.41.21-.975-.18-1.288-8.07-6.473-17.15-9.62-27.77-9.62-15.61 0-26.52 9.37-26.52 22.774 0 14.375 9.41 19.465 25.67 23.394 13.83 3.187 16.17 5.857 16.17 10.63 0 5.29-4.72 8.58-12.32 8.58-8.44 0-15.33-2.85-23.03-9.51-.19-.17-.45-.24-.69-.23-.26.02-.49.14-.65.33l-7.92 9.42c-.33.4-.29.98.09 1.32 8.96 8 19.98 12.22 31.88 12.22 16.82 0 27.69-9.19 27.69-23.42.03-12.008-7.16-18.658-24.77-22.942l-.03-.013zm62.86-14.26c-7.29 0-13.27 2.872-18.21 8.757v-6.624c0-.523-.42-.95-.94-.95h-12.95c-.52 0-.94.427-.94.95v73.6c0 .52.42.95.94.95h12.95c.52 0 .94-.43.94-.95v-23.23c4.94 5.53 10.92 8.24 18.21 8.24 13.55 0 27.27-10.43 27.27-30.368.02-19.943-13.7-30.376-27.26-30.376h-.01zm12.21 30.375c0 10.15-6.25 17.24-15.21 17.24-8.85 0-15.53-7.41-15.53-17.24 0-9.83 6.68-17.238 15.53-17.238 8.81 0 15.21 7.247 15.21 17.237zm50.21-30.375c-17.45 0-31.12 13.436-31.12 30.592 0 16.972 13.58 30.262 30.91 30.262 17.51 0 31.22-13.39 31.22-30.48 0-17.03-13.62-30.372-31.01-30.372v-.002zm0 47.714c-9.28 0-16.28-7.46-16.28-17.344 0-9.93 6.76-17.134 16.07-17.134 9.34 0 16.38 7.456 16.38 17.35 0 9.927-6.8 17.127-16.17 17.127zm68.27-46.53h-14.25V49.94c0-.52-.42-.947-.94-.947H393.5c-.52 0-.95.426-.95.948v14.567h-6.22c-.52 0-.94.426-.94.95v11.126c0 .522.42.95.94.95h6.22v28.794c0 11.63 5.79 17.53 17.22 17.53 4.64 0 8.49-.96 12.12-3.02.3-.16.48-.48.48-.82v-10.6c0-.32-.17-.63-.45-.8-.28-.18-.63-.19-.92-.04-2.49 1.25-4.9 1.83-7.6 1.83-4.15 0-6.01-1.89-6.01-6.11v-26.76h14.25c.52 0 .94-.426.94-.95V65.463c.02-.523-.4-.95-.93-.95l-.01-.005zm49.64.057v-1.79c0-5.262 2.02-7.61 6.54-7.61 2.7 0 4.87.537 7.3 1.347.3.095.61.048.85-.13.25-.18.39-.467.39-.77V44.7c0-.418-.26-.787-.67-.91-2.56-.763-5.84-1.546-10.76-1.546-11.95 0-18.28 6.734-18.28 19.467v2.74h-6.22c-.52 0-.95.427-.95.95v11.183c0 .522.43.95.95.95h6.22v44.404c0 .53.43.95.95.95h12.94c.53 0 .95-.42.95-.95V77.535h12.09l18.52 44.402c-2.1 4.66-4.17 5.59-6.99 5.59-2.28 0-4.69-.68-7.14-2.03-.23-.12-.51-.14-.75-.07-.25.09-.46.27-.56.51l-4.39 9.63c-.21.46-.03.99.41 1.23 4.58 2.48 8.71 3.54 13.82 3.54 9.56 0 14.85-4.46 19.5-16.44l22.46-58.037c.12-.292.08-.622-.1-.88-.17-.258-.46-.413-.77-.413h-13.48c-.41 0-.77.257-.9.636l-13.81 39.434-15.12-39.46c-.14-.367-.49-.61-.88-.61h-22.12v-.003zm-28.78-.057h-12.95c-.52 0-.95.426-.95.95v56.48c0 .53.43.95.95.95h12.95c.52 0 .95-.42.95-.95V65.46c0-.523-.42-.95-.95-.95v-.003zm-6.4-25.72c-5.13 0-9.29 4.153-9.29 9.282 0 5.13 4.16 9.288 9.29 9.288s9.28-4.157 9.28-9.29c0-5.127-4.16-9.28-9.28-9.28zm113.42 43.88c-5.12 0-9.11-4.114-9.11-9.11s4.04-9.16 9.16-9.16 9.11 4.114 9.11 9.107c0 4.997-4.04 9.164-9.16 9.164zm.05-17.364c-4.67 0-8.2 3.71-8.2 8.253 0 4.54 3.51 8.2 8.15 8.2 4.67 0 8.2-3.706 8.2-8.252 0-4.54-3.51-8.2-8.15-8.2zm2.02 9.138l2.58 3.61h-2.18l-2.32-3.31h-1.99v3.31h-1.82v-9.565h4.26c2.23 0 3.69 1.137 3.69 3.05.01 1.57-.9 2.527-2.21 2.906h-.01zm-1.54-4.314h-2.37v3.025h2.37c1.18 0 1.89-.578 1.89-1.513 0-.984-.71-1.51-1.89-1.51z"/>
</svg>
