<?xml version="1.0" encoding="utf-8"?>
<!-- Generator: Adobe Illustrator 19.2.0, SVG Export Plug-In . SVG Version: 6.00 Build 0)  -->
<svg version="1.1" id="Layer_1" xmlns="http://www.w3.org/2000/svg" xmlns:xlink="http://www.w3.org/1999/xlink" x="0px" y="0px"
	 viewBox="0 0 180 130" style="enable-background:new 0 0 180 130;" xml:space="preserve">
<style type="text/css">
	.st0{filter:url(#Adobe_OpacityMaskFilter);}
	.st1{fill:#FFFFFF;}
	.st2{mask:url(#b);fill:#FFFFFF;}
	.st3{filter:url(#Adobe_OpacityMaskFilter_1_);}
	.st4{mask:url(#d);fill:#FBFBFB;}
	.st5{filter:url(#Adobe_OpacityMaskFilter_2_);}
	.st6{mask:url(#f);fill:#F7F7F7;}
	.st7{filter:url(#Adobe_OpacityMaskFilter_3_);}
	.st8{mask:url(#h);fill:#505A78;}
	.st9{filter:url(#Adobe_OpacityMaskFilter_4_);}
	.st10{mask:url(#j);fill:#505A78;}
	.st11{filter:url(#Adobe_OpacityMaskFilter_5_);}
	.st12{mask:url(#l);fill:#505A78;}
	.st13{filter:url(#Adobe_OpacityMaskFilter_6_);}
	.st14{mask:url(#n);fill:#505A78;}
	.st15{filter:url(#Adobe_OpacityMaskFilter_7_);}
	.st16{mask:url(#p);fill:#505A78;}
	.st17{filter:url(#Adobe_OpacityMaskFilter_8_);}
	.st18{mask:url(#r);fill:#505A78;}
	.st19{filter:url(#Adobe_OpacityMaskFilter_9_);}
	.st20{mask:url(#t);fill:#505A78;}
	.st21{filter:url(#Adobe_OpacityMaskFilter_10_);}
	.st22{mask:url(#v);fill:#E5E6EB;}
	.st23{filter:url(#Adobe_OpacityMaskFilter_11_);}
	.st24{mask:url(#x);fill:#E2E3E7;}
	.st25{filter:url(#Adobe_OpacityMaskFilter_12_);}
	.st26{mask:url(#z);fill:#505A78;}
	.st27{filter:url(#Adobe_OpacityMaskFilter_13_);}
	.st28{mask:url(#B);fill:#505A78;}
	.st29{filter:url(#Adobe_OpacityMaskFilter_14_);}
	.st30{mask:url(#D);fill:#E5E6EB;}
	.st31{filter:url(#Adobe_OpacityMaskFilter_15_);}
	.st32{mask:url(#F);fill:#E2E3E7;}
	.st33{filter:url(#Adobe_OpacityMaskFilter_16_);}
	.st34{mask:url(#H);fill:#505A78;}
	.st35{filter:url(#Adobe_OpacityMaskFilter_17_);}
	.st36{mask:url(#J);fill:#505A78;}
	.st37{filter:url(#Adobe_OpacityMaskFilter_18_);}
	.st38{mask:url(#L);fill:#E5E6EB;}
	.st39{filter:url(#Adobe_OpacityMaskFilter_19_);}
	.st40{mask:url(#N);fill:#E2E3E7;}
	.st41{filter:url(#Adobe_OpacityMaskFilter_20_);}
	.st42{mask:url(#P);fill:#505A78;}
	.st43{filter:url(#Adobe_OpacityMaskFilter_21_);}
	.st44{mask:url(#R);fill:#E5E6EB;}
	.st45{filter:url(#Adobe_OpacityMaskFilter_22_);}
	.st46{mask:url(#T);fill:#E5E6EB;}
	.st47{filter:url(#Adobe_OpacityMaskFilter_23_);}
	.st48{mask:url(#V);fill:#E2E3E7;}
	.st49{filter:url(#Adobe_OpacityMaskFilter_24_);}
	.st50{mask:url(#X);fill:#505A78;}
	.st51{filter:url(#Adobe_OpacityMaskFilter_25_);}
	.st52{mask:url(#Z);fill:#505A78;}
	.st53{filter:url(#Adobe_OpacityMaskFilter_26_);}
	.st54{mask:url(#ab);fill:#505A78;}
	.st55{filter:url(#Adobe_OpacityMaskFilter_27_);}
	.st56{mask:url(#ad);fill:#505A78;}
	.st57{filter:url(#Adobe_OpacityMaskFilter_28_);}
	.st58{mask:url(#af);fill:#EAEBEE;}
	.st59{filter:url(#Adobe_OpacityMaskFilter_29_);}
	.st60{mask:url(#ah);fill:#EAEBEE;}
	.st61{filter:url(#Adobe_OpacityMaskFilter_30_);}
	.st62{mask:url(#aj);fill:#FFFFFF;}
	.st63{filter:url(#Adobe_OpacityMaskFilter_31_);}
	.st64{mask:url(#al);fill:#E5E6EB;}
	.st65{filter:url(#Adobe_OpacityMaskFilter_32_);}
	.st66{mask:url(#an);fill:#E2E3E7;}
	.st67{filter:url(#Adobe_OpacityMaskFilter_33_);}
	.st68{mask:url(#ap);fill:#E5E6EB;}
	.st69{filter:url(#Adobe_OpacityMaskFilter_34_);}
	.st70{mask:url(#ar);fill:#505A78;}
	.st71{filter:url(#Adobe_OpacityMaskFilter_35_);}
	.st72{mask:url(#at);fill:#505A78;}
	.st73{filter:url(#Adobe_OpacityMaskFilter_36_);}
	.st74{mask:url(#av);fill:#FFFFFF;}
	.st75{filter:url(#Adobe_OpacityMaskFilter_37_);}
	.st76{mask:url(#ax);fill:#FFFFFF;}
	.st77{filter:url(#Adobe_OpacityMaskFilter_38_);}
	.st78{mask:url(#az);fill:#505A78;}
	.st79{filter:url(#Adobe_OpacityMaskFilter_39_);}
	.st80{mask:url(#aB);fill:#FFFFFF;}
	.st81{filter:url(#Adobe_OpacityMaskFilter_40_);}
	.st82{mask:url(#aD);fill:#505A78;}
	.st83{filter:url(#Adobe_OpacityMaskFilter_41_);}
	.st84{mask:url(#aF);fill:#FFFFFF;}
	.st85{filter:url(#Adobe_OpacityMaskFilter_42_);}
	.st86{mask:url(#aH);fill:#505A78;}
	.st87{filter:url(#Adobe_OpacityMaskFilter_43_);}
	.st88{mask:url(#aJ);fill:#FFFFFF;}
	.st89{filter:url(#Adobe_OpacityMaskFilter_44_);}
	.st90{mask:url(#aL);fill:#505A78;}
	.st91{filter:url(#Adobe_OpacityMaskFilter_45_);}
	.st92{mask:url(#aN);fill:#FFFFFF;}
	.st93{filter:url(#Adobe_OpacityMaskFilter_46_);}
	.st94{mask:url(#aP);fill:#F79C82;}
	.st95{filter:url(#Adobe_OpacityMaskFilter_47_);}
	.st96{mask:url(#aR);fill:#505A78;}
	.st97{filter:url(#Adobe_OpacityMaskFilter_48_);}
	.st98{mask:url(#aT);fill:#505A78;}
	.st99{filter:url(#Adobe_OpacityMaskFilter_49_);}
	.st100{mask:url(#aV);fill:#505A78;}
	.st101{filter:url(#Adobe_OpacityMaskFilter_50_);}
	.st102{mask:url(#aX);fill:#505A78;}
	.st103{filter:url(#Adobe_OpacityMaskFilter_51_);}
	.st104{mask:url(#aZ);fill:#505A78;}
	.st105{filter:url(#Adobe_OpacityMaskFilter_52_);}
	.st106{mask:url(#bb);fill:#505A78;}
	.st107{filter:url(#Adobe_OpacityMaskFilter_53_);}
	.st108{mask:url(#bd);fill:#505A78;}
	.st109{filter:url(#Adobe_OpacityMaskFilter_54_);}
	.st110{mask:url(#bf);fill:#FFFFFF;}
	.st111{filter:url(#Adobe_OpacityMaskFilter_55_);}
	.st112{mask:url(#bh);fill:#505A78;}
	.st113{filter:url(#Adobe_OpacityMaskFilter_56_);}
	.st114{mask:url(#bj);fill:#E5E6EB;}
	.st115{filter:url(#Adobe_OpacityMaskFilter_57_);}
	.st116{mask:url(#bl);fill:#E5E6EB;}
	.st117{fill:#C5E1F6;}
	.st118{fill:#97C9EF;}
	.st119{fill:#AED4F3;}
	.st120{filter:url(#Adobe_OpacityMaskFilter_58_);}
	.st121{mask:url(#bn);fill:#505A78;}
	.st122{filter:url(#Adobe_OpacityMaskFilter_59_);}
	.st123{mask:url(#bp);fill:#505A78;}
	.st124{filter:url(#Adobe_OpacityMaskFilter_60_);}
	.st125{mask:url(#br);fill:#505A78;}
	.st126{filter:url(#Adobe_OpacityMaskFilter_61_);}
	.st127{mask:url(#bt);fill:#505A78;}
	.st128{filter:url(#Adobe_OpacityMaskFilter_62_);}
	.st129{mask:url(#bv);fill:#505A78;}
	.st130{filter:url(#Adobe_OpacityMaskFilter_63_);}
	.st131{mask:url(#bx);fill:#505A78;}
	.st132{fill:#E5E6EB;}
	.st133{fill:#505A78;}
	.st134{fill:#7FDE95;}
	.st135{fill:#505A78;fill-opacity:0.2;}
	.st136{fill:#8CE1A0;}
</style>
<title>Page 1</title>
<g>
	<g transform="translate(1 13.285)">
		<defs>
			<filter id="Adobe_OpacityMaskFilter" filterUnits="userSpaceOnUse" x="-4.5" y="4.2" width="188" height="116.3">
				<feColorMatrix  type="matrix" values="1 0 0 0 0  0 1 0 0 0  0 0 1 0 0  0 0 0 1 0"/>
			</filter>
		</defs>
		<mask maskUnits="userSpaceOnUse" x="-4.5" y="4.2" width="188" height="116.3" id="b">
			<g class="st0">
				<path id="a" class="st1" d="M17,10.1c-2.9,0-5.3,2.4-5.3,5.3v88.2c0,0.2-0.2,0.4-0.4,0.4H1.4v10.6h176.2v-10.6h-9.9
					c-0.2,0-0.4-0.2-0.4-0.4V15.4c0-2.9-2.4-5.3-5.3-5.3L17,10.1L17,10.1z"/>
			</g>
		</mask>
		<path class="st2" d="M-4.5,120.4h188V4.2h-188"/>
	</g>
	<g transform="translate(17 24.285)">
		<defs>
			<filter id="Adobe_OpacityMaskFilter_1_" filterUnits="userSpaceOnUse" x="-5.2" y="4.8" width="155.7" height="96.4">
				<feColorMatrix  type="matrix" values="1 0 0 0 0  0 1 0 0 0  0 0 1 0 0  0 0 0 1 0"/>
			</filter>
		</defs>
		<mask maskUnits="userSpaceOnUse" x="-5.2" y="4.8" width="155.7" height="96.4" id="d">
			<g class="st3">
				<path id="c" class="st1" d="M2.7,10.7c-1.1,0-2,0.9-2,1.9l0,37.5l0,39.6l0.1,2.3l56.3-0.3l1.5,3.1L87,95.3l1.9-3.5l55.7,0.8
					V11.2l-25.8-0.5L2.7,10.7z"/>
			</g>
		</mask>
		<path class="st4" d="M-5.2,101.2h155.7V4.8H-5.2"/>
	</g>
	<g transform="translate(88 16.285)">
		<defs>
			<filter id="Adobe_OpacityMaskFilter_2_" filterUnits="userSpaceOnUse" x="-4.7" y="5" width="15.6" height="15.6">
				<feColorMatrix  type="matrix" values="1 0 0 0 0  0 1 0 0 0  0 0 1 0 0  0 0 0 1 0"/>
			</filter>
		</defs>
		<mask maskUnits="userSpaceOnUse" x="-4.7" y="5" width="15.6" height="15.6" id="f">
			<g class="st5">
				<path id="e" class="st1" d="M1.2,12.8c0,1,0.8,1.9,1.9,1.9c1,0,1.9-0.8,1.9-1.9s-0.8-1.9-1.9-1.9C2,10.9,1.2,11.8,1.2,12.8
					L1.2,12.8z"/>
			</g>
		</mask>
		<path class="st6" d="M-4.7,20.6h15.6V5H-4.7"/>
	</g>
	<g transform="translate(87 16.285)">
		<defs>
			<filter id="Adobe_OpacityMaskFilter_3_" filterUnits="userSpaceOnUse" x="-4.5" y="4.3" width="16.8" height="16.9">
				<feColorMatrix  type="matrix" values="1 0 0 0 0  0 1 0 0 0  0 0 1 0 0  0 0 0 1 0"/>
			</filter>
		</defs>
		<mask maskUnits="userSpaceOnUse" x="-4.5" y="4.3" width="16.8" height="16.9" id="h">
			<g class="st7">
				<path id="g" class="st1" d="M3.1,10.4c-0.4,0.2-0.7,0.6-1,0.9c-0.2,0.2-0.6,0.5-0.7,0.9c-0.1,0.4,0.1,0.8,0.1,1.1
					c0,0.4,0.2,0.7,0.4,1c0.2,0.3,0.4,0.6,0.7,0.8c0.3,0.2,0.7,0.3,1.1,0.3c0.4,0,0.8,0,1.1-0.1c0.2-0.1,0.7-0.2,1-0.6
					C6,14.4,6.1,14.2,6.2,14c0.2-0.5,0.2-0.8,0.2-1.1H5.5c0,0.1,0,0.3-0.2,0.6c-0.1,0.1-0.2,0.3-0.4,0.4c-0.3,0.2-0.7,0.3-0.7,0.3
					c-0.2,0-0.4,0-0.6-0.1c-0.2-0.1-0.3-0.2-0.5-0.4c-0.1-0.1-0.3-0.3-0.3-0.5c-0.1-0.2,0-0.4,0.1-0.6C3,12.5,3,12.3,3.2,12.2
					c0.1-0.1,0.3-0.2,0.5-0.3c0.1-0.1,0.3-0.3,0.5-0.3c0.2,0,0.3,0.3,0.5,0.4c0.1,0,0.2,0,0.4,0.2l0.2,0.1l0.2,0.2
					c0.1,0.1,0.1,0.2,0.1,0.3h0.9c0-0.1,0-0.3,0-0.4c0-0.2-0.1-0.4-0.1-0.5c-0.1-0.5-0.5-0.9-0.6-1c-0.3-0.3-0.7-0.5-1.2-0.6
					c-0.1,0-0.3,0-0.4,0C3.7,10.2,3.4,10.3,3.1,10.4z"/>
			</g>
		</mask>
		<path class="st8" d="M-4.5,21.3h16.8V4.3H-4.5"/>
	</g>
	<g transform="translate(118 23.285)">
		<defs>
			<filter id="Adobe_OpacityMaskFilter_4_" filterUnits="userSpaceOnUse" x="-4.5" y="4.7" width="55.9" height="92.5">
				<feColorMatrix  type="matrix" values="1 0 0 0 0  0 1 0 0 0  0 0 1 0 0  0 0 0 1 0"/>
			</filter>
		</defs>
		<mask maskUnits="userSpaceOnUse" x="-4.5" y="4.7" width="55.9" height="92.5" id="j">
			<g class="st9">
				<path id="i" class="st1" d="M42.3,10.6l-1.1,0l-2.1,0c-5.5,0-13.1,0.1-18.6,0.1L2.8,10.9c-1.7,0-2.3,1.2,0.2,1.2l21.1,0
					c3.5,0,6.7,0,9.9,0c1.6,0,3.1,0,4.7,0l2.3,0l1.1,0c0.4,0,0.6,0,0.9,0.1c0.5,0.2,0.8,0.7,0.8,1.2l0,2.3l0,4.7
					c0,3.1,0,6.4-0.1,9.8c-0.2,13.7,0,27.7-0.1,41.5c0,0.6,0,9.9,0.2,17.1c0.1,1.6,0.3,2.8,0.6,2.4c0.3-0.4,0.5-1.3,0.6-2.4
					c0.1-5.5,0.1-11.9,0.1-14.4c0.1-11.6,0-21.3,0.2-32.8l0.1-17.4c0-2.9,0-5.8,0-8.7v-1.6c0-0.2,0-0.3,0-0.6
					c-0.1-1.1-0.8-2-1.8-2.4c-0.4-0.2-0.9-0.2-1.2-0.2C42.4,10.6,42.3,10.6,42.3,10.6L42.3,10.6z"/>
			</g>
		</mask>
		<path class="st10" d="M-4.5,97.2h55.9V4.7H-4.5"/>
	</g>
	<g transform="translate(17 23.285)">
		<defs>
			<filter id="Adobe_OpacityMaskFilter_5_" filterUnits="userSpaceOnUse" x="-5.3" y="4.9" width="57" height="92.9">
				<feColorMatrix  type="matrix" values="1 0 0 0 0  0 1 0 0 0  0 0 1 0 0  0 0 0 1 0"/>
			</filter>
		</defs>
		<mask maskUnits="userSpaceOnUse" x="-5.3" y="4.9" width="57" height="92.9" id="l">
			<g class="st11">
				<path id="k" class="st1" d="M3.3,10.8c-0.2,0-0.5,0.1-0.7,0.1c-0.4,0.1-0.8,0.4-1.2,0.8c-0.3,0.3-0.5,0.8-0.6,1.3
					c-0.1,0.5,0,0.8-0.1,1.2c0,1.4,0,2.8,0,4.3C0.6,30.1,0.5,42.3,0.6,53.7l0.1,18.9l0.2,17.9c0,1.7,1.2,2.3,1.2-0.2
					c0-4.2,0-19.9,0-21.5C2.2,54.8,2,44,2.2,30c0-3.5,0.1-7,0.1-10.5c0-1.8,0-3.5,0-5.3v-0.7c0-0.2,0-0.3,0-0.4
					c0.1-0.2,0.2-0.4,0.4-0.6c0.2-0.1,0.4-0.2,0.7-0.2l1.3,0c7,0,14.1,0,21,0c0.6,0,10,0,17.4-0.2c1.6-0.1,2.8-0.3,2.4-0.6
					c-0.4-0.3-1.3-0.5-2.4-0.6c-5.5-0.1-12.1-0.1-14.6-0.1L12,10.9l-8.1,0H3.6l-0.1,0C3.4,10.8,3.3,10.8,3.3,10.8L3.3,10.8z"/>
			</g>
		</mask>
		<path class="st12" d="M-5.3,97.9h57V4.9h-57"/>
	</g>
	<g transform="translate(15 105.285)">
		<defs>
			<filter id="Adobe_OpacityMaskFilter_6_" filterUnits="userSpaceOnUse" x="-5" y="4.9" width="175.2" height="21.6">
				<feColorMatrix  type="matrix" values="1 0 0 0 0  0 1 0 0 0  0 0 1 0 0  0 0 0 1 0"/>
			</filter>
		</defs>
		<mask maskUnits="userSpaceOnUse" x="-5" y="4.9" width="175.2" height="21.6" id="n">
			<g class="st13">
				<path id="m" class="st1" d="M59.2,10.8h-0.5c-1.3,0-2.6,0-3.8,0C47,10.8,36.1,10.9,28.1,11L2.9,11.2c-2.2,0-3.1,1.7,0.2,1.7
					c6,0,28.1,0,30.3,0c9.2,0.1,17.3,0,25.3,0l0.4,0l0.1,0.1l0,0.1l0,0.4l0,0.5c0,0.2,0,0.5,0,0.7c0.1,0.4,0.4,0.8,0.8,1.1
					c0.2,0.1,0.4,0.2,0.6,0.2c0.1,0,0.3,0,0.5,0h0.2l0.8,0c1.1,0,2.2,0,3.3,0l6.6,0c4.5,0,9.1,0.1,13.9,0.1l1.8,0l0.9,0l0.3,0
					c0.1,0,0.3,0,0.4,0c0.3,0,0.6-0.1,0.8-0.2c0.5-0.3,0.8-0.8,0.9-1.3c0-0.1,0-0.3,0-0.4l0-0.3l0-0.5c0-0.2,0-0.1,0-0.2l0,0l0,0
					l7.1,0c5,0,10,0,15,0c10,0,20-0.1,29.8,0c0.4,0,4,0,8.7,0l7.8-0.1l1,0c0.3,0,0.8,0,0.8,0c0.3,0,0.6,0.3,0.8,0.6l0.1,0.2l0,0.1
					l0,0.3l0,1l0,2c0.1,2.1,0.4,3.7,0.8,3.2c0.4-0.5,0.7-1.8,0.8-3.2l0.1-3c0-0.2,0-0.6-0.1-0.9c-0.1-0.3-0.2-0.6-0.4-0.9
					c-0.4-0.6-1-1-1.7-1.1c-0.2,0-0.3-0.1-0.5-0.1l-0.4,0l-0.8,0l-1.5,0l-2.9,0l-8.8,0c-16.7-0.1-30.6,0-47.2-0.2
					c-1.8,0-3.6,0-5.4,0l-2.7,0c-0.1,0-0.2,0-0.3,0c-0.5,0-1.2,0-1.7,0.4c-0.3,0.2-0.6,0.6-0.6,1c-0.1,0.4,0,0.9-0.1,1.1l0,0.5l0,0
					l0,0c-0.1,0,0.1,0-0.2,0l-2.7,0l-5.5,0l-10.9,0c-1.8,0-3.6,0-5.4,0c-0.9,0-1.8,0-2.7,0h-0.3l0,0v-0.3l0-0.4c0-0.2,0-0.5,0-0.7
					c0-0.4-0.2-0.8-0.5-1.1c-0.3-0.3-0.7-0.5-1.1-0.6C59.6,10.8,59.5,10.8,59.2,10.8C59.3,10.8,59.3,10.8,59.2,10.8L59.2,10.8z"/>
			</g>
		</mask>
		<path class="st14" d="M-5,26.4h175.2V4.9H-5"/>
	</g>
	<g transform="translate(2 116.285)">
		<defs>
			<filter id="Adobe_OpacityMaskFilter_7_" filterUnits="userSpaceOnUse" x="-5.1" y="4.9" width="186.4" height="14.1">
				<feColorMatrix  type="matrix" values="1 0 0 0 0  0 1 0 0 0  0 0 1 0 0  0 0 0 1 0"/>
			</filter>
		</defs>
		<mask maskUnits="userSpaceOnUse" x="-5.1" y="4.9" width="186.4" height="14.1" id="p">
			<g class="st15">
				<path id="o" class="st1" d="M48.6,10.8c-9.6,0-19.3,0-28.8,0c-1,0-3.6,0-15.7,0.2c-2.1,0.2-3.7,0.4-3.2,0.8
					c0.5,0.4,1.8,0.7,3.2,0.8c9.1,0.2,6.9,0.1,11.2,0.1c19.4,0.1,35.7,0,55,0.2c19.2,0.2,39.2,0.2,58.2,0.2l31.2-0.2
					c5,0,7-0.2,13.8-0.2c2.2,0,3.1-1.7-0.2-1.7c-6.9,0-17.1,0-19.7,0c-10-0.1-18.9,0-27.7,0c-11.8,0-23.2,0.1-36.5-0.1
					c-8.6-0.1-17.3-0.2-26-0.2C58.4,10.7,53.5,10.8,48.6,10.8L48.6,10.8z"/>
			</g>
		</mask>
		<path class="st16" d="M-5.1,19h186.4V4.9H-5.1"/>
	</g>
	<g transform="translate(0 12.285)">
		<defs>
			<filter id="Adobe_OpacityMaskFilter_8_" filterUnits="userSpaceOnUse" x="-4.5" y="4.2" width="73" height="115.2">
				<feColorMatrix  type="matrix" values="1 0 0 0 0  0 1 0 0 0  0 0 1 0 0  0 0 0 1 0"/>
			</filter>
		</defs>
		<mask maskUnits="userSpaceOnUse" x="-4.5" y="4.2" width="73" height="115.2" id="r">
			<g class="st17">
				<path id="q" class="st1" d="M18.3,10.1c-0.5,0-1.2,0-1.7,0.2c-1.2,0.3-2.2,0.9-3,1.8c-0.8,0.9-1.4,2-1.6,3.1
					c-0.2,1.2-0.1,2.1-0.1,3.2c0,8,0,15.9-0.1,24.9c-0.3,17.9,0,36.2-0.1,54.1l0,5.4c0,0.3,0,0.6,0,0.9c0,0.1,0,0.1,0,0.1
					c0,0,0,0,0,0l0,0l0,0h-0.1l-0.5,0l-4.3,0c-0.7,0-1.5,0-2.2,0l-0.6,0c-0.2,0-0.6,0-0.9,0.2c-0.6,0.2-1.1,0.8-1.4,1.4
					c-0.1,0.3-0.2,0.7-0.1,0.9l0,0.6l0,1.1c0,0.7,0,1.5,0,2.2c0.2,2.1,0.4,3.7,0.8,3.2c0.4-0.5,0.7-1.8,0.8-3.2c0-0.8,0-1.5,0-2.3
					l0-1.2c0-0.2,0-0.5,0-0.5l0.1-0.3c0.1-0.2,0.3-0.3,0.4-0.3c0,0,0.3,0,0.5,0l0.6,0c0.8,0,1.5,0,2.3,0c1.5,0,2.9,0,4.2,0
					c0.1,0,0.2,0,0.4,0c0.3,0,0.7,0,1,0c0.4,0,0.8-0.4,0.9-0.8c0.1-0.2,0.1-0.4,0.1-0.7v-0.6v-0.8l0-1.8c0.1-15.1,0-27.8,0.2-42.8
					l0.2-22.8l0-11.4c0-1.9,0-3.8,0-5.6v-2.1c0-0.2,0-0.4,0-0.5c0.1-0.7,0.4-1.4,0.9-2c0.4-0.5,1-1,1.8-1.3c0.7-0.3,1.4-0.3,2.6-0.3
					c2.1,0,4.2,0,6.3,0L37.6,12l23.1-0.2c2.2,0,3.1-1.7-0.2-1.7c-5.4,0-25.6,0-27.6,0c-4.5,0-8.8,0-12.9,0
					C19.3,10.1,18.8,10.1,18.3,10.1L18.3,10.1z"/>
			</g>
		</mask>
		<path class="st18" d="M-4.5,119.4h73V4.2h-73"/>
	</g>
	<g transform="translate(119 11.285)">
		<defs>
			<filter id="Adobe_OpacityMaskFilter_9_" filterUnits="userSpaceOnUse" x="-5" y="5" width="61.4" height="104.7">
				<feColorMatrix  type="matrix" values="1 0 0 0 0  0 1 0 0 0  0 0 1 0 0  0 0 0 1 0"/>
			</filter>
		</defs>
		<mask maskUnits="userSpaceOnUse" x="-5" y="5" width="61.4" height="104.7" id="t">
			<g class="st19">
				<path id="s" class="st1" d="M4.2,11.1c-2.1,0.1-3.7,0.4-3.2,0.8c0.5,0.4,1.8,0.7,3.2,0.8c6.1,0.2,13.3,0.1,16.2,0.1
					c6.5,0,12.4,0.1,18.4,0.1c1.5,0,3,0,4.5,0c0.8,0,1.4,0,2,0.2c0.6,0.2,1.2,0.5,1.6,0.9c1,0.8,1.5,2.1,1.5,3.4
					c0,1.6,0,3.1-0.1,4.8C48.1,35,48.1,48.4,48.1,61c0.1,6.2,0.1,14.7,0.2,20.8c0,3.5,0.2,15.4,0.2,20c0,2.2,1.7,3.1,1.7-0.2
					c0-4.7,0-22.1,0-23.9c0.2-15.6-0.2-27.4,0.1-42.9c0.1-3.8,0.1-7.7,0.1-11.6l0-5.8c0.1-2.3-1.3-4.7-3.4-5.8
					c-0.5-0.3-1.1-0.5-1.7-0.6c-0.3-0.1-0.6-0.1-0.9-0.1c-0.3,0-0.6,0-0.8,0l-2.9,0l-5.8,0c-3.9,0-7.7,0-11.6,0h-0.3
					C21.1,10.9,11.7,10.9,4.2,11.1L4.2,11.1z"/>
			</g>
		</mask>
		<path class="st20" d="M-5,109.7h61.4V5H-5"/>
	</g>
	<g transform="translate(161 25.285)">
		<defs>
			<filter id="Adobe_OpacityMaskFilter_10_" filterUnits="userSpaceOnUse" x="-5.3" y="4.7" width="12.1" height="12.5">
				<feColorMatrix  type="matrix" values="1 0 0 0 0  0 1 0 0 0  0 0 1 0 0  0 0 0 1 0"/>
			</filter>
		</defs>
		<mask maskUnits="userSpaceOnUse" x="-5.3" y="4.7" width="12.1" height="12.5" id="v">
			<g class="st21">
				<path id="u" class="st1" d="M0.6,11.3c0.1,0,0.2-0.1,0.3-0.1l0,0c-0.1-0.2-0.2-0.4-0.3-0.5V11.3L0.6,11.3z"/>
			</g>
		</mask>
		<path class="st22" d="M-5.3,17.2H6.8V4.7H-5.3"/>
	</g>
	<g transform="translate(18 24.285)">
		<defs>
			<filter id="Adobe_OpacityMaskFilter_11_" filterUnits="userSpaceOnUse" x="-4.5" y="5.1" width="154" height="13.5">
				<feColorMatrix  type="matrix" values="1 0 0 0 0  0 1 0 0 0  0 0 1 0 0  0 0 0 1 0"/>
			</filter>
		</defs>
		<mask maskUnits="userSpaceOnUse" x="-4.5" y="5.1" width="154" height="13.5" id="x">
			<g class="st23">
				<path id="w" class="st1" d="M59.4,11.1c-5.2,0-10.5,0-15.7,0c-0.4,0.1-0.9,0.1-1.4,0.1c-6.7,0.1-15.3,0.2-17.1,0.2
					c-0.2,0-0.3,0-0.3,0c-2.9,0-5.7,0-8.6,0c-4.1,0-8.3,0-12.4,0l-1.3,0H2.5c-0.3,0-0.5,0.1-0.7,0.2c-0.2,0.1-0.3,0.3-0.4,0.6
					c0,0,0,0.1,0,0.1l3,0l12,0c8.4,0,16.4,0,24.5,0l24.5,0l24.5,0c2.5,0,16.4,0,30.7,0l22.2,0l0.6,0v0.3v-0.3l0.1,0v-0.7
					c-0.1-0.1-0.3-0.3-0.5-0.3c-0.2-0.1-0.3-0.1-0.6-0.1h-0.3l-1.1,0l-2.3,0l-4.7,0c-3.2,0-6.4,0-9.9,0c-1.6,0-17,0-21.2,0
					c-0.4,0-0.7,0-0.9-0.1C96.7,11.1,91.4,11,86,11C77.1,11,68.3,11.1,59.4,11.1L59.4,11.1z"/>
			</g>
		</mask>
		<path class="st24" d="M-4.5,18.6h154V5.1h-154"/>
	</g>
	<g transform="translate(119 25.285)">
		<defs>
			<filter id="Adobe_OpacityMaskFilter_12_" filterUnits="userSpaceOnUse" x="-4.8" y="4.1" width="53.8" height="12.9">
				<feColorMatrix  type="matrix" values="1 0 0 0 0  0 1 0 0 0  0 0 1 0 0  0 0 0 1 0"/>
			</filter>
		</defs>
		<mask maskUnits="userSpaceOnUse" x="-4.8" y="4.1" width="53.8" height="12.9" id="z">
			<g class="st25">
				<path id="y" class="st1" d="M42.5,10l-2.8,0c-1.9,0-3.7,0-5.6,0c-11.8,0.1-18.4,0.1-22.6,0.1c-3.4,0-6.9,0-10.3-0.1
					c0.2,0,0.5,0.1,0.9,0.1c4.2,0,19.6,0,21.1,0l9.9,0c1.6,0,3.1,0,4.7,0l2.3,0l1.1,0l0.3,0c0.3,0,0.4,0,0.6,0.1
					c0.2,0.1,0.3,0.2,0.5,0.3c0.1,0.2,0.2,0.3,0.3,0.5c0.2-0.1,0.3-0.4,0.3-0.7C43,10.2,42.8,10,42.5,10L42.5,10L42.5,10z"/>
			</g>
		</mask>
		<path class="st26" d="M-4.8,17H49V4.1H-4.8"/>
	</g>
	<g transform="translate(17 25.285)">
		<defs>
			<filter id="Adobe_OpacityMaskFilter_13_" filterUnits="userSpaceOnUse" x="-4.7" y="4.1" width="55.3" height="13">
				<feColorMatrix  type="matrix" values="1 0 0 0 0  0 1 0 0 0  0 0 1 0 0  0 0 0 1 0"/>
			</filter>
		</defs>
		<mask maskUnits="userSpaceOnUse" x="-4.7" y="4.1" width="55.3" height="13" id="B">
			<g class="st27">
				<path id="A" class="st1" d="M1.7,10c-0.1,0-0.3,0.1-0.4,0.2c-0.1,0.1-0.1,0.2-0.1,0.4l0,0.4l0,0.1l0.1,0.1l0,0l0.2,0l0.8,0h0
					c0,0,0,0,0-0.1c0.1-0.2,0.2-0.4,0.4-0.6c0.2-0.1,0.4-0.2,0.7-0.2c0,0,0,0,0.1,0l1.3,0c4.1,0,8.3,0,12.4,0c2.9,0,5.8,0,8.6,0h0.3
					c1.8,0,10.3,0,17.1-0.2c0.5,0,1-0.1,1.4-0.1l-10.9,0l-26.6,0l-3.2,0l-1.6,0h0c-0.1,0-0.2,0-0.2,0H1.9C1.9,10,1.8,10,1.7,10
					L1.7,10z"/>
			</g>
		</mask>
		<path class="st28" d="M-4.7,17.1h55.3v-13H-4.7"/>
	</g>
	<g transform="translate(16 24.285)">
		<defs>
			<filter id="Adobe_OpacityMaskFilter_14_" filterUnits="userSpaceOnUse" x="-4.6" y="4.1" width="156.4" height="14.7">
				<feColorMatrix  type="matrix" values="1 0 0 0 0  0 1 0 0 0  0 0 1 0 0  0 0 0 1 0"/>
			</filter>
		</defs>
		<mask maskUnits="userSpaceOnUse" x="-4.6" y="4.1" width="156.4" height="14.7" id="D">
			<g class="st29">
				<path id="C" class="st1" d="M3.3,10c0,0-0.1,0-0.1,0c0,0-0.1,0-0.1,0H3c-0.1,0-0.3,0-0.5,0c-0.7,0.1-1.2,0.8-1.2,1.5v0.6
					c0,0.1,0,0.2,0.1,0.3c0.1,0.2,0.2,0.4,0.4,0.6v-0.3c0-0.1,0-0.2,0-0.3c0-0.1,0-0.2,0-0.4c0.1-0.5,0.3-0.9,0.6-1.3
					C2.7,10.4,3,10.2,3.3,10C3.4,10,3.3,10,3.3,10z M45.1,10.1c0.7,0.1,1.3,0.3,1.6,0.5c0,0,0.1,0.1,0.1,0.1l56.6,0
					c-0.1-0.2,0.1-0.4,0.4-0.6c-3.5,0-7,0-10.5,0c-9.4,0-18.6,0-28,0L45.1,10.1L45.1,10.1z M145.8,12.2c-0.1,0.1-0.2,0.1-0.3,0.1
					v0.6l0.2,0l0.1,0c0-0.2,0-0.3,0-0.5C145.9,12.3,145.9,12.2,145.8,12.2C145.9,12.2,145.8,12.2,145.8,12.2L145.8,12.2z"/>
			</g>
		</mask>
		<path class="st30" d="M-4.6,18.9h156.4V4.1H-4.6"/>
	</g>
	<g transform="translate(17 24.285)">
		<defs>
			<filter id="Adobe_OpacityMaskFilter_15_" filterUnits="userSpaceOnUse" x="-5.2" y="4.8" width="155.6" height="14.3">
				<feColorMatrix  type="matrix" values="1 0 0 0 0  0 1 0 0 0  0 0 1 0 0  0 0 0 1 0"/>
			</filter>
		</defs>
		<mask maskUnits="userSpaceOnUse" x="-5.2" y="4.8" width="155.6" height="14.3" id="F">
			<g class="st31">
				<path id="E" class="st1" d="M45.8,10.7c0,0.2-0.4,0.3-1.1,0.4c5.2,0,10.5,0,15.7,0L86.9,11c5.4,0,10.8,0.1,16.2,0.1
					c-0.4-0.1-0.7-0.2-0.7-0.4L45.8,10.7L45.8,10.7z M2.3,12.6c0-0.2,0-0.2,0-0.3c1,0,2,0,3,0l12,0l24.5,0c8.1,0,16.1,0,24.5,0
					l24.5,0c2.5,0,16.4,0,30.7,0c8.4,0,17.5,0,22.2,0c0.3,0,0.5,0,0.6,0V13l-0.6,0l-16.7,0.1c-11.1,0-22,0-26.8,0
					c-7.1,0-15.4,0-23.8,0c-8.4,0-17.2,0.1-24.3,0.1l-21.8-0.1c-7.4,0-14.8,0-22.2,0l-5.6,0H2.3V12.6L2.3,12.6z M144.5,12.3
					L144.5,12.3l0.1,0.6l-0.1,0V12.3L144.5,12.3z M0.7,12.7V13l0,0c0-0.2,0-0.4,0-0.7C0.7,12.5,0.7,12.6,0.7,12.7z"/>
			</g>
		</mask>
		<path class="st32" d="M-5.2,19.1h155.6V4.8H-5.2"/>
	</g>
	<g transform="translate(118 24.285)">
		<defs>
			<filter id="Adobe_OpacityMaskFilter_16_" filterUnits="userSpaceOnUse" x="-4.5" y="4.2" width="55.3" height="14.6">
				<feColorMatrix  type="matrix" values="1 0 0 0 0  0 1 0 0 0  0 0 1 0 0  0 0 0 1 0"/>
			</filter>
		</defs>
		<mask maskUnits="userSpaceOnUse" x="-4.5" y="4.2" width="55.3" height="14.6" id="H">
			<g class="st33">
				<path id="G" class="st1" d="M1.4,10.7c0.1,0.2,0.3,0.3,0.7,0.4c3.5,0,6.9,0,10.4,0.1l22.6-0.1l5.6,0l2.8,0c0,0,0,0,0,0
					c0.3,0,0.5,0.2,0.6,0.4c0.1,0.3,0,0.5-0.3,0.7c0,0.1,0,0.2,0,0.3v0.5l0.1,0l0.1,0l0,0l0,0l0,0l0.2-0.1c0.4-0.3,0.6-0.8,0.5-1.3
					c-0.1-0.5-0.5-0.9-1-1c-0.1,0-0.2-0.1-0.4-0.1h-0.3l-0.6,0l-1.2,0l-8.9,0c-5.6,0-10.5,0-13.2-0.1c-6,0-11.9,0-17.6,0
					C1.5,10.3,1.3,10.5,1.4,10.7L1.4,10.7z"/>
			</g>
		</mask>
		<path class="st34" d="M-4.5,18.8h55.3V4.2H-4.5"/>
	</g>
	<g transform="translate(17 23.285)">
		<defs>
			<filter id="Adobe_OpacityMaskFilter_17_" filterUnits="userSpaceOnUse" x="-5.1" y="5.1" width="56.8" height="15">
				<feColorMatrix  type="matrix" values="1 0 0 0 0  0 1 0 0 0  0 0 1 0 0  0 0 0 1 0"/>
			</filter>
		</defs>
		<mask maskUnits="userSpaceOnUse" x="-5.1" y="5.1" width="56.8" height="15" id="J">
			<g class="st35">
				<path id="I" class="st1" d="M3,11l-0.6,0c-0.4,0.2-0.7,0.4-1,0.7c-0.3,0.3-0.5,0.8-0.6,1.3c0,0.1,0,0.3,0,0.4c0,0.2,0,0.4,0,0.7
					c0.2,0.1,0.3,0.2,0.5,0.2l1.1,0v-0.6c0-0.2,0-0.2,0-0.3h0l-0.8,0H1.4l0,0l-0.1-0.1l0-0.1v-0.4c0-0.2,0.1-0.3,0.1-0.4
					C1.5,12.1,1.6,12,1.7,12c0,0,0.1,0,0.2,0l0.2,0l0.2,0h0.1l1.6,0c1.1,0,2.1,0,3.2,0c8.8,0,17.7,0,26.6,0c3.6,0,7.2,0,10.9,0
					c0.7-0.1,1.1-0.2,1.1-0.4c0,0,0-0.1-0.1-0.1c-0.3-0.2-0.9-0.4-1.6-0.5l-7.8,0C29,11.1,21.6,11,14.1,11C10.4,11,6.7,11,3,11L3,11
					z"/>
			</g>
		</mask>
		<path class="st36" d="M-5.1,20.1h56.8v-15H-5.1"/>
	</g>
	<g transform="translate(161 104.285)">
		<defs>
			<filter id="Adobe_OpacityMaskFilter_18_" filterUnits="userSpaceOnUse" x="-5.3" y="5.1" width="17.5" height="12.2">
				<feColorMatrix  type="matrix" values="1 0 0 0 0  0 1 0 0 0  0 0 1 0 0  0 0 0 1 0"/>
			</filter>
		</defs>
		<mask maskUnits="userSpaceOnUse" x="-5.3" y="5.1" width="17.5" height="12.2" id="L">
			<g class="st37">
				<path id="K" class="st1" d="M0.6,11v0.4c0.3,0,0.6,0,0.9,0c0.1,0,0.2,0,0.3,0c1,0,1.9-0.1,2.9-0.2v-0.1l1.6-0.1h0c0,0,0,0,0,0
					l0,0l-0.1,0c-0.3,0-0.7,0-1,0C4.6,11,4,11,3.4,11c-0.1,0-0.4,0-0.7,0C2.2,11,1.4,11,0.6,11L0.6,11z"/>
			</g>
		</mask>
		<path class="st38" d="M-5.3,17.3h17.5V5.1H-5.3"/>
	</g>
	<g transform="translate(18 104.285)">
		<defs>
			<filter id="Adobe_OpacityMaskFilter_19_" filterUnits="userSpaceOnUse" x="-4.6" y="4.7" width="154.1" height="15.7">
				<feColorMatrix  type="matrix" values="1 0 0 0 0  0 1 0 0 0  0 0 1 0 0  0 0 0 1 0"/>
			</filter>
		</defs>
		<mask maskUnits="userSpaceOnUse" x="-4.6" y="4.7" width="154.1" height="15.7" id="N">
			<g class="st39">
				<path id="M" class="st1" d="M29.3,10.9c-0.8,0-1.6,0-2.4,0c-2.5-0.1-4.7-0.2-6.6-0.2c-0.9,0-1.7,0-2.5,0.1c-0.5,0-0.9,0-1.3,0
					c-1,0-1.7,0-2.4-0.1c-0.1,0-0.3,0-0.5,0c-1.1,0-2.8,0.2-4.1,0.2c-0.2,0-0.3,0-0.5,0c-0.5,0-1-0.1-1.5-0.1
					c-0.5-0.1-1-0.1-1.6-0.1c-0.1,0-0.2,0-0.3,0c-1.5,0-2.8,0.2-4.2,0.3c0,0.1,0,0.1,0,0.1l0,0.1l0.2,0l1-0.1c0.4,0,0.8,0,1.2,0
					c1,0,1.8,0,2.6,0.1c0.1,0,0.4,0,0.7,0c1,0,2.7,0,4.4-0.1c1.6,0,3.2-0.1,3.8-0.1h0.1c4.1,0.1,4.2,0.2,8,0.2c0.4,0,0.8,0,1.3,0
					c5.2-0.1,10.4-0.1,15.1-0.2c3.2,0,6.1,0.1,8.8,0.2l4,0.1l2,0.1c0.8,0,1.6,0,2.5,0l0.2,0.5c0.1,0,0.2,0.1,0.3,0.1
					c-0.1-0.1-0.1-0.3-0.1-0.4c0-0.4,0-0.3,0-0.3l-0.1-0.1L57,11l-1.8,0c-6.8,0-11.2-0.4-17.4-0.4C35.3,10.7,32.2,10.9,29.3,10.9
					L29.3,10.9z M89.8,10.7c-0.7,0-1.4,0-2.1,0l-1.1,0c-0.3,0-0.8,0-0.9,0c-0.1,0-0.2,0.1-0.3,0.3c0,0.1,0,0.1,0,0.2
					c0,0.3-0.1,0.6-0.2,0.9c-0.3,0.5-0.8,1-1.4,1.1c-0.1,0-0.3,0-0.4,0l-0.3,0l-0.6,0c-1,0-2.1,0-3.1,0c-0.6,0-1.2,0-1.8,0
					c-0.2,0-0.3,0-0.5,0c-1.6,0-4.2-0.1-5.1-0.2c-0.9-0.1-1.8-0.2-3.1-0.2c-2.6,0-5.1,0.1-7.6,0.2l-1.9,0.1c0,0-0.1,0-0.1,0
					c-0.3,0-0.7-0.1-1-0.3c0,0.1,0.1,0.3,0.1,0.4c0,0.2,0,0.5,0,0.7v0.2c1.1,0,2.1,0,3.2,0c1.3,0,2.7-0.1,4-0.1
					c2.2-0.1,4.5-0.1,7-0.1c0.6,0,1.2,0,1.8,0c0.2,0,0.3,0,0.5,0c1.6,0,4.2,0.1,5.1,0.2c0.9,0.1,1.8,0.2,3.1,0.2c0.7,0,1.5,0,2.2,0
					c0.3,0,0.6,0,0.9,0v-0.1c0-0.1,0-0.7,0.1-1.1c0.1-0.3,0.2-0.6,0.5-0.9c0-0.4,0-0.8,0-1.1c0.9,0,1.8-0.1,2.6-0.1
					c0.6,0,1.3,0,1.9-0.1c1.3,0,2.6-0.1,4-0.1c6.8,0,11.2,0.4,17.4,0.4c2.4-0.2,5.5-0.3,8.4-0.3c0.8,0,1.6,0,2.4,0
					c2.5,0.1,4.7,0.2,6.6,0.2c0.9,0,1.7,0,2.5-0.1c0.5,0,0.9,0,1.3,0c1,0,1.7,0,2.4,0.1c0.1,0,0.3,0,0.5,0c1.1,0,2.8-0.2,4.1-0.2
					c0.2,0,0.3,0,0.5,0c0.5,0,1,0.1,1.5,0.1c0.2,0,0.4,0.1,0.7,0.1V11c-0.7,0-1.5,0-2.2,0c-1.6,0-3.2,0.1-3.8,0.1h-0.1
					c-4.1-0.1-4.2-0.2-8-0.2c-0.4,0-0.8,0-1.3,0c-5.2,0.1-10.4,0.1-15.1,0.2c-7.3,0-12.7-0.4-18.8-0.4c-0.4,0-0.7,0-1.1,0
					C92,10.7,90.9,10.7,89.8,10.7L89.8,10.7z"/>
			</g>
		</mask>
		<path class="st40" d="M-4.6,20.4h154.1V4.7H-4.6"/>
	</g>
	<g transform="translate(74 105.285)">
		<defs>
			<filter id="Adobe_OpacityMaskFilter_20_" filterUnits="userSpaceOnUse" x="-4.8" y="5" width="41.5" height="14.4">
				<feColorMatrix  type="matrix" values="1 0 0 0 0  0 1 0 0 0  0 0 1 0 0  0 0 0 1 0"/>
			</filter>
		</defs>
		<mask maskUnits="userSpaceOnUse" x="-4.8" y="5" width="41.5" height="14.4" id="P">
			<g class="st41">
				<path id="O" class="st1" d="M1.7,12.8c0.1,0.2,0.1,0.4,0.2,0.6l0.5,0v-0.2c0-0.2,0-0.5,0-0.7c0-0.1,0-0.3-0.1-0.4
					C2.2,12,2.1,12,2,11.9c-0.3-0.2-0.5-0.5-0.7-0.9c-0.1,0-0.2-0.1-0.3-0.1C1.1,10.9,1.7,12.8,1.7,12.8z M30.3,12.3
					c-0.1,0.4,0,0.9-0.1,1.1v0.1l0.2,0l0.5,0l0-0.3l0-0.2l0-0.4l0-1.1C30.5,11.6,30.3,11.9,30.3,12.3L30.3,12.3z"/>
			</g>
		</mask>
		<path class="st42" d="M-4.8,19.3h41.5V5H-4.8"/>
	</g>
	<g transform="translate(167 104.285)">
		<defs>
			<filter id="Adobe_OpacityMaskFilter_21_" filterUnits="userSpaceOnUse" x="-4.6" y="4.6" width="12.4" height="13.5">
				<feColorMatrix  type="matrix" values="1 0 0 0 0  0 1 0 0 0  0 0 1 0 0  0 0 0 1 0"/>
			</filter>
		</defs>
		<mask maskUnits="userSpaceOnUse" x="-4.6" y="4.6" width="12.4" height="13.5" id="R">
			<g class="st43">
				<path id="Q" class="st1" d="M1.4,10.8c0,0-0.1,0-0.1,0v1.4h0.4c0,0,0,0,0,0c0.1-0.2,0.1-0.4,0.1-0.5c0-0.2,0-0.4,0-0.5
					c0-0.2,0-0.5,0-0.7v0C1.7,10.7,1.6,10.8,1.4,10.8L1.4,10.8z"/>
			</g>
		</mask>
		<path class="st44" d="M-4.6,18.1H7.8V4.6H-4.6"/>
	</g>
	<g transform="translate(17 103.285)">
		<defs>
			<filter id="Adobe_OpacityMaskFilter_22_" filterUnits="userSpaceOnUse" x="-4.9" y="4.5" width="162.1" height="18.3">
				<feColorMatrix  type="matrix" values="1 0 0 0 0  0 1 0 0 0  0 0 1 0 0  0 0 0 1 0"/>
			</filter>
		</defs>
		<mask maskUnits="userSpaceOnUse" x="-4.9" y="4.5" width="162.1" height="18.3" id="T">
			<g class="st45">
				<path id="S" class="st1" d="M144.6,12c0.9,0,1.6,0,2.2,0c0.3,0,0.6,0,0.7,0c0.6,0,1.1,0,1.7,0.1l1,0l0.1,0l0,0c0,0,0,0,0,0h0
					c-0.5,0-1,0-1.6,0.1v0.1c-0.9,0.1-1.9,0.1-2.9,0.2c-0.1,0-0.2,0-0.3,0c-0.3,0-0.7,0-0.9,0v0.8l0.7,0c1.4,0,3.5,0,6,0v-1.4
					c-0.3-0.1-0.6-0.6-0.7-1.3c-0.1,0-0.2,0-0.3,0c-0.3,0-0.3,0-0.4,0.1c-0.1,0-0.2,0-0.5,0c-0.2,0-0.5,0-0.9,0
					c-0.9-0.1-1.9-0.1-2.6-0.1c-0.1,0.4-0.2,0.6-0.3,0.8c0,0-0.1,0.1-0.1,0.1c-0.1,0-0.2-0.4-0.3-0.9c-0.2,0-0.3,0-0.5,0L144.6,12
					L144.6,12z M88.8,12.9c0.2,0,0.3,0,0.5,0c0.1,0,0.2,0,0.3,0c0.1,0,0.2,0,0.2,0c0,0,0.1,0,0.1,0l2.7,0c1.8,0,3.6,0,5.4,0.1
					c3.1,0,6.1,0.1,9,0.1l-18.1-0.3L88.8,12.9L88.8,12.9z M1,13.1C1,13.1,1,13.2,1,13.1L20.6,13L1,13.1L1,13.1z M57,14.8L57,14.8
					c0.1,0.2,0.1,0.4,0.2,0.6c0,0.1,0.1,0.3,0.1,0.4v-0.4l0-0.4l0-0.1l-0.1-0.1L57,14.8L57,14.8z M89.4,15.1L89.4,15.1
					c0,0.1,0,0,0,0.2l0,0.5v0.3c0,0.1,0,0.3,0,0.4c0,0.1-0.1,0.3-0.1,0.4h0.1l0-1.5C89.4,15.3,89.4,15.2,89.4,15.1
					C89.4,15.1,89.4,15.1,89.4,15.1z"/>
			</g>
		</mask>
		<path class="st46" d="M-4.9,22.8h162.1V4.5H-4.9"/>
	</g>
	<g transform="translate(17 103.285)">
		<defs>
			<filter id="Adobe_OpacityMaskFilter_23_" filterUnits="userSpaceOnUse" x="-5.1" y="4.1" width="155.5" height="17.7">
				<feColorMatrix  type="matrix" values="1 0 0 0 0  0 1 0 0 0  0 0 1 0 0  0 0 0 1 0"/>
			</filter>
		</defs>
		<mask maskUnits="userSpaceOnUse" x="-5.1" y="4.1" width="155.5" height="17.7" id="V">
			<g class="st47">
				<path id="U" class="st1" d="M44.3,10l0.7,0c1.3,0,2.5,0,2.6,0.2c1.9-0.1,3.2-0.1,4.4-0.1c1.2,0,2.4,0,4.1,0c0.3,0,0.7,0,1,0
					l0.5,0l0.3,0c0.2,0,0.3,0,0.5,0.1c0.6,0.1,1.2,0.6,1.4,1.1c0.1,0.3,0.2,0.6,0.2,0.9l0,0.1l0,0l0,0.1l0.2,0.2l0.1,0l0.4,0
					c0.6,0,1.1-0.1,1.4-0.1c1.9,0.1,3.8,0.2,5.8,0.2c1.9,0,3.8,0,5.8-0.1c1.8,0,3.7-0.1,5.6-0.1h0.5c1,0,2,0,3,0l1.5,0.1
					c0.1,0,0.1,0,0.2,0c0,0,0,0,0.1,0l0.2-0.1c0-0.1,0.1-0.1,0.1-0.2c0-0.3,0.1-0.7,0.3-1c0.2-0.3,0.5-0.6,0.8-0.8
					c0.2-0.1,0.4-0.2,0.6-0.2c0.2,0,0.4,0,0.5,0h0l3.1-0.1c1.7-0.1,3.3-0.1,4.6-0.1c0.3,0,0.7,0,0.9,0c2.2,0.3,4.3,0.3,6.6,0.3
					c0.8,0,1.7,0,2.5,0c1.3,0,2.7,0,4.1,0c2,0,4.1,0,6.5,0.2c0.7-0.1,1.6-0.1,2.6-0.1c0.5,0,1.1,0,1.7,0c0.8,0,1.7,0,2.5,0
					c0.8,0,1.5,0,2.2-0.1c3,0.1,5.3,0.3,7.6,0.3c0.7,0,1.4,0,2.2,0c1.6,0,3.1,0,4.9-0.1c0.7,0,1.6,0,2.4-0.1c0.7,0,1.4-0.1,2-0.1
					c0.2,0,0.4,0,0.5,0c0.1,0,0.1,0,0.2,0c0.1,0,0.3,0,0.4,0V12c-0.7,0-1.5,0-2.2,0c-1.6,0-3.2,0.1-3.8,0.1h-0.1
					c-4.1-0.1-4.2-0.2-8-0.2c-0.4,0-0.8,0-1.3,0c-5.2,0.1-10.4,0.1-15.1,0.2c-7.3,0-12.7-0.4-18.8-0.4l-1.1,0c-1.2,0-2.3,0-3.4,0
					l-2.1,0l-1.1,0c-0.3,0-0.8,0-0.9,0c-0.1,0-0.2,0.1-0.3,0.3c0,0.1,0,0.1,0,0.2c0,0.3-0.1,0.6-0.2,0.9c-0.3,0.5-0.8,1-1.4,1.1
					c-0.1,0-0.3,0-0.4,0l-0.3,0l-0.6,0c-1,0-2.1,0-3.1,0c-0.6,0-1.2,0-1.8,0c-0.2,0-0.3,0-0.5,0c-1.6,0-4.2-0.1-5.1-0.2
					c-0.9-0.1-1.8-0.2-3.1-0.2c-2.6,0-5.1,0.1-7.6,0.2l-1.9,0.1c0,0-0.1,0-0.1,0c-0.3,0-0.7-0.1-1-0.3c-0.1-0.3-0.3-0.5-0.5-0.7
					c-0.1-0.1-0.3-0.3-0.5-0.3c-0.1-0.1-0.1-0.3-0.1-0.4c0-0.4,0-0.3,0-0.3l-0.1-0.1L58,12l-1.8,0c-6.8,0-11.2-0.4-17.4-0.4
					c-2.4,0.2-5.5,0.3-8.4,0.3c-0.8,0-1.6,0-2.4,0c-2.5-0.1-4.7-0.2-6.6-0.2c-0.9,0-1.7,0-2.5,0.1c-0.5,0-0.9,0-1.3,0
					c-1,0-1.7,0-2.4-0.1c-0.1,0-0.3,0-0.5,0c-1.1,0-2.8,0.2-4.1,0.2c-0.2,0-0.3,0-0.5,0c-0.5,0-1-0.1-1.5-0.1
					c-0.5-0.1-1-0.1-1.6-0.1c-0.1,0-0.2,0-0.3,0c-1.5,0-2.8,0.2-4.2,0.3c0,0.1,0,0.1,0,0.1l0,0.1l0.2,0c0.3,0,0.7,0,1-0.1
					c0.4,0,0.8,0,1.2,0c1,0,1.8,0,2.6,0.1c0.1,0,0.4,0,0.7,0c1,0,2.7,0,4.4-0.1c1.6,0,3.2-0.1,3.8-0.1h0.1c4.1,0.1,4.2,0.2,8,0.2
					c0.4,0,0.8,0,1.3,0c5.2-0.1,10.4-0.1,15.1-0.2c3.2,0,6.1,0.1,8.8,0.2c1.4,0,2.7,0.1,4,0.1l2,0.1c0.8,0,1.6,0,2.5,0l0.2,0.5
					c-0.1,0-0.2-0.1-0.3-0.1c-0.1,0-0.3,0-0.4,0h-0.6l-3.8,0C45,12.8,34.1,12.9,26.1,13c-1.2,0-3.2,0-5.5,0L1,13.1C1,13.1,1,13,1,13
					c0-0.1-0.1-0.2-0.1-0.4c0-0.2,0-0.6,0-0.7c0-0.2-0.1-0.4,0-0.9c0.1,0.6,0.4,1,0.6,1c0.3,0,0.5-0.4,0.6-1.5c2.8-0.1,6,0,8.3-0.1
					c0.5,0,1,0,1.4,0c1.7,0,3.1,0.1,5.3,0.2c4.4-0.1,7.9-0.2,11.4-0.3L40.3,10c0.1,0,0.3,0,0.5,0C41.6,10,43,10,44.3,10L44.3,10z
					 M92.3,12.1c1.3,0,2.6-0.1,3.9-0.1c6.8,0,11.2,0.4,17.4,0.4c2.4-0.2,5.5-0.3,8.4-0.3c0.8,0,1.6,0,2.4,0c2.5,0.1,4.7,0.2,6.6,0.2
					c0.9,0,1.7,0,2.5-0.1c0.5,0,0.9,0,1.3,0c1,0,1.7,0,2.4,0.1c0.1,0,0.3,0,0.5,0c1.1,0,2.8-0.2,4.1-0.2c0.2,0,0.3,0,0.5,0
					c0.5,0,1,0.1,1.5,0.1c0.2,0,0.4,0.1,0.7,0.1v0.8c-13.3-0.1-24.9,0-37.6-0.1l-18.1-0.3l-0.1,0.1c-0.3,0-0.7,0.1-0.9,0.4
					c-0.1,0-0.1,0.1-0.2,0.1c0-0.4,0-0.8,0-1.1c0.9,0,1.8-0.1,2.6-0.1L92.3,12.1L92.3,12.1z M66.6,15.2l-4,0.1l-3.2,0v0.5h3l5.4,0
					l10.9,0l5.5,0l2.7,0c0.3,0,0.2,0,0.2,0l0,0l0,0l0-0.4l-0.9,0l-2.2,0c-1.3,0-2.2-0.1-3.1-0.2c-0.8-0.1-3.5-0.2-5.1-0.2
					c-0.2,0-0.4,0-0.5,0c-0.6,0-1.2,0-1.8,0C71,15.1,68.8,15.2,66.6,15.2L66.6,15.2z"/>
			</g>
		</mask>
		<path class="st48" d="M-5.1,21.8h155.5V4.1H-5.1"/>
	</g>
	<g transform="translate(161 103.285)">
		<defs>
			<filter id="Adobe_OpacityMaskFilter_24_" filterUnits="userSpaceOnUse" x="-4.9" y="4.5" width="12.6" height="12.7">
				<feColorMatrix  type="matrix" values="1 0 0 0 0  0 1 0 0 0  0 0 1 0 0  0 0 0 1 0"/>
			</filter>
		</defs>
		<mask maskUnits="userSpaceOnUse" x="-4.9" y="4.5" width="12.6" height="12.7" id="X">
			<g class="st49">
				<path id="W" class="st1" d="M1.4,11.3c0,0,0.1,0,0.1-0.1c0.1-0.2,0.3-0.5,0.3-0.8c-0.3,0-0.6,0-0.8,0C1.1,11,1.2,11.3,1.4,11.3z
					"/>
			</g>
		</mask>
		<path class="st50" d="M-4.9,17.2H7.7V4.5H-4.9"/>
	</g>
	<g transform="translate(17 103.285)">
		<defs>
			<filter id="Adobe_OpacityMaskFilter_25_" filterUnits="userSpaceOnUse" x="-5" y="4.6" width="13" height="13.3">
				<feColorMatrix  type="matrix" values="1 0 0 0 0  0 1 0 0 0  0 0 1 0 0  0 0 0 1 0"/>
			</filter>
		</defs>
		<mask maskUnits="userSpaceOnUse" x="-5" y="4.6" width="13" height="13.3" id="Z">
			<g class="st51">
				<path id="Y" class="st1" d="M1.8,10.5c-0.1,0-0.1,0-0.3,0c-0.1,0-0.4,0.2-0.5,0.4l0,0c0.1,0.6,0.4,1,0.6,1
					c0.3,0,0.6-0.4,0.6-1.5C2,10.5,1.9,10.5,1.8,10.5L1.8,10.5z"/>
			</g>
		</mask>
		<path class="st52" d="M-5,17.9H8V4.6H-5"/>
	</g>
	<g transform="translate(17 105.285)">
		<defs>
			<filter id="Adobe_OpacityMaskFilter_26_" filterUnits="userSpaceOnUse" x="-4.9" y="4.9" width="162.4" height="16.1">
				<feColorMatrix  type="matrix" values="1 0 0 0 0  0 1 0 0 0  0 0 1 0 0  0 0 0 1 0"/>
			</filter>
		</defs>
		<mask maskUnits="userSpaceOnUse" x="-4.9" y="4.9" width="162.4" height="16.1" id="ab">
			<g class="st53">
				<path id="aa" class="st1" d="M57.2,10.8h0.1c0.1,0,0.3,0,0.4,0c0.1,0,0.2,0,0.3,0.1c0.2,0.6,0.4,1.3,0.6,1.9l0.2,0.6
					c0.2,0,0.3,0,0.5,0v0.5l0,0h0.3c0.9,0,1.8,0,2.7,0c1.8,0,3.6,0,5.4,0l10.9,0l5.5,0l2.7,0c0.3,0,0.2,0,0.2,0l0,0l0,0l0-0.4
					c0.1,0,0.1,0,0.2,0l0.4,0l0-0.3l0-0.2l0-0.4l0-1.1c0.1-0.1,0.1-0.1,0.2-0.1c0.2-0.2,0.6-0.3,0.9-0.4c0.2,0,0.3,0,0.5,0
					c0.1,0,0.2,0,0.3,0c0.1,0,0.2,0,0.2,0c0,0,0.1,0,0.1,0l2.7,0L98,11c3.1,0,6.1,0.1,9,0.1c12.7,0.1,24.3,0,37.6,0.1l0.7,0l6,0h0.4
					c-0.1,0.2-0.4,0.3-0.5,0.3c-0.1,0-0.2,0-0.2,0c-0.2,0-0.2,0-0.3-0.1v0.1c-2.8,0.1-6.2,0.1-8.7,0.1c-0.5,0-1,0-1.4,0
					c-1.7,0-3.1-0.1-5.3-0.2c-4.4,0.1-7.9,0.2-11.4,0.3L112.1,12c-0.1,0-0.3,0-0.5,0c-0.8,0-2.3,0-3.6,0c-0.2,0-0.4,0-0.7,0
					c-1.3,0-2.5,0-2.6-0.2c-1.9,0.1-3.2,0.1-4.4,0.1c-1.2,0-2.4,0-4.1,0c-1.3,0-2.8,0-4.2,0h-0.6c-0.5,0-0.9,0-1.3,0
					c-0.1,0-0.3,0-0.4,0l-0.3,0l0,0.1l0,0h0l0,0l0,0.4c0,0.2,0,0.4,0,0.6l0,0l0,0c0,0,0,0,0,0.2l0,0.5v0.3c0,0.2,0,0.3,0,0.4
					c0,0.1-0.1,0.3-0.1,0.4l-2.8,0l-2,0L80.2,15c-1.9,0-3.7,0.1-5.6,0.1c-2.2,0-4.4,0-6.4-0.2c-0.5,0-1,0-1.6,0
					c-1.2,0-2.7,0-4.1,0.1c-0.8,0-1.5,0-2.2,0.1c-0.3,0-0.7,0-1,0c-0.6,0-1.1,0-1.5,0c-0.1-0.4-0.3-0.8-0.4-1.1v-0.4l0-0.4l0-0.1
					l-0.1-0.1l-0.1,0l-0.2-0.8c0-0.1,0-0.1,0-0.2l-0.1,0c0,0,0,0-0.2,0l-0.9,0l-1.8,0c-0.4,0-0.8,0-1.2,0c-0.8,0-1.7,0-2.5,0
					c-1.3,0-2.7,0-4.1,0c-2,0-4.1,0-6.5-0.2c-0.7,0.1-1.6,0.1-2.6,0.1c-0.5,0-1.1,0-1.7,0c-0.8,0-1.7,0-2.5,0c-0.8,0-1.5,0-2.2,0.1
					c-3-0.1-5.3-0.3-7.6-0.3c-0.7,0-1.5,0-2.2,0c-1.6,0-3.1,0-4.9,0.2c-0.7,0-1.6,0-2.4,0.1c-0.7,0-1.4,0.1-2,0.1
					c-0.2,0-0.4,0-0.5,0l-0.2,0c-0.7,0-2.5-0.1-4.3-0.2c-0.4,0-0.7,0-0.9,0c-0.3,0-0.4,0-0.5,0c-0.1,0-0.1,0-0.4,0
					c-0.1,0-0.2,0-0.3,0L3,11.6c-0.1,0-0.3,0-0.4,0l-0.7,0c-0.2,0-0.4-0.1-0.6-0.1c-0.1-0.1-0.2-0.2-0.3-0.3L20.6,11
					c2.4,0,4.4,0,5.5,0l26.8-0.2l3.8,0H57.2L57.2,10.8z M59,11.9c-0.3-0.2-0.5-0.5-0.7-0.9c0.2,0.1,0.3,0.2,0.5,0.3
					c0.2,0.2,0.4,0.5,0.5,0.7C59.2,12,59.1,12,59,11.9L59,11.9z"/>
			</g>
		</mask>
		<path class="st54" d="M-4.9,20.9h162.4V4.9H-4.9"/>
	</g>
	<g transform="translate(167 103.285)">
		<defs>
			<filter id="Adobe_OpacityMaskFilter_27_" filterUnits="userSpaceOnUse" x="-5.3" y="4.6" width="13.1" height="13.1">
				<feColorMatrix  type="matrix" values="1 0 0 0 0  0 1 0 0 0  0 0 1 0 0  0 0 0 1 0"/>
			</filter>
		</defs>
		<mask maskUnits="userSpaceOnUse" x="-5.3" y="4.6" width="13.1" height="13.1" id="ad">
			<g class="st55">
				<path id="ac" class="st1" d="M1.3,11.8c0,0,0.1,0,0.1,0c0.2,0,0.3-0.1,0.5-0.4c0-0.4-0.2-0.7-0.5-0.8c-0.3-0.1-0.5-0.1-0.6-0.1
					c-0.1,0-0.1,0-0.2,0C0.7,11.2,1,11.7,1.3,11.8z"/>
			</g>
		</mask>
		<path class="st56" d="M-5.3,17.7H7.8V4.6H-5.3"/>
	</g>
	<g transform="translate(50 47.285)">
		<defs>
			<filter id="Adobe_OpacityMaskFilter_28_" filterUnits="userSpaceOnUse" x="-5.1" y="4.5" width="85.8" height="58.3">
				<feColorMatrix  type="matrix" values="1 0 0 0 0  0 1 0 0 0  0 0 1 0 0  0 0 0 1 0"/>
			</filter>
		</defs>
		<mask maskUnits="userSpaceOnUse" x="-5.1" y="4.5" width="85.8" height="58.3" id="af">
			<g class="st57">
				<path id="ae" class="st1" d="M1,11.1c-0.1,0.2-0.1,0.4-0.1,0.6c0,0.2,0,0.5,0,0.8c0,0.5,0,1.1,0,1.6c0,1.1,0,2.2,0,3.3l0,13.6
					c0,4.6,0,9.3,0,14l0,7.1l0,3.6c0,0.4,0.1,0.6,0.4,0.8c0.1,0.1,0.3,0.1,0.4,0.1l0.9,0c9.5,0,18.8,0.1,27.8,0.1
					c8.9,0,17.4,0.1,25,0.1c3.8,0,7.4,0,10.7,0l4.8,0c0.8,0,1.5,0,2.2,0l1.1,0h0.5l0.1-0.1l0.1-0.2l0-0.1h-0.1l-2.7,0l-5.4-0.1
					c-13.3-0.2-25.1-0.2-36.9-0.2h-3.4l-19.5,0c-0.8,0-1.7,0-2.5,0l-0.6,0c-0.3,0-0.6-0.1-0.9-0.2c-0.6-0.2-1.1-0.7-1.3-1.3
					c-0.1-0.3-0.2-0.6-0.2-0.9V53l0-1.3l0-2.6l0.1-10.7c0-1.9,0-12,0.1-22.9l0-4.1c0-0.4,0-0.7,0-1.1C1.2,10.6,1.1,10.8,1,11.1z"/>
			</g>
		</mask>
		<path class="st58" d="M-5.1,62.7h85.8V4.5H-5.1"/>
	</g>
	<g transform="translate(48 45.285)">
		<defs>
			<filter id="Adobe_OpacityMaskFilter_29_" filterUnits="userSpaceOnUse" x="-4.7" y="4.3" width="88.9" height="61.9">
				<feColorMatrix  type="matrix" values="1 0 0 0 0  0 1 0 0 0  0 0 1 0 0  0 0 0 1 0"/>
			</filter>
		</defs>
		<mask maskUnits="userSpaceOnUse" x="-4.7" y="4.3" width="88.9" height="61.9" id="ah">
			<g class="st59">
				<path id="ag" class="st1" d="M1.4,12.8c-0.1,0.3-0.1,0.6-0.1,0.9l0,0.8c0,0.5,0,1,0,1.5c0,4.1,0,8.3,0,12.6L1.2,55.4l0,1.7
					c0,0.3,0,0.5,0,1c0.1,0.4,0.3,0.8,0.5,1.2c0.3,0.3,0.6,0.6,1,0.7c0.3,0.1,0.7,0.2,1,0.2c0.1,0,0.1,0,0.1,0l1.7,0l6.9,0
					c4.6,0,9.2,0,13.8,0l26.7,0h18.3c1,0,1.9,0,2.9,0c0.5,0,0.9,0,1.4,0h0.8c0.3,0,0.7-0.1,1-0.3c0.3-0.2,0.5-0.6,0.7-0.9
					c0.1-0.2,0.1-0.4,0.1-0.5v-0.1c0,0,0,0,0,0l-0.3,0l-0.2,0l-0.3,0l-0.6,0v0.1l-0.1,0.2l-0.2,0.1H76c-0.4,0-0.7,0-1.1,0l-2.2,0
					c-1.5,0-3.1,0-4.8,0c-3.3,0-6.9,0-10.7,0c-7.6,0-16.1-0.1-25-0.1L4.5,58.6l-0.9,0c-0.2,0-0.3-0.1-0.4-0.1
					c-0.3-0.2-0.4-0.4-0.4-0.8l0-3.6c0-2.4,0-4.7,0-7.1l0-14l0-13.6l0-3.3c0-0.5,0-1.1,0-1.6c0-0.3,0-0.6,0-0.8c0-0.2,0-0.4,0.1-0.6
					c0.1-0.3,0.2-0.5,0.4-0.7c0-0.3,0-0.7,0-1c0-0.4,0.1-0.8,0.3-1.1C2.5,10.7,1.7,11.6,1.4,12.8L1.4,12.8z"/>
			</g>
		</mask>
		<path class="st60" d="M-4.7,66.2h88.8V4.3H-4.7"/>
	</g>
	<g transform="translate(51 37.285)">
		<defs>
			<filter id="Adobe_OpacityMaskFilter_30_" filterUnits="userSpaceOnUse" x="-4.7" y="4.7" width="87.3" height="23.4">
				<feColorMatrix  type="matrix" values="1 0 0 0 0  0 1 0 0 0  0 0 1 0 0  0 0 0 1 0"/>
			</filter>
		</defs>
		<mask maskUnits="userSpaceOnUse" x="-4.7" y="4.7" width="87.3" height="23.4" id="aj">
			<g class="st61">
				<path id="ai" class="st1" d="M9.7,12.9l0,2c0,1-0.9,1.8-2,1.8l-4.1,0c-1.3,0-2.4,1-2.4,2.2l0,2.4c0,0.4,0.3,0.7,0.7,0.7L76,22.2
					c0.4,0,0.7-0.3,0.7-0.6l0-2.4c0-1.2-1.1-2.2-2.4-2.2l-41.3-0.1c-1.1,0-2-0.8-2-1.8v-2c0-1.3-1.1-2.3-2.6-2.3l-16,0h0
					C10.8,10.6,9.7,11.6,9.7,12.9z"/>
			</g>
		</mask>
		<path class="st62" d="M-4.7,28.1h87.3V4.7H-4.7"/>
	</g>
	<g transform="translate(52 38.285)">
		<defs>
			<filter id="Adobe_OpacityMaskFilter_31_" filterUnits="userSpaceOnUse" x="-5" y="4.3" width="84.6" height="22">
				<feColorMatrix  type="matrix" values="1 0 0 0 0  0 1 0 0 0  0 0 1 0 0  0 0 0 1 0"/>
			</filter>
		</defs>
		<mask maskUnits="userSpaceOnUse" x="-5" y="4.3" width="84.6" height="22" id="al">
			<g class="st63">
				<path id="ak" class="st1" d="M11,10.2c-0.2,0-0.4,0-0.5,0.1c-0.1,0.1-0.2,0.2-0.3,0.3c-0.1,0.1-0.3,0.3-0.4,0.5
					c-0.1,0.1-0.1,0.2-0.2,0.3l-0.1,0.2l0,0.1l0,0l-0.1,0.3c-0.1,0.4,0,0.8-0.1,1.5c-0.1,0.3-0.1,0.6-0.3,0.9c-0.2,1.2-1.2,2-2.5,2
					h0l-3.9,0c-0.2,0-0.4,0.1-0.6,0.2c-0.7,0.4-1.2,1.2-1.2,2l0,1.8l1.5,0C3,20.3,4,20.1,5.3,20c11.5-0.1,25.5-0.1,32.2-0.1
					c2.2,0,3.6,0,3.9,0L63.1,20c3.6,0,7.1,0,10.7,0l0-1.9c0-0.4-0.2-0.8-0.5-1.1c-0.3-0.3-0.8-0.5-1.3-0.5v-0.6v0.6l-40.6-0.1
					c-0.7,0-1.3-0.3-1.8-0.7s-0.8-1.1-0.8-1.7l0-2c0-0.5-0.2-0.9-0.6-1.2c-0.3-0.3-0.8-0.5-1.4-0.5L11,10.2L11,10.2z"/>
			</g>
		</mask>
		<path class="st64" d="M-5,26.3h84.6v-22H-5"/>
	</g>
	<g transform="translate(59 36.285)">
		<defs>
			<filter id="Adobe_OpacityMaskFilter_32_" filterUnits="userSpaceOnUse" x="-4.9" y="5.1" width="77.7" height="18.8">
				<feColorMatrix  type="matrix" values="1 0 0 0 0  0 1 0 0 0  0 0 1 0 0  0 0 0 1 0"/>
			</filter>
		</defs>
		<mask maskUnits="userSpaceOnUse" x="-4.9" y="5.1" width="77.7" height="18.8" id="an">
			<g class="st65">
				<path id="am" class="st1" d="M4.2,11.2c0-0.1,0-0.1-0.1-0.2l15.7,0c0.9,0,1.6,0.3,2.2,0.8c0.6,0.5,0.9,1.3,0.9,2.1l0,2
					c0,0.3,0.1,0.6,0.4,0.9c0.2,0.2,0.6,0.4,1,0.4L65,17.3l0,0.6l-40-0.1c-1.1,0-2-0.8-2-1.8l0-2c0-1.3-1.1-2.3-2.6-2.3l-16,0h0
					c-0.1,0-0.1,0-0.2,0C4.2,11.5,4.2,11.3,4.2,11.2L4.2,11.2z M1,13.6C1,13.5,1,13.4,1,13.2l0-0.1c0.1-0.2,0.2-0.4,0.3-0.6
					c0.1-0.1,0.1-0.2,0.2-0.3C1.2,12.6,1,13.1,1,13.6L1,13.6z M65,17.3c0.7,0,1.4,0.2,1.9,0.7c-0.2-0.1-0.4-0.1-0.6-0.1H65V17.3z"/>
			</g>
		</mask>
		<path class="st66" d="M-4.9,23.9h77.7V5.1H-4.9"/>
	</g>
	<g transform="translate(52 37.285)">
		<defs>
			<filter id="Adobe_OpacityMaskFilter_33_" filterUnits="userSpaceOnUse" x="-4.9" y="4.7" width="85.8" height="23.1">
				<feColorMatrix  type="matrix" values="1 0 0 0 0  0 1 0 0 0  0 0 1 0 0  0 0 0 1 0"/>
			</filter>
		</defs>
		<mask maskUnits="userSpaceOnUse" x="-4.9" y="4.7" width="85.8" height="23.1" id="ap">
			<g class="st67">
				<path id="ao" class="st1" d="M11.3,10.6L11.3,10.6l16.1,0c1.4,0,2.6,1.1,2.6,2.3l0,2c0,1,0.9,1.8,2,1.8l40,0.1v0.6l-40.6-0.1
					c-0.7,0-1.3-0.3-1.8-0.7c-0.5-0.4-0.8-1.1-0.8-1.7l0-2c0-0.5-0.2-0.9-0.6-1.2c-0.3-0.3-0.8-0.5-1.4-0.5l-15.8,0h0
					c-0.2,0-0.4,0-0.6,0.1c0.2-0.2,0.4-0.5,0.6-0.7C11.1,10.6,11.2,10.6,11.3,10.6L11.3,10.6z M8.5,16.2c-0.5,0.5-1.1,0.8-1.7,1
					c-0.4,0.1-0.7,0.1-1,0.1c-0.1,0-0.2,0-0.3,0c-0.1,0-0.2,0-0.3,0c-0.1,0-0.2,0-0.2,0l-1.6,0H3.3c-0.2,0-0.4,0-0.5,0.1l3.9,0l0,0
					c1.2,0,2.3-0.9,2.5-2C8.9,15.6,8.7,15.9,8.5,16.2L8.5,16.2z M72,16.9h1.3c0.2,0,0.4,0,0.6,0.1c0.1,0,0.1,0.1,0.2,0.1
					c0.5,0.5,0.9,1.2,0.9,2l0,2.1C74.6,21,74.3,21,74,21h-0.3l0-1.9c0-0.4-0.2-0.8-0.5-1.1c-0.3-0.3-0.8-0.5-1.3-0.5L72,16.9
					L72,16.9z M0.9,21.9l1.5,0c-0.1,0-0.1-0.1-0.1-0.1c-0.2-0.1-0.1-0.2,0.2-0.3l-1.5,0L0.9,21.9L0.9,21.9z"/>
			</g>
		</mask>
		<path class="st68" d="M-4.9,27.8h85.8V4.7H-4.9"/>
	</g>
	<g transform="translate(51 90.285)">
		<defs>
			<filter id="Adobe_OpacityMaskFilter_34_" filterUnits="userSpaceOnUse" x="-5" y="4.7" width="87.7" height="14.3">
				<feColorMatrix  type="matrix" values="1 0 0 0 0  0 1 0 0 0  0 0 1 0 0  0 0 0 1 0"/>
			</filter>
		</defs>
		<mask maskUnits="userSpaceOnUse" x="-5" y="4.7" width="87.7" height="14.3" id="ar">
			<g class="st69">
				<path id="aq" class="st1" d="M0.9,11c0,0.3,0.2,1.1,1,1.5c0.2,0.1,0.5,0.2,0.8,0.2c0.2,0,0.5,0,0.7,0c0.5,0,1.1,0.1,1.7,0.1
					c1.2,0,2.7,0.1,4.5,0.1c1.3,0,34.8,0.3,53.3,0.2c4.5-0.1,8.4-0.1,11.1-0.3c0.7,0,1.2-0.1,1.7-0.1c0.7-0.1,1-0.6,1.1-0.9
					c0.1-0.3,0-0.5,0-0.5c-0.1,0-0.1,0.1-0.2,0.4c-0.1,0.2-0.4,0.5-0.7,0.5c-0.3,0-0.8-0.1-1.2-0.1c-0.9-0.1-2-0.1-3.2-0.2
					c-2.4-0.1-5.3-0.2-8.4-0.3C49,11.5,10.3,11.5,8.5,11.5c-2.4,0-4.4,0.1-5.8,0.2c-0.5,0.1-0.9-0.2-1.1-0.5
					c-0.2-0.3-0.3-0.5-0.4-0.6c0,0,0,0-0.1,0C1,10.6,0.9,10.7,0.9,11L0.9,11z"/>
			</g>
		</mask>
		<path class="st70" d="M-5,19.1h87.7V4.7H-5"/>
	</g>
	<g transform="translate(117 42.285)">
		<defs>
			<filter id="Adobe_OpacityMaskFilter_35_" filterUnits="userSpaceOnUse" x="-5.3" y="4.9" width="21.6" height="18">
				<feColorMatrix  type="matrix" values="1 0 0 0 0  0 1 0 0 0  0 0 1 0 0  0 0 0 1 0"/>
			</filter>
		</defs>
		<mask maskUnits="userSpaceOnUse" x="-5.3" y="4.9" width="21.6" height="18" id="at">
			<g class="st71">
				<path id="as" class="st1" d="M0.6,11.5c0.3,0.8,1.8,0.7,2.2,0.7c1.1,0.1,2.1,0,3.2,0.2c0.6,0.1,1,0.1,1.4,0.3
					c0.4,0.2,0.7,0.4,1,0.7c0.3,0.3,0.5,0.8,0.6,1.2c0.1,0.2,0.2,1.5,0.2,2c0,0.6,1.2,0.8,1.2-0.1l0-1.3c0-0.5,0-1.1-0.1-1.2
					c-0.1-0.8-0.6-1.5-1.1-2c-0.5-0.5-1.2-0.8-2-1.1c-0.2-0.1-0.4-0.1-0.6-0.1l-0.5,0c-0.3,0-0.7,0-1,0c-0.7,0-1.4,0-2,0H3
					C2.6,10.8,0.3,10.8,0.6,11.5z"/>
			</g>
		</mask>
		<path class="st72" d="M-5.3,22.9h21.6v-18H-5.3"/>
	</g>
	<g transform="translate(51 48.285)">
		<defs>
			<filter id="Adobe_OpacityMaskFilter_36_" filterUnits="userSpaceOnUse" x="-4.6" y="5" width="87.4" height="55.5">
				<feColorMatrix  type="matrix" values="1 0 0 0 0  0 1 0 0 0  0 0 1 0 0  0 0 0 1 0"/>
			</filter>
		</defs>
		<mask maskUnits="userSpaceOnUse" x="-4.6" y="5" width="87.4" height="55.5" id="av">
			<g class="st73">
				<path id="au" class="st1" d="M1.5,11l0,20.1c0,3.2-0.1,6.5-0.1,9.8c0,1.7-0.1,6.6-0.1,8.3c0,0.4,0,0.9,0.1,1.5
					c0.1,0.5-0.3,2.7,0,3.2c0.4,0.6,1,0.4,1.8,0.3c0.5-0.1,1-0.2,1.4-0.1c0.5,0.2,1.2,0.2,1.6,0.2l1.3,0l2.7,0c1.8,0,3.6,0,5.4,0
					l10.8,0l21.5,0.1l21.5-0.2l2.7,0c1.1,0,3.6-0.2,4.4-1c0.8-0.8-0.1-2.3-0.1-3.5l0.1-2.7c0.1-3.6,0.2-10.5,0.2-14.1l-0.2-18.6
					c0-0.9,0-1.9,0-2.8c0-0.4-0.3-0.6-0.7-0.6L1.5,10.9L1.5,11L1.5,11z"/>
			</g>
		</mask>
		<path class="st74" d="M-4.6,60.4h87.4V5H-4.6"/>
	</g>
	<g transform="translate(98 10.285)">
		<defs>
			<filter id="Adobe_OpacityMaskFilter_37_" filterUnits="userSpaceOnUse" x="-4.7" y="4.6" width="19.1" height="40.9">
				<feColorMatrix  type="matrix" values="1 0 0 0 0  0 1 0 0 0  0 0 1 0 0  0 0 0 1 0"/>
			</filter>
		</defs>
		<mask maskUnits="userSpaceOnUse" x="-4.7" y="4.6" width="19.1" height="40.9" id="ax">
			<g class="st75">
				<path id="aw" class="st1" d="M1.2,10.6l7.3,29.1L2.4,11.3c-0.1-0.4-0.5-0.7-0.9-0.7C1.4,10.5,1.3,10.5,1.2,10.6L1.2,10.6z"/>
			</g>
		</mask>
		<path class="st76" d="M-4.7,45.5h19.1V4.6H-4.7"/>
	</g>
	<g transform="translate(98 10.285)">
		<defs>
			<filter id="Adobe_OpacityMaskFilter_38_" filterUnits="userSpaceOnUse" x="-4.6" y="4.3" width="19.1" height="41.3">
				<feColorMatrix  type="matrix" values="1 0 0 0 0  0 1 0 0 0  0 0 1 0 0  0 0 0 1 0"/>
			</filter>
		</defs>
		<mask maskUnits="userSpaceOnUse" x="-4.6" y="4.3" width="19.1" height="41.3" id="az">
			<g class="st77">
				<path id="ay" class="st1" d="M1.2,10.6l0.1,0.2l0.2,0.2l0.1,0.2l0,0.1c0,0,0,0.3,0.1,0.4L2,13.2c0.3,1.2,0.8,3.8,0.9,4.1
					c0.5,2.9,1.3,5,1.6,7.8c0.3,2.9,1.2,5.7,1.7,8.5c0,0.1,0.4,2,0.9,3.5c0.5,1.7,1,3.1,1.3,2.6c0.3-0.5,0.2-1.6,0.1-2.9
					c-0.1-1.1-0.4-2.4-0.5-3C7.5,31.4,7,29.4,6.6,27c-0.3-2.4-0.8-4.8-1.4-7.1c-0.3-1.1-0.7-2.6-1-3.8l-0.9-3.3L3,11.3
					c0-0.2-0.2-0.7-0.4-0.9c-0.2-0.2-0.5-0.3-0.7-0.3h0C1.4,10.2,1.2,10.4,1.2,10.6z"/>
			</g>
		</mask>
		<path class="st78" d="M-4.6,45.6h19.1V4.3H-4.6"/>
	</g>
	<path class="st1" d="M74.7,21.8L68.9,26l-9.3,3.6L65.9,58l52,0.6l2.1-38.4"/>
	<g transform="translate(58 16.285)">
		<defs>
			<filter id="Adobe_OpacityMaskFilter_39_" filterUnits="userSpaceOnUse" x="-4.5" y="4.4" width="19.2" height="42.6">
				<feColorMatrix  type="matrix" values="1 0 0 0 0  0 1 0 0 0  0 0 1 0 0  0 0 0 1 0"/>
			</filter>
		</defs>
		<mask maskUnits="userSpaceOnUse" x="-4.5" y="4.4" width="19.2" height="42.6" id="aB">
			<g class="st79">
				<path id="aA" class="st1" d="M2.2,12c-0.5,0.1-0.8,0.6-0.7,1.1l6.1,28l1.3-30.8L2.2,12L2.2,12z"/>
			</g>
		</mask>
		<path class="st80" d="M-4.5,47.1h19.2V4.4H-4.5"/>
	</g>
	<g transform="translate(58 16.285)">
		<defs>
			<filter id="Adobe_OpacityMaskFilter_40_" filterUnits="userSpaceOnUse" x="-5.2" y="4.4" width="20" height="42.6">
				<feColorMatrix  type="matrix" values="1 0 0 0 0  0 1 0 0 0  0 0 1 0 0  0 0 0 1 0"/>
			</filter>
		</defs>
		<mask maskUnits="userSpaceOnUse" x="-5.2" y="4.4" width="20" height="42.6" id="aD">
			<g class="st81">
				<path id="aC" class="st1" d="M5.8,10.5c-1.4,0.2-3,0.7-3.7,0.8c-0.6,0.1-1.1,0.6-1.3,1.1c-0.1,0.3-0.1,0.6,0,0.9l0.1,0.6
					C1,14.6,1.1,15.3,1.2,16c0.3,1.4,0.6,2.7,0.8,4.2c0.5,3,1.1,6,1.8,8.9c0.3,1.4,0.8,3.3,1.2,4.7L6.1,38c0.2,0.7,0.3,1.2,0.4,1.6
					c0.4,2,2.1,2.4,1.4-0.5l-0.3-1.4c-0.3-1.6-1-4.7-1.1-5.1c-0.6-3.6-1.6-6.2-2-9.8c-0.2-1.8-0.6-3.6-1-5.3l-0.6-2.6l-0.3-1.3
					l-0.1-0.3v0l0,0v0l0,0L2.8,13l0.6-0.2c0.8-0.2,1.9-0.6,2.8-0.9c1.8-0.6,3.2-1.2,2.7-1.4c-0.2-0.1-0.6-0.2-1-0.2
					C7.2,10.3,6.5,10.4,5.8,10.5L5.8,10.5z"/>
			</g>
		</mask>
		<path class="st82" d="M-5.2,47h20V4.4h-20"/>
	</g>
	<g transform="translate(111 9.285)">
		<defs>
			<filter id="Adobe_OpacityMaskFilter_41_" filterUnits="userSpaceOnUse" x="-5.3" y="4.2" width="20" height="49.8">
				<feColorMatrix  type="matrix" values="1 0 0 0 0  0 1 0 0 0  0 0 1 0 0  0 0 0 1 0"/>
			</filter>
		</defs>
		<mask maskUnits="userSpaceOnUse" x="-5.3" y="4.2" width="20" height="49.8" id="aF">
			<g class="st83">
				<path id="aE" class="st1" d="M7,48.2l1.9-36.3c0-0.5-0.4-1-0.9-1l-7.4-0.7L7,48.2z"/>
			</g>
		</mask>
		<path class="st84" d="M-5.3,54.1h20V4.2h-20"/>
	</g>
	<g transform="translate(111 8.285)">
		<defs>
			<filter id="Adobe_OpacityMaskFilter_42_" filterUnits="userSpaceOnUse" x="-5.3" y="4.7" width="21.1" height="50.4">
				<feColorMatrix  type="matrix" values="1 0 0 0 0  0 1 0 0 0  0 0 1 0 0  0 0 0 1 0"/>
			</filter>
		</defs>
		<mask maskUnits="userSpaceOnUse" x="-5.3" y="4.7" width="21.1" height="50.4" id="aH">
			<g class="st85">
				<path id="aG" class="st1" d="M0.7,11c0.4,0.4,1.6,0.8,2.9,1c0.9,0.2,1.9,0.3,2.7,0.4C7.1,12.5,8,12.5,8,12.6l0.1,0.2
					c0,0.1,0,0.1,0,0.4L8,14.5l-0.2,2.7c-0.1,1.8-0.2,3.5-0.4,5.4c-0.4,3.8-0.6,7.8-0.8,11.5c-0.1,1.8-0.1,4.3-0.1,6.2
					c0,0.9-0.1,3.6-0.1,5.4l-0.1,1.6c-0.1,2,1.4,2.9,1.5-0.1L8,45.8c0.1-2,0.3-6.1,0.4-6.6c0.4-4.6,0.2-8.1,0.8-12.7
					c0.3-2.3,0.4-4.6,0.5-6.9c0.1-1.1,0.1-2.3,0.1-3.4l0.1-1.7l0.1-0.9c0-0.3,0.1-0.5,0-1.1c0-0.1-0.1-0.6-0.6-1.1
					c-0.2-0.2-0.6-0.5-1.1-0.5c-0.3,0-0.4,0-0.5,0l-0.4,0c-1.1-0.1-2.5-0.2-3.7-0.2c-0.3,0-0.6,0-0.9,0C1.3,10.6,0.3,10.7,0.7,11z"
					/>
			</g>
		</mask>
		<path class="st86" d="M-5.3,55.1h21.1V4.7H-5.3"/>
	</g>
	<g transform="translate(76 12.285)">
		<defs>
			<filter id="Adobe_OpacityMaskFilter_43_" filterUnits="userSpaceOnUse" x="-4.9" y="4.7" width="13.8" height="33.5">
				<feColorMatrix  type="matrix" values="1 0 0 0 0  0 1 0 0 0  0 0 1 0 0  0 0 0 1 0"/>
			</filter>
		</defs>
		<mask maskUnits="userSpaceOnUse" x="-4.9" y="4.7" width="13.8" height="33.5" id="aJ">
			<g class="st87">
				<path id="aI" class="st1" d="M2,11.5L1,32.4l2-21.7l0,0C2.5,10.6,2,11,2,11.5L2,11.5z"/>
			</g>
		</mask>
		<path class="st88" d="M-4.9,38.2H8.9V4.7H-4.9"/>
	</g>
	<g transform="translate(75 12.285)">
		<defs>
			<filter id="Adobe_OpacityMaskFilter_44_" filterUnits="userSpaceOnUse" x="-4.5" y="4.7" width="14.4" height="33.5">
				<feColorMatrix  type="matrix" values="1 0 0 0 0  0 1 0 0 0  0 0 1 0 0  0 0 0 1 0"/>
			</filter>
		</defs>
		<mask maskUnits="userSpaceOnUse" x="-4.5" y="4.7" width="14.4" height="33.5" id="aL">
			<g class="st89">
				<path id="aK" class="st1" d="M2.8,11.1c-0.2,0.4-0.2,0.6-0.3,0.9c-0.1,0.3-0.1,0.6-0.1,0.9c-0.2,0.8-0.2,1.6-0.2,2
					c-0.2,1.6-0.2,3-0.4,4.5c-0.2,1.6-0.4,3.2-0.4,4.8c0,0.8,0,1.8,0,2.6c0,0.4,0,1.5,0,2.3l-0.1,1.6c-0.1,1.9,1.3,2.7,1.4-0.1
					l0.1-1.3c0-0.8,0.2-2.6,0.2-2.8c0.2-1.9,0-3.4,0.4-5.3c0.4-1.9,0.2-3.8,0.4-5.7c0-0.1,0.1-1.4-0.1-2.4c0-0.5,0-0.9-0.1-1.3
					l0-0.1l0-0.1l0-0.1l0-0.2c0.1-0.2,0.4-0.3,0.2-0.5c-0.1-0.1-0.2-0.1-0.4-0.1C3.3,10.6,3,10.7,2.8,11.1L2.8,11.1z"/>
			</g>
		</mask>
		<path class="st90" d="M-4.5,38.3H9.9V4.7H-4.5"/>
	</g>
	<path class="st1" d="M68.6,25.1l0,32.7h41.9l0-32.8"/>
	<g transform="translate(68 1.285)">
		<defs>
			<filter id="Adobe_OpacityMaskFilter_45_" filterUnits="userSpaceOnUse" x="-5.3" y="4.7" width="53.7" height="57.1">
				<feColorMatrix  type="matrix" values="1 0 0 0 0  0 1 0 0 0  0 0 1 0 0  0 0 0 1 0"/>
			</filter>
		</defs>
		<mask maskUnits="userSpaceOnUse" x="-5.3" y="4.7" width="53.7" height="57.1" id="aN">
			<g class="st91">
				<path id="aM" class="st1" d="M41.5,10.6l-40,0.1c-0.5,0-0.9,0.4-0.9,0.9l0.3,44.1l41,0.2l0.5-44.4C42.5,11,42,10.6,41.5,10.6
					L41.5,10.6z"/>
			</g>
		</mask>
		<path class="st92" d="M-5.3,61.9h53.7V4.7H-5.3"/>
	</g>
	<g transform="translate(74 6.285)">
		<defs>
			<filter id="Adobe_OpacityMaskFilter_46_" filterUnits="userSpaceOnUse" x="-5" y="5" width="21.4" height="20.2">
				<feColorMatrix  type="matrix" values="1 0 0 0 0  0 1 0 0 0  0 0 1 0 0  0 0 0 1 0"/>
			</filter>
		</defs>
		<mask maskUnits="userSpaceOnUse" x="-5" y="5" width="21.4" height="20.2" id="aP">
			<g class="st93">
				<path id="aO" class="st1" d="M5,11.1l-4.1,7.8c-0.1,0.2,0.1,0.4,0.3,0.4h9c0.3,0,0.4-0.2,0.3-0.4l-4.9-7.8
					c-0.1-0.1-0.2-0.2-0.3-0.2C5.2,10.9,5.1,11,5,11.1L5,11.1z"/>
			</g>
		</mask>
		<path class="st94" d="M-5,25.2h21.4V5H-5"/>
	</g>
	<g transform="translate(71 20.285)">
		<defs>
			<filter id="Adobe_OpacityMaskFilter_47_" filterUnits="userSpaceOnUse" x="-4.6" y="4.2" width="45.7" height="12.9">
				<feColorMatrix  type="matrix" values="1 0 0 0 0  0 1 0 0 0  0 0 1 0 0  0 0 0 1 0"/>
			</filter>
		</defs>
		<mask maskUnits="userSpaceOnUse" x="-4.6" y="4.2" width="45.7" height="12.9" id="aR">
			<g class="st95">
				<path id="aQ" class="st1" d="M11.5,10.1c-1.3,0-3.1,0.1-4.4,0.1l-3.8,0.1c-0.4,0-0.7,0.1-0.9,0.1c-1.2,0-1.6,0.8,0.1,0.8h0.8
					c1.4,0,4.3,0,4.7,0c1.4,0,2.7,0,3.9,0c1.6,0,3.2-0.1,5.1,0c1.9,0.1,3.8,0.1,5.7,0.1c1.4,0,2.7,0,4.1,0c0.1,0,4.7,0,6.4-0.1
					c1.1-0.1,3.6-0.3,1-0.4c-1.3-0.1-6.1-0.4-6.7-0.4c-2.7-0.1-5,0-7.7-0.1c-2.1-0.1-4.2-0.1-6.3-0.1C12.7,10.1,12.1,10.1,11.5,10.1
					L11.5,10.1z"/>
			</g>
		</mask>
		<path class="st96" d="M-4.6,17.1h45.7V4.2H-4.6"/>
	</g>
	<g transform="translate(72 26.285)">
		<defs>
			<filter id="Adobe_OpacityMaskFilter_48_" filterUnits="userSpaceOnUse" x="-5.4" y="4.9" width="45.7" height="13">
				<feColorMatrix  type="matrix" values="1 0 0 0 0  0 1 0 0 0  0 0 1 0 0  0 0 0 1 0"/>
			</filter>
		</defs>
		<mask maskUnits="userSpaceOnUse" x="-5.4" y="4.9" width="45.7" height="13" id="aT">
			<g class="st97">
				<path id="aS" class="st1" d="M11.6,10.8c-1.4,0-3.3,0.1-4.8,0.1L2.7,11c-0.5,0-0.8,0.1-1,0.1c-1.3,0-1.8,0.9,0.1,0.9h0.9
					c1.6,0,4.7-0.1,5.1-0.1c1.5,0,2.9,0,4.3,0c1.8,0,3.5-0.1,5.5,0c2,0.1,4.1,0.1,6.1,0.1c1.5,0,3,0,4.5,0c0.1,0,2.5,0,4.4-0.1
					c1.2-0.1,2.1-0.2,1.9-0.4c-0.3-0.2-1-0.3-1.9-0.4c-1.4-0.1-3-0.1-3.7-0.1c-3-0.1-5.4,0-8.4-0.1c-2.2-0.1-4.6-0.1-6.8-0.1
					C13,10.8,12.3,10.8,11.6,10.8L11.6,10.8z"/>
			</g>
		</mask>
		<path class="st98" d="M-5.4,17.9h45.7v-13H-5.4"/>
	</g>
	<g transform="translate(72 33.285)">
		<defs>
			<filter id="Adobe_OpacityMaskFilter_49_" filterUnits="userSpaceOnUse" x="-5.4" y="5" width="45.7" height="13">
				<feColorMatrix  type="matrix" values="1 0 0 0 0  0 1 0 0 0  0 0 1 0 0  0 0 0 1 0"/>
			</filter>
		</defs>
		<mask maskUnits="userSpaceOnUse" x="-5.4" y="5" width="45.7" height="13" id="aV">
			<g class="st99">
				<path id="aU" class="st1" d="M11.6,10.9c-1.4,0-3.3,0.1-4.8,0.1c-0.7,0-2.8,0.1-4.2,0.1c-0.5,0-0.8,0.1-1,0.1
					c-1.3,0-1.8,0.9,0.1,0.9h0.9C4.2,12,7.4,12,7.8,12c1.5,0,2.9,0,4.3,0c1.8,0,3.5-0.1,5.5,0c2,0.1,4.1,0.1,6.1,0.1
					c1.5,0,3,0,4.4,0c0.1,0,2.5,0,4.4-0.1c1.2-0.1,2.1-0.2,1.9-0.4c-0.3-0.2-1-0.3-1.9-0.4c-1.4-0.1-3-0.1-3.7-0.1
					c-3-0.1-5.4,0-8.4-0.1c-2.2-0.1-4.6-0.1-6.8-0.1C13,10.9,12.3,10.9,11.6,10.9z"/>
			</g>
		</mask>
		<path class="st100" d="M-5.4,18h45.7V5H-5.4"/>
	</g>
	<g transform="translate(72 40.285)">
		<defs>
			<filter id="Adobe_OpacityMaskFilter_50_" filterUnits="userSpaceOnUse" x="-5.4" y="5.1" width="45.7" height="13">
				<feColorMatrix  type="matrix" values="1 0 0 0 0  0 1 0 0 0  0 0 1 0 0  0 0 0 1 0"/>
			</filter>
		</defs>
		<mask maskUnits="userSpaceOnUse" x="-5.4" y="5.1" width="45.7" height="13" id="aX">
			<g class="st101">
				<path id="aW" class="st1" d="M11.6,11c-1.4,0-3.3,0.1-4.8,0.1l-4.2,0.1c-0.5,0-0.8,0.1-1,0.1c-1.3,0-1.8,0.9,0.1,0.9h0.9
					c1.6,0,4.7-0.1,5.1-0.1c1.5,0,2.9,0,4.3,0c1.8,0,3.5-0.1,5.5,0c2,0.1,4.1,0.1,6.1,0.1c1.5,0,3,0,4.4,0c0.1,0,2.5,0,4.4-0.1
					c1.2-0.1,2.1-0.2,1.9-0.4c-0.3-0.2-1-0.3-1.9-0.4c-1.4-0.1-3-0.1-3.7-0.1c-3-0.1-5.4,0-8.4-0.1C18.2,11,15.9,11,13.7,11
					C13,11,12.3,11,11.6,11L11.6,11z"/>
			</g>
		</mask>
		<path class="st102" d="M-5.4,18h45.7v-13H-5.4"/>
	</g>
	<g transform="translate(88 13.285)">
		<defs>
			<filter id="Adobe_OpacityMaskFilter_51_" filterUnits="userSpaceOnUse" x="-5.1" y="5.1" width="28.3" height="12.9">
				<feColorMatrix  type="matrix" values="1 0 0 0 0  0 1 0 0 0  0 0 1 0 0  0 0 0 1 0"/>
			</filter>
		</defs>
		<mask maskUnits="userSpaceOnUse" x="-5.1" y="5.1" width="28.3" height="12.9" id="aZ">
			<g class="st103">
				<path id="aY" class="st1" d="M6.6,11c-0.6,0-1.4,0.1-2,0.1c-0.3,0-1.2,0.1-1.8,0.1c-0.4,0-0.7,0.1-0.9,0.1
					c-1.2,0-1.6,0.8,0.1,0.8h0.8c0.7,0,2-0.1,2.2-0.1c0.7,0,1.3,0,1.8,0c0.8,0,1.5-0.1,2.4,0c0.9,0.1,1.8,0.1,2.6,0.1
					c0.6,0,1.3,0,1.9,0c0.1,0,1.1,0,1.9-0.1c1.1-0.1,1.9-0.2,1.7-0.4c-0.3-0.2-0.9-0.3-1.7-0.4c-0.6-0.1-1.3-0.1-1.6-0.1
					c-1.3-0.1-2.3,0-3.6-0.1c-1-0.1-2-0.1-2.9-0.1C7.2,11,6.9,11,6.6,11z"/>
			</g>
		</mask>
		<path class="st104" d="M-5.1,18h28.3V5.1H-5.1"/>
	</g>
	<g transform="translate(88 7.285)">
		<defs>
			<filter id="Adobe_OpacityMaskFilter_52_" filterUnits="userSpaceOnUse" x="-5.1" y="5" width="28.3" height="12.9">
				<feColorMatrix  type="matrix" values="1 0 0 0 0  0 1 0 0 0  0 0 1 0 0  0 0 0 1 0"/>
			</filter>
		</defs>
		<mask maskUnits="userSpaceOnUse" x="-5.1" y="5" width="28.3" height="12.9" id="bb">
			<g class="st105">
				<path id="ba" class="st1" d="M7.3,10.9c0.3,0,0.7,0,1.1,0c1.2,0,2.3,0,3.5,0.1c1.5,0.1,0.3,0,1.9,0.1c0.3,0,1.2,0,1.9,0.1
					c0.8,0.1,1.4,0.2,1.7,0.4c0.3,0.2-0.6,0.3-1.7,0.4c-0.5,0.1-1.1,0.1-1.2,0.1c-0.3,0-0.6,0-0.9,0c-1.1,0-2.1,0-3.1-0.1
					c-1-0.1-1.9-0.1-2.8,0c-0.7,0-1.4,0-2.2,0c-0.2,0-1.8,0.1-2.6,0.1H1.9c-1.7,0-1.3-0.8-0.1-0.8c0.2,0,0.5-0.1,0.9-0.1
					C3.4,11,4.5,11,4.9,11C5.6,10.9,6.6,10.9,7.3,10.9L7.3,10.9z M14.4,12h0.4c0.3,0,0.7,0,1,0C14.8,12,14.4,12,14.4,12L14.4,12z"/>
			</g>
		</mask>
		<path class="st106" d="M-5.1,17.9h28.3V5H-5.1"/>
	</g>
	<g transform="translate(67 .285)">
		<defs>
			<filter id="Adobe_OpacityMaskFilter_53_" filterUnits="userSpaceOnUse" x="-5.4" y="4.7" width="55.5" height="58.1">
				<feColorMatrix  type="matrix" values="1 0 0 0 0  0 1 0 0 0  0 0 1 0 0  0 0 0 1 0"/>
			</filter>
		</defs>
		<mask maskUnits="userSpaceOnUse" x="-5.4" y="4.7" width="55.5" height="58.1" id="bd">
			<g class="st107">
				<path id="bc" class="st1" d="M4.5,10.6l-1.2,0H2.8l-0.1,0l-0.3,0c-0.2,0-0.4,0.1-0.5,0.1c-0.7,0.3-1.2,0.9-1.3,1.7l0,0.3v0.2
					l0,0.3l0,0.6l0,2.3c0.1,5.9,0.2,14,0.3,19.9L1.2,55c0,2,1.5,2.8,1.5-0.2L2.5,32c0-3.7,0-7.2,0-10.6c0-1.7,0-3.4,0-5l0-2.5l0-1.2
					l0.1-0.2c0,0,0.5,0,0.9,0l1.2,0l2.5,0c1.6,0,3.3,0,5,0c3.4,0,6.8,0,10.5,0.1c3.7,0.1,7.4,0.1,11.1,0.1c1.8,0,3.7,0,5.6,0l2.8,0
					h0.3l0,0l0,0.7c-0.1,7.4-0.1,14.8-0.3,22.2c0,0.6-0.1,10.6,0,18.3c0.1,1.9,0.3,3.4,0.7,3c0.4-0.5,0.6-1.6,0.7-2.9
					c0.2-5.8,0.3-12.7,0.3-15.4l0.3-17.6l0.1-4.3l0-2.2l0-1.1l0-0.5c0-0.1,0-0.5-0.1-0.8c-0.2-0.6-0.7-1.1-1.3-1.2
					c-0.2,0-0.3,0-0.5,0h-0.3l-0.5,0l-2.2,0l-4.5,0l-18.6-0.1l-9.3,0L4.5,10.6z"/>
			</g>
		</mask>
		<path class="st108" d="M-5.4,62.9h55.5V4.7H-5.4"/>
	</g>
	<g transform="translate(95 41.285)">
		<defs>
			<filter id="Adobe_OpacityMaskFilter_54_" filterUnits="userSpaceOnUse" x="-5.4" y="4.7" width="12.3" height="16.2">
				<feColorMatrix  type="matrix" values="1 0 0 0 0  0 1 0 0 0  0 0 1 0 0  0 0 0 1 0"/>
			</filter>
		</defs>
		<mask maskUnits="userSpaceOnUse" x="-5.4" y="4.7" width="12.3" height="16.2" id="bf">
			<g class="st109">
				<path id="be" class="st1" d="M1.1,15c-0.1-2.2-0.5-4.4-0.5-4.4S1.1,15,1.1,15z"/>
			</g>
		</mask>
		<path class="st110" d="M-5.4,20.9H7V4.7H-5.4"/>
	</g>
	<g transform="translate(50 36.285)">
		<defs>
			<filter id="Adobe_OpacityMaskFilter_55_" filterUnits="userSpaceOnUse" x="-4.7" y="4.9" width="89.3" height="68.4">
				<feColorMatrix  type="matrix" values="1 0 0 0 0  0 1 0 0 0  0 0 1 0 0  0 0 0 1 0"/>
			</filter>
		</defs>
		<mask maskUnits="userSpaceOnUse" x="-4.7" y="4.9" width="89.3" height="68.4" id="bh">
			<g class="st111">
				<path id="bg" class="st1" d="M10.9,11.7c-0.2,0.2-0.4,0.5-0.6,0.8c-0.1,0.2-0.2,0.4-0.3,0.6l0,0.1c-0.1,0.2-0.1,0.3-0.1,0.5
					c-0.1,0.4-0.1,0.7-0.1,1c0,0.5-0.1,0.9-0.4,1.2c-0.3,0.3-0.6,0.6-1.1,0.7c-0.2,0.1-0.7,0.1-1.1,0.1c-0.2,0-0.4,0-0.6,0l-1,0H5.2
					c-0.2,0-0.4,0-0.6,0.1C3.8,16.9,3,17.4,2.4,18c-0.6,0.6-1,1.5-1,2.3c0,0.8,0,1.4,0,2.1l0,4.1c0,10.9-0.1,21.1-0.1,22.9L1.2,60.1
					l0,2.6v1.9c0,0.3,0.1,0.6,0.2,0.9c0.3,0.6,0.7,1.1,1.3,1.3c0.3,0.1,0.6,0.2,0.9,0.2h0.6l2.5,0l19.5,0c12.9,0,25.7,0,40.2,0.2
					c1.8,0,3.6,0,5.4,0.1l2.7,0l0.7,0l0.3,0l0.2,0l0.3,0c0.7-0.1,1.4-0.5,1.9-1c0.2-0.3,0.4-0.6,0.5-1c0-0.2,0.1-0.4,0.1-0.5l0-0.4
					l0-1.4l0-2.7l0-5.5c0-7.3,0-14.6,0-21.9v-5.5l0-2.7c0-0.1,0-0.3,0-0.5c0-0.2-0.1-0.4-0.1-0.5c-0.1-0.4-0.3-0.7-0.6-1
					c-0.5-0.5-1.2-0.9-2-0.9l-10.9,0l-21.8-0.1c-1.2,0-20.8,0-36.1,0.1c-1.9,0.1-3.4,0.4-2.9,0.7c0.5,0.4,1.6,0.6,2.9,0.7
					c11.5,0.2,25,0.2,30.4,0.2c12.2,0,23.4,0.1,34.6,0.1l2.1,0l1.1,0h0.5c0.2,0,0.2,0,0.3,0c0.4,0.1,0.6,0.4,0.7,0.8l0,2.1
					c0,2.8,0,5.6,0,8.5l-0.1,17.6c0,3-0.1,6.1-0.1,9.1l0,2.3l0,0.6l0,0.2c-0.1,0.1-0.2,0.3-0.3,0.4l-0.2,0.1l-0.1,0h-0.3l-1.1,0
					l-2.3,0c-6.1,0-12.3-0.1-18.4-0.1c-12.3,0-24.5,0-36.4-0.1c-2.9,0-6.1,0-9.4,0c-0.8,0-1.7,0-2.5,0l-1.3,0H3.7l-0.2-0.1
					c-0.1-0.1-0.3-0.2-0.3-0.4l0-0.1c0,0,0-0.1,0-0.2v-0.6l0-2.6L3,41.7c0-3.8,0-12.3-0.1-21c0-0.8,0.5-1.6,1.2-2
					c0.4-0.2,0.8-0.3,1.2-0.3c0.5,0,1.1,0,1.6,0c0.2,0,0.3,0,0.5,0c0.4,0,0.8,0,1.3-0.1c0.7-0.2,1.3-0.5,1.7-1
					c0.5-0.5,0.8-1.1,0.9-1.8c0.1-0.7,0-1.1,0.1-1.5l0.1-0.3l0,0l0-0.1l0.1-0.2c0.1-0.1,0.1-0.2,0.2-0.3c0.1-0.2,0.2-0.3,0.4-0.5
					c0.6-0.5,1-1,1.1-1.4c0-0.2-0.2-0.4-0.6-0.4h0C12.2,10.8,11.5,11,10.9,11.7L10.9,11.7z"/>
			</g>
		</mask>
		<path class="st112" d="M-4.7,73.3h89.3V4.9H-4.7"/>
	</g>
	<g transform="translate(76 59.285)">
		<defs>
			<filter id="Adobe_OpacityMaskFilter_56_" filterUnits="userSpaceOnUse" x="-5.2" y="5.1" width="26.1" height="34.8">
				<feColorMatrix  type="matrix" values="1 0 0 0 0  0 1 0 0 0  0 0 1 0 0  0 0 0 1 0"/>
			</filter>
		</defs>
		<mask maskUnits="userSpaceOnUse" x="-5.2" y="5.1" width="26.1" height="34.8" id="bj">
			<g class="st113">
				<path id="bi" class="st1" d="M0.8,15.3L7.6,11l5.1,3.8v0.4l2.2,1.4l0.2-0.3l-1,8.5L13.1,24l0,0v-0.4l-5.4,4.6l-7-4.4L5.9,20l0,0
					l0.3-0.2C6.2,19.7,0.8,15.3,0.8,15.3z M11.5,25.8l1.2-1l1.2,0.8L13,32.9h-0.3v0.8c0,0.2-0.1,0.3-0.3,0.3l-0.1,0L6,30.1
					c-0.2-0.1-0.4-0.4-0.4-0.7l-0.1-1.8l1.9,1.2L7.7,29L8,28.8L11.5,25.8L11.5,25.8z"/>
			</g>
		</mask>
		<path class="st114" d="M-5.2,39.9h26.1V5.1H-5.2"/>
	</g>
	<g transform="translate(75 59.285)">
		<defs>
			<filter id="Adobe_OpacityMaskFilter_57_" filterUnits="userSpaceOnUse" x="-4.9" y="4.3" width="30.5" height="36.2">
				<feColorMatrix  type="matrix" values="1 0 0 0 0  0 1 0 0 0  0 0 1 0 0  0 0 0 1 0"/>
			</filter>
		</defs>
		<mask maskUnits="userSpaceOnUse" x="-4.9" y="4.3" width="30.5" height="36.2" id="bl">
			<g class="st115">
				<path id="bk" class="st1" d="M1.5,14.8l7.1-4.5l6.1,4.5l-0.2,0.2l1.8,1.1L16,16.3l-0.2,0.3l-2.2-1.4v-0.4L8.6,11l-6.7,4.3
					l5.4,4.4l-0.3,0.2l0,0l-5.2,3.9l7,4.4l5.4-4.6V24l0,0l0.9,0.7l4.8,3.8l-0.4,0.2L19,29l-3.8-3.2l-0.3-0.2l-1.2-0.8l-1.2,1l-3.6,3
					L8.7,29l-0.2-0.1l-1.9-1.2l0.1,1.8c0,0.3,0.2,0.5,0.4,0.7l6.2,3.8l0.1,0c0.1,0,0.3-0.1,0.3-0.3v-0.8h0.6v0.8
					c0,0.5-0.4,0.9-0.9,0.9h0c-0.2,0-0.3,0-0.5-0.1l-6.2-3.8C6.3,30.4,6.1,30,6,29.5l-0.1-2.2l-4.6-2.9C1.1,24.2,1,24,1,23.8
					c0-0.2,0.1-0.4,0.2-0.5l4.9-3.7l-4.8-3.9c-0.1-0.1-0.2-0.3-0.2-0.5C1.2,15.1,1.3,14.9,1.5,14.8L1.5,14.8z M15.2,25.7L15.2,25.7
					L15.2,25.7L15.2,25.7z"/>
			</g>
		</mask>
		<path class="st116" d="M-4.9,40.5h30.5V4.3H-4.9"/>
	</g>
	<path class="st117" d="M90.6,72.7l6.6,5.2l6.4-4.6l-7.9-5"/>
	<path class="st118" d="M89.8,82.9l8.1-5.4l-5.7-3.3l-2.4-1.5"/>
	<path class="st119" d="M88.4,73.1l-6,4.7l7.6,4.8v-9.9"/>
	<path class="st119" d="M88.3,83.9l-3.8,3.2L82,85.5l0.1,3.1l7.9,4.9V82.4"/>
	<path class="st117" d="M76.6,82.1l7.9,5l5.5-4.7l-7.6-4.6"/>
	<path class="st117" d="M89.8,82.5l5.9,4.6l7.9-5l-5.8-4.3 M76.8,73.1l5.8,4.7l7.6-5.3l-5.8-4.3"/>
	<path class="st117" d="M90.1,93.5l7.7-4.9l0.1-3.1l-2.5,1.6l-3.8-3.2l-1.7-1.2"/>
	<g transform="translate(75 57.285)">
		<defs>
			<filter id="Adobe_OpacityMaskFilter_58_" filterUnits="userSpaceOnUse" x="-4.8" y="4.3" width="32.6" height="21.4">
				<feColorMatrix  type="matrix" values="1 0 0 0 0  0 1 0 0 0  0 0 1 0 0  0 0 0 1 0"/>
			</filter>
		</defs>
		<mask maskUnits="userSpaceOnUse" x="-4.8" y="4.3" width="32.6" height="21.4" id="bn">
			<g class="st120">
				<path id="bm" class="st1" d="M9.1,10.4l-2.3,1.4c-0.7,0.4-1.4,0.9-2.1,1.3c-0.5,0.3-1.1,0.8-1.8,1.2c-0.3,0.2-0.7,0.4-1,0.7
					c-0.3,0.2-0.6,0.3-0.7,0.6l-0.1,0.3c0,0.1,0,0.2,0,0.3c0,0.1,0,0.2,0.3,0.4l2,1.5l1.8,1.4c1,0.8,2,0.3,0.5-0.9L2.7,16l-0.1-0.1
					l0.1-0.1l0.1,0c2.2-1.3,4.5-3,6.7-4.2l0.1,0l0,0l0,0l0.1,0.1l0.4,0.4l0.9,0.8c0.6,0.5,1.2,1,1.9,1.5c1.2,1,2.5,1.9,3.8,2.8
					c0.1,0.1,1.4,1,2.8,1.7c1.3,0.7,2.8,1.1,2.6,0.7c-0.2-0.4-1.1-1-2-1.6c-0.9-0.6-1.8-1.2-2.2-1.5c-2.1-1.6-3.9-2.8-5.8-4.6
					c-0.4-0.3-0.7-0.6-1.1-1l-0.6-0.5c-0.2-0.1-0.4-0.3-0.6-0.4c-0.1,0-0.1,0-0.2,0C9.3,10.2,9.2,10.3,9.1,10.4z"/>
			</g>
		</mask>
		<path class="st121" d="M-4.8,25.8h32.6V4.3H-4.8"/>
	</g>
	<g transform="translate(75 62.285)">
		<defs>
			<filter id="Adobe_OpacityMaskFilter_59_" filterUnits="userSpaceOnUse" x="-4.8" y="5" width="24.8" height="26.4">
				<feColorMatrix  type="matrix" values="1 0 0 0 0  0 1 0 0 0  0 0 1 0 0  0 0 0 1 0"/>
			</filter>
		</defs>
		<mask maskUnits="userSpaceOnUse" x="-4.8" y="5" width="24.8" height="26.4" id="bp">
			<g class="st122">
				<path id="bo" class="st1" d="M12.7,11.3c-0.9,0.6-4.1,2.8-4.4,3.1c-1.3,0.9-2.4,1.7-3.5,2.5l-1.7,1.2c-0.3,0.2-0.6,0.4-0.9,0.6
					C2,18.9,1.8,19,1.5,19.2c-0.3,0.2-0.4,0.4-0.5,0.6c0,0.3,0.1,0.4,0.3,0.7L2.2,21l1,0.6l2,1.2l2,1.2l1,0.6l0.5,0.3
					c0.2,0.1,0.6,0.5,0.9,0.4c0.1,0,0.3,0,0.5-0.2l0.7-0.6c0.4-0.4,1-0.9,1.5-1.4c1.1-1,2-2.1,1.5-2.1c-1,0-3.5,2.3-4.2,2.9
					l-0.2,0.1l-0.1-0.1c-0.2-0.2-0.5-0.3-0.7-0.5c-0.5-0.3-1-0.6-1.5-1c-1-0.6-2-1.3-3.1-2l-0.8-0.5l-0.4-0.3l-0.1-0.1l0,0l0,0l0,0
					L3,19.7l0.2-0.1c1.1-0.7,2.1-1.5,3.2-2.2c1-0.7,2.4-1.7,3.3-2.5c0.6-0.5,2.9-2.2,3.8-2.8c0.7-0.5,0.9-1.2,0.4-1.2
					C13.6,10.9,13.2,11,12.7,11.3L12.7,11.3z"/>
			</g>
		</mask>
		<path class="st123" d="M-4.8,31.4H20V5H-4.8"/>
	</g>
	<g transform="translate(89 57.285)">
		<defs>
			<filter id="Adobe_OpacityMaskFilter_60_" filterUnits="userSpaceOnUse" x="-4.7" y="4.4" width="25.5" height="26.3">
				<feColorMatrix  type="matrix" values="1 0 0 0 0  0 1 0 0 0  0 0 1 0 0  0 0 0 1 0"/>
			</filter>
		</defs>
		<mask maskUnits="userSpaceOnUse" x="-4.7" y="4.4" width="25.5" height="26.3" id="br">
			<g class="st124">
				<path id="bq" class="st1" d="M6.5,10.4c0,0-0.1,0-0.3,0.2l-1.8,1.6c-0.7,0.6-1.4,1.2-1.8,1.6c-1,0.9-0.7,1.9,0.8,0.7
					c0.6-0.5,2.7-2.3,3.3-2.8l0.2,0L7,11.7c1.2,0.8,2.2,1.4,3.3,2.1c0.5,0.3,1.1,0.7,1.6,1l0.8,0.5c0.3,0.2,0.6,0.4,0.6,0.4l0,0.1
					l-0.1,0.1l-0.1,0l0,0L13.1,16l-0.5,0.4l-0.9,0.7l-1.9,1.4c-1.3,1-2.5,1.9-3.9,2.7l-2.7,1.8c-1.2,0.8-2.4,1.6-2,1.7
					c1,0.2,4-1.7,4.8-2.2c2.3-1.4,4.1-2.8,6.2-4.4c0.5-0.4,1-0.7,1.5-1.1l0.4-0.3c0.2-0.2,0.5-0.3,0.6-0.5l0.2-0.3
					c0-0.1,0-0.2,0-0.4c-0.1-0.2-0.1-0.4-0.4-0.6l-2.1-1.4l-1.8-1.1c-0.5-0.3-1.2-0.7-1.8-1.1c-0.3-0.2-0.7-0.4-1-0.6
					c-0.2-0.1-0.4-0.2-0.6-0.3c-0.2-0.1-0.3-0.2-0.5-0.2C6.6,10.3,6.5,10.4,6.5,10.4L6.5,10.4z"/>
			</g>
		</mask>
		<path class="st125" d="M-4.7,30.8h25.5V4.4H-4.7"/>
	</g>
	<g transform="translate(82 67.285)">
		<defs>
			<filter id="Adobe_OpacityMaskFilter_61_" filterUnits="userSpaceOnUse" x="-4.4" y="5" width="32.1" height="21.3">
				<feColorMatrix  type="matrix" values="1 0 0 0 0  0 1 0 0 0  0 0 1 0 0  0 0 0 1 0"/>
			</filter>
		</defs>
		<mask maskUnits="userSpaceOnUse" x="-4.4" y="5" width="32.1" height="21.3" id="bt">
			<g class="st126">
				<path id="bs" class="st1" d="M17,12.2l2.3,1.8c0.4,0.3,0.8,0.6,1,0.8c0.1,0.1,0.1,0.2,0,0.2L20.3,15l-0.5,0.3l-0.9,0.6
					c-0.6,0.4-1.1,0.7-1.7,1.1c-0.6,0.4-1.1,0.7-1.7,1.1c-0.3,0.2-0.6,0.4-0.9,0.5l-0.5,0.3c-0.1,0.1-0.4,0.2-0.4,0.2h0L13.7,19
					l-0.4-0.4l-0.9-0.8c-0.6-0.5-1.2-1-1.8-1.5c-1.3-0.9-2.5-1.9-3.8-2.8c-0.3-0.2-5.4-3.3-5.2-2.5c0.2,0.9,3.3,2.7,4.1,3.2
					c2.1,1.4,3.9,2.7,5.8,4.4c0.4,0.3,0.7,0.6,1.1,0.9l0.3,0.2c0.1,0.1,0.1,0.1,0.3,0.3c0.3,0.3,0.8,0.4,1.2,0.2
					c0.8-0.5,1.5-0.9,2.3-1.4c0.7-0.4,1.4-0.9,2.1-1.3c0.5-0.3,1.1-0.8,1.7-1.2l1.2-0.8c0.2-0.2,0.3-0.4,0.3-0.7
					c0-0.3-0.1-0.4-0.3-0.6c-0.1-0.1-0.4-0.3-0.5-0.4l-0.4-0.3l-1.1-0.8c-0.8-0.6-1.5-1.2-2-1.5c-0.3-0.3-0.7-0.4-0.9-0.4
					C16.1,10.9,16,11.4,17,12.2L17,12.2z"/>
			</g>
		</mask>
		<path class="st127" d="M-4.4,26.3h32.1V5H-4.4"/>
	</g>
	<g transform="translate(88 73.285)">
		<defs>
			<filter id="Adobe_OpacityMaskFilter_62_" filterUnits="userSpaceOnUse" x="-4.6" y="4.6" width="13.2" height="20.3">
				<feColorMatrix  type="matrix" values="1 0 0 0 0  0 1 0 0 0  0 0 1 0 0  0 0 0 1 0"/>
			</filter>
		</defs>
		<mask maskUnits="userSpaceOnUse" x="-4.6" y="4.6" width="13.2" height="20.3" id="bv">
			<g class="st128">
				<path id="bu" class="st1" d="M1.5,10.8c0,0.3,0,1.4,0,1.5c-0.1,0.9,0.1,1.5-0.1,2.4c-0.2,0.9,0,1.7-0.1,2.6c0,0.1,0,1.8,0.6,1.6
					c0.6-0.2,0.5-1.2,0.5-1.4c0.1-0.7,0-1.3,0.1-2.1c0.1-0.7,0.1-1.5,0.1-2.2c0-0.3-0.1-0.8-0.1-1.2c0-0.2-0.1-1-0.1-1.3
					c0-0.2-0.3-0.3-0.5-0.3C1.7,10.5,1.5,10.6,1.5,10.8L1.5,10.8z"/>
			</g>
		</mask>
		<path class="st129" d="M-4.6,24.8H8.6V4.6H-4.6"/>
	</g>
	<g transform="translate(81 76.285)">
		<defs>
			<filter id="Adobe_OpacityMaskFilter_63_" filterUnits="userSpaceOnUse" x="-5.2" y="4.5" width="28.3" height="19.2">
				<feColorMatrix  type="matrix" values="1 0 0 0 0  0 1 0 0 0  0 0 1 0 0  0 0 0 1 0"/>
			</filter>
		</defs>
		<mask maskUnits="userSpaceOnUse" x="-5.2" y="4.5" width="28.3" height="19.2" id="bx">
			<g class="st130">
				<path id="bw" class="st1" d="M1.2,10.4c-0.2,0.2-0.3,0.5-0.4,0.9c0,0.2-0.1,0.4-0.1,0.6c-0.1,0.3,0.1,0.7,0.4,0.9l1.3,0.8
					c1.6,1.1,2.9,1.8,4.5,2.9l1,0.7l0.3,0.2l0.1,0.1l0.3,0.1c0.4,0.2,0.8,0.1,1.2-0.1c0.9-0.6,1.8-1.1,2.6-1.7
					c0.8-0.5,1.8-1.2,2.5-1.7l1.3-0.9l0.4-0.3c0.2-0.1,0.5-0.3,0.5-0.5c0.1-0.6,0-0.8,0-1c0-0.9-1-1.3-1,0.1V12l0,0.1l-0.9,0.6
					l-1.5,0.9c-1.7,1-3,2-4.7,3l-0.1,0l-0.1-0.1l-0.2-0.1l-0.3-0.2l-0.7-0.5l-1.4-0.9c-1-0.6-1.9-1.2-2.9-1.8c0,0-0.2-0.1-0.5-0.3
					c-0.2-0.1-0.3-0.2-0.5-0.3L2,12.1l-0.2-0.1l-0.1,0h0l-0.1,0l0,0l0-0.2c0-0.3-0.1-0.5-0.1-0.8C1.5,10.6,1.4,10.4,1.2,10.4
					C1.2,10.4,1.2,10.4,1.2,10.4z"/>
			</g>
		</mask>
		<path class="st131" d="M-5.2,23.7h28.3V4.5H-5.2"/>
	</g>
	<path class="st132" d="M106,11.6h20.7H106L106,11.6z M57,11.2h19H57L57,11.2z"/>
	<path class="st1" d="M36.2,90.5c1.4,0.1,2.6-0.8,2.7-2.2c0.1-1.4-0.8-2.6-2.2-2.7c-1.4-0.1-2.6,0.8-2.7,2.2
		C33.8,89.1,34.8,90.4,36.2,90.5"/>
	<path class="st133" d="M34.7,89c-0.5-1-0.2-2.2,0.8-2.6c1-0.4,2.2,0.1,2.5,1.1c0.2,0.4,0.2,1.1-0.1,1.6c-0.1,0.2-0.6,0.8-1.1,0.9
		c-0.2,0.1-0.4,0.1-0.6,0l-0.1,1.1c0.2,0,0.5,0,0.9-0.1c0.5-0.1,1.1-0.4,1.5-0.8c0.4-0.4,0.6-0.9,0.7-1c0.4-1,0.3-2-0.2-2.8
		c-0.5-0.8-1.3-1.3-2.3-1.5c-1.1-0.2-2.2,0.3-2.8,1.2c-0.6,0.9-0.7,2.1-0.4,3.1c0,0,0.1,0.4,0.5,0.7c0.3,0.4,0.8,0.8,1.4,0.9
		c0.2,0,0.5,0.1,0.8,0.1l0.1-1.1c-0.2,0-0.3-0.1-0.5-0.2C35.3,89.6,34.8,89.3,34.7,89"/>
	<path class="st134" d="M32.9,91.6c2.6-0.2,4.9,1.9,5.1,4.8l0.7,8.1c0,0.3-0.2,0.6-0.5,0.6l-8.2,0.7c-0.3,0-0.6-0.2-0.6-0.5
		l-0.7-8.1C28.4,94.3,30.3,91.8,32.9,91.6"/>
	<path class="st133" d="M32.4,91.2c-0.2,0-0.4,0.1-0.6,0.1c-0.8,0.2-1.6,0.7-2.1,1.2c-0.5,0.5-0.9,1-1.1,1.3
		c-0.4,0.7-0.6,1.4-0.7,2.1c-0.1,0.7-0.1,1.5,0,2.1l0.3,3.8c0,0.6,0.1,1.2,0.2,1.9c0,0.3,0.1,0.6,0.1,1l0.1,0.6
		c0,0.3,0.1,0.6,0.2,0.8c0.2,0.4,0.6,0.6,1,0.7c0.2,0,0.5,0,0.6,0l0.4,0c0.5,0,1,0,1.5,0c1-0.1,2-0.4,3-0.4l1.5-0.1l0.8-0.1l0.6-0.1
		c0.2,0,0.4-0.1,0.6-0.2c0.4-0.2,0.6-0.6,0.6-1.1c0-0.2,0-0.5,0-0.7l0-0.4c0-0.5,0-1-0.1-1.5c-0.1-1-0.3-2.2-0.4-3.3
		c-0.1-0.6-0.1-1.1-0.2-1.7c0-0.3,0-0.5-0.1-0.8c0-0.3-0.1-0.6-0.2-0.8c-0.1-0.7-0.7-2.4-2.2-3.5c-0.7-0.6-1.7-0.9-2.4-0.9
		c-0.5-0.1-0.9,0-1.2,0l0.1,1.1c0.2,0,0.4,0,0.9,0.1c0.5,0.1,1.6,0.5,2.3,1.3c0.6,0.6,1,1.4,1.1,2.1c0.1,0.3,0.1,0.6,0.1,0.9l0,0.5
		c0.1,1.2,0.2,2.3,0.3,3.4c0.1,1.1,0.1,2.3,0.2,3.4l0,0.4l0,0.2c0,0.1,0,0.2-0.1,0.2c0,0-0.1,0-0.1,0l-0.4,0c-0.3,0-0.6,0.1-0.8,0.1
		c-1.1,0.1-2.2,0-3.4,0.1c-0.6,0-1.2,0.1-1.8,0.1l-0.9,0.1l-0.2,0c0,0,0,0-0.1,0c0,0,0-0.1,0-0.1l0-0.9c0-0.6-0.1-1.2-0.1-1.8
		c-0.1-1.2-0.4-2.4-0.5-3.6c0-0.3,0-0.6,0-0.9c0-0.3,0-0.6,0-0.9c0.1-0.5,0.2-1,0.4-1.5c0.2-0.4,0.3-1.3,1.3-2.1
		c0.3-0.3,0.7-0.5,1.1-0.7c0.2-0.1,0.5-0.2,0.7-0.3l-0.1-1.1C32.7,91.2,32.5,91.2,32.4,91.2"/>
	<path class="st135" d="M31.4,91.6l0.7,13.5l-2.8,1.3C29.3,106.5,27.5,94.8,31.4,91.6"/>
	<path class="st133" d="M38.7,117.5c0-0.4-0.3-0.7-0.7-1.1c-0.2-0.2-0.3-0.3-0.5-0.5l-0.3-0.4c-0.8-0.9-1.4-1.7-1.9-2.8l-1.6-3.3
		l-0.9-1.7c-0.2-0.3-0.8-1.5-0.9-2c-0.2-0.6-1.3-0.4-1,0.5c0.2,0.5,0.9,2.2,1,2.4c0.5,1.4,1.2,2.4,1.8,3.8c0.6,1.4,1.6,2.6,2.6,3.8
		c0,0,0.6,0.7,1.3,1c0.3,0.2,0.7,0.3,1,0.4C38.5,117.8,38.7,117.7,38.7,117.5"/>
	<path class="st133" d="M31.2,117.3c0.3,0.2,0.8-0.1,1.2-0.4c0.4-0.3,0.6-0.8,0.7-1c0.6-1,1-1.9,1.5-2.9c0.5-1,0.9-2.1,1.2-3.2
		c0.1-0.5,0.3-1.3,0.4-1.8l0.3-2c0.1-0.6-1-0.9-1.1-0.2c-0.1,0.4-0.5,2.1-0.6,2.2c-0.4,1.3-0.5,2.3-1.1,3.5
		c-0.6,1.2-0.9,2.5-1.6,3.5l-0.6,1.1c-0.1,0.3-0.3,0.5-0.3,0.7C31.1,117,31.1,117.2,31.2,117.3 M25.6,104.4c0.4,0.2,0.9,0,1.5-0.3
		c0.3-0.1,0.5-0.3,0.8-0.4l0.4-0.3c0.1-0.1,0.3-0.2,0.4-0.2c0.3-0.2,0.4-0.5,0.4-0.8c0-0.3-0.2-0.5-0.5-0.7l-0.5-0.3l-0.3-0.2
		c-0.2-0.1-0.4-0.3-0.5-0.4c-0.3-0.3-0.7-0.6-0.9-1c-0.4-0.5-0.7-1.1-0.8-1.6c-0.1-0.5,0-1,0.3-1.5c0.2-0.5,0.8-1.1,1.4-1.4
		c0.3-0.3,1.7-1,2.2-1.1c0.6-0.2,0.7-1.4-0.4-1.1c-0.3,0.1-1,0.3-1.6,0.6c-0.6,0.3-1.2,0.7-1.3,0.7c-0.8,0.5-1.5,1.2-1.8,2.1
		c-0.2,0.4-0.2,0.9-0.2,1.4c0,0.5,0.2,1,0.3,1.5c0.3,0.8,0.8,1.4,1.4,1.9c0.3,0.3,0.6,0.5,0.9,0.7l0.6,0.5c0,0,0,0,0,0c0,0,0,0,0,0
		c0.1,0-0.2,0.1-0.3,0.2l-0.5,0.4C25.8,103.6,25.2,104.2,25.6,104.4 M45.9,89.4c-0.3,0.2-0.4,0.7-0.5,1c-0.1,0.3-0.2,0.5-0.4,0.6
		C45,91,44.9,91,44.7,91c-0.1,0-0.1,0-0.2,0c-0.1,0-0.1,0-0.3,0c-0.1,0-0.3,0-0.5-0.1c-0.1,0-0.3,0-0.4,0.1
		c-0.3,0.1-0.4,0.3-0.4,0.7c0,0.1,0,0.2,0,0.3l0,0.3c0,0.1,0,0.3-0.1,0.4c-0.3,1-0.7,1.9-1.3,2.2c-0.3,0.2-0.8,0.3-1.2,0.3
		c-0.3,0-1.3-0.2-1.7-0.5c-0.4-0.2-1.3,0.6-0.5,1c0.2,0.1,0.7,0.4,1.2,0.5c0.5,0.2,1.1,0.2,1.2,0.2c0.8,0.1,1.6-0.2,2.1-0.6l0.4-0.4
		l0.3-0.4c0.2-0.3,0.3-0.6,0.5-0.9c0.2-0.3,0.3-0.7,0.4-1c0.1-0.3,0.1-0.9,0.1-0.7c0,0,0,0,0,0h0.1c0.1,0,0.2,0,0.3,0
		c0.2,0,0.5-0.1,0.7-0.1c0,0,0.3-0.1,0.6-0.4c0.3-0.3,0.5-0.8,0.5-1.3C46.6,89.7,46.2,89.2,45.9,89.4 M133.5,92.1
		c-0.8,0.3-0.8,2-0.9,2.5c-0.1,0.6-0.2,1.2-0.2,1.8c-0.1,0.6-0.1,1.4,0.2,2.1c0.4,1.5,2,2.6,3.6,2.6c0.2,0,0.4,0,0.6,0l0.5-0.1
		l1-0.2c0.4-0.1,1.8-0.3,2.3-0.4c0.6-0.1,0.7-1.2-0.2-1.1c-0.5,0.1-2.4,0.3-2.6,0.3c-0.4,0-0.7,0.1-1.1,0.1c-0.3,0-0.6,0.1-0.8,0
		c-0.5-0.1-1.1-0.3-1.4-0.8c-0.3-0.5-0.6-1-0.6-1.6c0-0.1,0-0.3,0-0.4l0-0.6c0-0.4,0.1-0.8,0.1-1.1
		C133.9,94.8,134.2,91.8,133.5,92.1"/>
	<path class="st136" d="M144.5,94.3c-2.9,0.9-4.6,4.2-3.6,7.5l1.5,8c0.1,0.4,0.5,0.6,0.9,0.5l10.5-1.5c0.4-0.1,0.6-0.5,0.5-0.9
		l-2.7-9.2C150.6,95.4,147.5,93.4,144.5,94.3"/>
	<path class="st133" d="M145,94.7c0.2,0,0.4,0,0.5,0c1.7-0.1,3.1,0.8,3.5,1.3c0.5,0.5,1,1,1.3,1.6c0.3,0.6,0.5,1.2,0.7,1.9l1.2,4.3
		c0.2,0.7,0.4,1.4,0.7,2.1c0.1,0.4,0.2,0.7,0.4,1.1c0.1,0.3,0.3,0.9,0.2,0.8c0,0.1-0.1,0.2-0.1,0.2c-0.1,0,0-0.1-0.4,0
		c-0.6,0-1.2,0.1-1.8,0.1c-1.2,0.2-2.3,0.5-3.5,0.7l-3.5,0.5l-0.4,0.1l-0.2,0c-0.1,0,0,0-0.1,0c-0.1,0-0.1,0-0.1-0.1c0,0,0,0,0-0.1
		c0,0,0,0,0-0.1l0-0.2l-0.1-0.9c-0.2-1.1-0.6-2.5-0.8-3.8l-0.4-2c-0.1-0.3-0.1-0.6-0.2-1c-0.1-0.3-0.1-0.5-0.2-0.8
		c-0.1-0.7-0.1-2.3,0.8-3.7c0.4-0.7,1.1-1.4,1.6-1.7c0.3-0.2,0.6-0.3,0.9-0.4l-0.3-1c-0.2,0.1-0.5,0.1-1.1,0.4
		c-0.4,0.2-0.9,0.5-1.4,1.1c-0.5,0.5-0.9,1.2-1.2,1.8c-0.5,1.2-0.6,2.4-0.6,3.4c0,0.5,0.1,0.9,0.2,1.2c0.1,0.2,0.1,0.5,0.1,0.6
		c0.2,1.4,0.5,2.6,0.7,3.9l0.3,2l0.2,1l0.1,0.5c0,0.3,0.1,0.5,0.3,0.7c0.3,0.4,0.9,0.7,1.4,0.5l1.1-0.2c0.6-0.1,1.3-0.2,2-0.3
		c1.3-0.2,2.6-0.2,3.9-0.4c0.7-0.1,1.4-0.2,2.1-0.3l1.1-0.2c0.7,0,1.2-0.4,1.5-1c0.1-0.3,0.2-0.6,0.1-0.9l-0.2-0.7l-0.3-1
		c-0.2-0.7-0.4-1.4-0.6-2.1c-0.4-1.4-1-2.7-1.4-4.1c-0.2-0.7-0.3-1.4-0.5-2.2c-0.2-0.8-0.6-1.5-1.1-2.1c-0.5-0.6-1.4-1.5-3.6-2.1
		c-0.7-0.2-1.4-0.1-2.1,0c-0.3,0.1-0.7,0.2-1,0.3l0.3,1C144.8,94.7,144.9,94.7,145,94.7"/>
	<path class="st135" d="M146.2,93.7l4.9,15.2l3.6,0.3C154.7,109.1,151.8,95.5,146.2,93.7"/>
	<path class="st1" d="M142.3,92.7c-1.4,0.7-3.2,0.2-3.9-1.3c-0.7-1.4-0.2-3.2,1.3-3.9c1.4-0.7,3.2-0.2,3.9,1.3S143.7,92,142.3,92.7"
		/>
	<path class="st133" d="M144.3,90.8c0.4-2-0.9-3.8-2.9-4.2c-1-0.2-2.1,0.1-2.9,0.8c-0.8,0.7-1.2,1.8-1.1,2.8c0,1,0.8,2.3,1.7,2.7
		c0.2,0.1,0.6,0.3,1.1,0.4c0.5,0.1,1.1,0.1,1.5,0c0.3-0.1,0.6-0.2,0.8-0.3l-0.5-0.9c-0.1,0.1-0.3,0.2-0.6,0.2
		c-0.4,0.1-0.9,0.1-1.3-0.1c-0.4-0.2-0.7-0.4-0.8-0.5c-0.5-0.6-0.8-1.3-0.7-2c0.1-0.7,0.6-1.4,1.3-1.6c0.7-0.2,1.5-0.2,2.2,0.2
		c0.6,0.4,1,1.2,0.9,1.9c0,0-0.1,1-0.7,1.6c-0.1,0.1-0.2,0.2-0.4,0.3l0.5,0.9c0.2-0.1,0.4-0.2,0.6-0.4
		C144,92.3,144.3,91.2,144.3,90.8 M139.1,117.3c0.6-0.5,0.1-1.5,0-1.8c-0.1-0.8-0.4-1.5-0.2-2.2c0.2-0.7,0.5-1.2,1-1.5
		c0.2-0.2,0.7-0.4,1-0.5c0.2-0.1,1.1-0.3,1.5-0.3c0.2,0,0.5-0.4,0.3-0.6c-0.1-0.1-0.2-0.2-0.2-0.3c0-0.1-0.1-0.2-0.2-0.2
		c-0.2,0-0.6,0-1,0.1s-0.8,0.1-0.9,0.1c-1.2,0.2-2,1-2.6,2.1c-0.3,0.6-0.3,1.2-0.3,1.8c0.1,0.6,0.2,1.1,0.3,1.7c0,0,0.2,0.6,0.4,1
		C138.5,117.2,138.8,117.5,139.1,117.3 M157,117.6c-0.2-0.8-1.7-0.8-2-1c-1-0.3-1.9-0.6-2.7-1.2c-0.8-0.7-1.2-1.4-1.2-2.3
		c0-0.4,0-1.1,0.2-1.5c0-0.3,0.5-1.4,0.7-1.9c0.1-0.1,0.1-0.3,0-0.5c-0.1-0.2-0.2-0.3-0.4-0.2c-0.1,0-0.1,0.1-0.2,0.1
		c0,0-0.1,0-0.1,0l0,0v0l0.1,0h0l0,0l-0.1,0c-0.1,0-0.2,0.1-0.3,0.2c-0.1,0.2-0.4,0.7-0.6,1.2c-0.2,0.5-0.4,1-0.4,1.1
		c-0.5,1.4-0.3,2.8,0.6,4.1c0.4,0.7,1.1,1.1,1.8,1.4c0.7,0.3,1.4,0.5,2,0.7c0,0,0.8,0.2,1.4,0.2C156.5,118,157.1,118,157,117.6
		 M136.3,102.8c0.1,0.8,1.8,1.2,2.2,1.4c0.6,0.3,1.2,0.4,1.7,0.7c0.6,0.2,1.3,0.3,2.1,0.3c0.8,0,1.5-0.3,2.2-0.8
		c0.6-0.4,1.2-1.2,1.5-1.7c0.3-0.5,0.8-1.3,1.1-1.8c0.2-0.4,0.9-1.6,1.2-2c0.4-0.5-0.4-1.4-1-0.6l-1.5,2.2c-0.5,0.6-0.8,1.2-1.2,1.8
		c-0.3,0.5-0.8,0.9-1.4,1.1c-0.6,0.2-1.2,0.3-1.9,0.2c-0.6-0.1-1.4-0.4-2.1-0.6C139.2,103,136.2,102,136.3,102.8"/>
</g>
</svg>
